<svg width="80" height="89" viewBox="0 0 80 89" fill="none" xmlns="http://www.w3.org/2000/svg">
<path d="M71.0991 8.88739H66.6554V4.4437C66.6554 1.99966 64.6558 0 62.2117 0C59.7677 0 57.768 1.99966 57.768 4.4437V8.88739H22.2185V4.4437C22.2185 1.99966 20.2188 0 17.7748 0C15.3308 0 13.3311 1.99966 13.3311 4.4437V8.88739H8.88739C3.95489 8.88739 0.0444369 12.8867 0.0444369 17.7748L0 79.9865C0 82.3436 0.936347 84.6041 2.60306 86.2709C4.26977 87.9376 6.53031 88.8739 8.88739 88.8739H71.0991C75.9872 88.8739 79.9865 84.8746 79.9865 79.9865V17.7748C79.9865 12.8867 75.9872 8.88739 71.0991 8.88739ZM71.0991 75.5428C71.0991 77.9869 69.0995 79.9865 66.6554 79.9865H13.3311C10.8871 79.9865 8.88739 77.9869 8.88739 75.5428V31.1059H71.0991V75.5428ZM17.7748 39.9933H26.6622V48.8807H17.7748V39.9933ZM35.5496 39.9933H44.437V48.8807H35.5496V39.9933ZM53.3244 39.9933H62.2117V48.8807H53.3244V39.9933Z" fill="#407A6C"/>
</svg>
