<svg width="250" height="85" viewBox="0 0 250 85" fill="none" xmlns="http://www.w3.org/2000/svg">
<path d="M53.1163 12L9 56.3822L112.679 56.5946L122.2 67H181.868L192.342 55.9575H220.166L250 26.0154L242.171 18.2645H116.276L110.14 12H53.1163Z" fill="#88A8D6" fill-opacity="0.3"/>
<path d="M103.067 45H94.9401V28.62H102.941V31.476H97.7961V35.277H102.227V38.112H97.7961V42.144H103.067V45ZM103.197 28.62H106.578L113.613 39.687V28.62H116.448V43.698C116.448 44.132 116.336 44.475 116.112 44.727C115.902 44.979 115.615 45.105 115.251 45.105C114.929 45.105 114.621 45.042 114.327 44.916C114.047 44.79 113.809 44.573 113.613 44.265L103.197 28.62ZM126.405 45H118.278V28.62H126.279V31.476H121.134V35.277H125.565V38.112H121.134V42.144H126.405V45ZM130.504 33.639V45H127.753V30.048C127.753 29.614 127.872 29.271 128.11 29.019C128.348 28.753 128.691 28.62 129.139 28.62C129.419 28.62 129.678 28.683 129.916 28.809C130.168 28.921 130.42 29.138 130.672 29.46L138.673 39.981V28.62H141.403V43.593C141.403 44.643 141.046 45.168 140.332 45.168C139.982 45.168 139.674 45.091 139.408 44.937C139.142 44.769 138.848 44.517 138.526 44.181L130.504 33.639ZM149.557 31.476V45H146.701V31.476H142.522V28.62H153.736V31.476H149.557ZM154.928 45V42.144H160.661C161.543 42.144 162.271 41.934 162.845 41.514C163.419 41.094 163.706 40.548 163.706 39.876C163.706 39.54 163.629 39.232 163.475 38.952C163.321 38.672 163.111 38.434 162.845 38.238C162.579 38.028 162.257 37.867 161.879 37.755C161.501 37.643 161.095 37.587 160.661 37.587H159.359C158.687 37.587 158.064 37.482 157.49 37.272C156.916 37.048 156.419 36.74 155.999 36.348C155.579 35.942 155.25 35.473 155.012 34.941C154.774 34.395 154.655 33.793 154.655 33.135C154.655 32.491 154.774 31.896 155.012 31.35C155.264 30.804 155.614 30.328 156.062 29.922C156.51 29.516 157.049 29.201 157.679 28.977C158.309 28.739 159.002 28.62 159.758 28.62H165.197V31.476H159.611C159.009 31.476 158.533 31.644 158.183 31.98C157.833 32.302 157.658 32.694 157.658 33.156C157.658 33.66 157.833 34.08 158.183 34.416C158.547 34.752 159.023 34.92 159.611 34.92H161.228C161.956 34.92 162.628 35.046 163.244 35.298C163.86 35.536 164.392 35.879 164.84 36.327C165.288 36.775 165.638 37.307 165.89 37.923C166.142 38.539 166.268 39.211 166.268 39.939C166.268 40.681 166.135 41.36 165.869 41.976C165.603 42.592 165.218 43.124 164.714 43.572C164.224 44.02 163.636 44.37 162.95 44.622C162.264 44.874 161.501 45 160.661 45H154.928Z" fill="white"/>
<path d="M29.2211 76.9697L55.4423 50.842H105.77L115.603 60.8104H175.446L186.125 50.0025H213.509L242.902 20.7269L235.818 13.4867H110.422L103.444 6.77118H47.1953L3 50.6321H46.5609M29.2211 76.9697V84H21.9258V76.9697H29.2211ZM24.9919 20.0973L44.1292 1H85.4698M243.854 42.4475L225.245 60.8104H198.813" stroke="url(#paint0_linear_1137_10)" stroke-width="2"/>
<defs>
<linearGradient id="paint0_linear_1137_10" x1="-239.388" y1="42.5001" x2="745.506" y2="30.2507" gradientUnits="userSpaceOnUse">
<stop stop-color="#65CFB4"/>
<stop offset="1" stop-color="#5CA7CC"/>
</linearGradient>
</defs>
</svg>
