<svg width="78" height="78" viewBox="0 0 78 78" fill="none" xmlns="http://www.w3.org/2000/svg">
<path d="M38.5369 69.588C31.3825 69.588 24.5211 66.7657 19.4621 61.7419C14.4032 56.7181 11.5611 49.9044 11.5611 42.7997C11.5611 35.695 14.4032 28.8813 19.4621 23.8575C24.5211 18.8337 31.3825 16.0114 38.5369 16.0114C45.6914 16.0114 52.5528 18.8337 57.6117 23.8575C62.6707 28.8813 65.5128 35.695 65.5128 42.7997C65.5128 49.9044 62.6707 56.7181 57.6117 61.7419C52.5528 66.7657 45.6914 69.588 38.5369 69.588ZM38.5369 8.35754C29.3384 8.35754 20.5165 11.9863 14.0122 18.4454C7.50781 24.9046 3.85369 33.6651 3.85369 42.7997C3.85369 51.9343 7.50781 60.6948 14.0122 67.1539C20.5165 73.6131 29.3384 77.2418 38.5369 77.2418C47.7355 77.2418 56.5573 73.6131 63.0617 67.1539C69.566 60.6948 73.2202 51.9343 73.2202 42.7997C73.2202 33.6651 69.566 24.9046 63.0617 18.4454C56.5573 11.9863 47.7355 8.35754 38.5369 8.35754ZM40.4638 23.6652H34.6832V46.6266L52.9883 57.5333L55.8785 52.8262L40.4638 43.7564V23.6652ZM22.6597 6.02313L17.727 0.167969L0 14.9016L4.97126 20.7567L22.6597 6.02313ZM77.0739 14.9398L59.3469 0.167969L54.3756 6.02313L72.1026 20.795L77.0739 14.9398Z" fill="#407A6C"/>
</svg>
