<svg width="215" height="162" viewBox="0 0 215 162" fill="none" xmlns="http://www.w3.org/2000/svg">
<path d="M168.621 0.729186C168.652 1.14808 168.745 1.53594 168.807 1.62903C168.869 1.70661 168.977 2.03241 169.039 2.32719C169.101 2.62197 169.21 2.96329 169.272 3.10292C169.597 3.77005 169.892 4.53026 169.892 4.73195C169.892 4.84055 169.938 4.96467 170.015 4.9957C170.077 5.01121 170.325 5.44562 170.558 5.92657C171.689 8.19171 173.456 10.2862 175.78 12.1324C177.004 13.1098 180.088 14.7389 180.692 14.7389C181.157 14.7389 181.141 14.5372 180.491 11.4032C180.072 9.37081 178.863 6.56267 177.67 4.8871C176.942 3.86313 175.578 2.51336 174.649 1.87727C173.084 0.806759 170.759 0 169.272 0H168.528L168.621 0.729186Z" fill="#407A6C"/>
<path d="M44.0672 0.263755C43.8502 0.294784 43.3699 0.434416 42.9825 0.574047C39.7129 1.70661 37.2491 3.9252 35.6531 7.21429C35.4051 7.72627 35.1417 8.26928 35.0642 8.40892C34.9868 8.56406 34.9248 8.78127 34.9248 8.90538C34.9248 9.01399 34.8163 9.32428 34.6923 9.557C34.5684 9.80523 34.4599 10.1621 34.4599 10.3482C34.4599 10.5344 34.3979 10.7361 34.305 10.7826C34.2275 10.8292 34.15 11.0774 34.15 11.3101C34.15 11.5584 34.0415 12.0548 33.9176 12.4117C33.7936 12.7685 33.6851 13.4046 33.6851 13.7925C33.6851 14.1959 33.6077 14.5992 33.4992 14.7078C33.3597 14.8475 33.4062 14.894 33.7316 14.894C33.9641 14.894 34.15 14.8164 34.15 14.7389C34.15 14.6458 34.2895 14.5837 34.4754 14.5837C34.8938 14.5837 37.0477 13.4977 38.3493 12.6134C40.1933 11.3877 42.3472 9.06053 43.5248 7.05915C44.0517 6.14379 44.9969 4.26652 44.9969 4.11137C44.9969 4.04932 45.0899 3.78557 45.1984 3.52182C45.6167 2.5444 45.9267 1.45838 45.9731 0.85331L46.0041 0.232726L45.2294 0.217211C44.811 0.201697 44.2841 0.217212 44.0672 0.263755Z" fill="#407A6C"/>
<path d="M192.438 11.5118C191.229 14.832 190.904 16.9109 191.012 20.4793C191.059 21.8911 191.183 23.3805 191.275 23.8149C191.632 25.2888 191.942 26.2972 192.066 26.4524C192.143 26.53 192.205 26.6851 192.205 26.7782C192.205 27.1505 193.46 29.6949 193.941 30.3L194.421 30.9051L194.7 30.3931C195.351 29.183 196.405 26.4989 196.792 25.0561C197.164 23.6753 197.226 23.2254 197.226 21.0223C197.241 18.8192 197.195 18.4158 196.869 17.3764C196.095 14.9406 195.149 13.3891 193.507 11.8997C192.841 11.2946 192.546 11.2015 192.438 11.5118Z" fill="#407A6C"/>
<path d="M20.9013 12.1324C20.049 12.8771 19.0728 14.2269 18.4529 15.5456C18.1275 16.1972 17.8796 16.8023 17.8796 16.8954C17.8796 16.9885 17.7866 17.3608 17.6627 17.7177C17.5387 18.09 17.3992 19.2226 17.3528 20.2466C17.2133 23.2409 17.5542 25.475 18.6079 28.2366C19.1348 29.6019 19.7856 31.0447 19.925 31.1223C20.2349 31.3085 21.9395 28.2676 22.5748 26.3748C23.4425 23.8615 23.5045 23.3805 23.52 20.169C23.5355 16.8023 23.3186 15.375 22.4043 12.9547C21.8465 11.4343 21.7535 11.3722 20.9013 12.1324Z" fill="#407A6C"/>
<path d="M173.068 24.1873C172.588 24.2493 172.371 24.3269 172.495 24.4045C172.588 24.482 172.681 24.6837 172.681 24.8699C172.681 25.0561 173.022 25.9094 173.456 26.7627C175.33 30.5327 178.585 32.6892 183.76 33.5891C185.356 33.8684 189.184 33.9149 189.354 33.6511C189.54 33.3409 187.99 31.2929 186.332 29.6174C184.349 27.647 182.923 26.7006 180.041 25.4284C178.956 24.9475 174.711 23.9856 174.029 24.0786C173.936 24.0786 173.502 24.1407 173.068 24.1873Z" fill="#407A6C"/>
<path d="M40.4257 24.3114C38.2718 24.451 35.6531 25.1337 33.5302 26.1111C32.6314 26.53 30.6325 27.6936 30.4311 27.9263C30.3846 27.9728 30.0437 28.2521 29.6563 28.5469C28.773 29.2295 27.6728 30.331 27.084 31.1223C26.8361 31.4481 26.4797 31.898 26.2937 32.1152C26.0923 32.3324 25.9373 32.5807 25.9373 32.6893C25.9373 32.7979 25.8908 32.891 25.8289 32.891C25.7049 32.891 25.3175 33.6201 25.3175 33.8373C25.3175 34.2718 30.2296 34.0856 32.368 33.5581C35.9165 32.7048 38.4113 31.1223 40.2863 28.5469C40.9526 27.6315 41.6499 26.2662 41.8358 25.5215C41.8978 25.2578 42.0063 24.9785 42.0838 24.8854C42.3162 24.5751 42.0528 24.2028 41.6034 24.2338C41.3865 24.2493 40.8596 24.2804 40.4257 24.3114Z" fill="#407A6C"/>
<path d="M205.903 37.7315C205.16 38.5693 203.563 41.4705 203.052 42.8978C202.99 43.0685 202.851 43.4098 202.742 43.6736C202.463 44.3407 202.184 45.5974 201.812 47.8625C201.534 49.5536 201.766 53.2461 202.277 55.0768C202.355 55.3716 202.463 55.775 202.51 55.9611C202.665 56.5041 202.928 56.3955 203.842 55.4181C206.027 53.0909 207.701 50.2052 208.429 47.4746C208.801 46.0318 208.801 42.6496 208.414 41.1912C207.98 39.5312 206.833 37.3902 206.399 37.3902C206.291 37.3902 206.074 37.5453 205.903 37.7315Z" fill="#407A6C"/>
<path d="M7.21863 38.7399C5.74655 41.5326 5.39015 45.0544 6.2579 48.328C6.44385 49.0416 6.59881 49.4605 7.06367 50.5776C7.51305 51.6636 8.16386 52.7962 9.31054 54.4562C9.45 54.6734 9.85288 55.1544 10.2093 55.5423C10.5502 55.9301 10.9531 56.4111 11.108 56.6283C11.325 56.9386 11.4334 56.9851 11.6349 56.8455C11.9448 56.6438 12.0533 56.3335 12.5491 53.9287C12.952 51.8963 13.045 49.5071 12.7506 48.0642C12.4252 46.4507 11.9448 44.4493 11.8518 44.2942C11.7898 44.2011 11.6194 43.7512 11.4489 43.2857C10.8291 41.486 8.48927 37.8556 7.96242 37.8556C7.79197 37.8556 7.51305 38.2124 7.21863 38.7399Z" fill="#407A6C"/>
<path d="M194.39 38.1038C194.39 38.2745 194.437 38.321 194.483 38.1969C194.53 38.0883 194.514 37.9487 194.468 37.9021C194.421 37.8401 194.375 37.9332 194.39 38.1038Z" fill="#407A6C"/>
<path d="M194.684 39.1588C194.684 39.376 194.762 39.5932 194.839 39.6398C194.932 39.6863 194.994 39.9346 194.994 40.1673C194.994 40.4 195.056 40.6482 195.134 40.7258C195.211 40.8189 195.382 41.2998 195.537 41.8118C195.676 42.3238 195.878 42.9444 195.955 43.2081C196.265 44.1545 197.071 47.304 197.396 48.871C197.52 49.4295 197.737 50.5 197.908 51.2757C198.063 52.0359 198.326 53.4012 198.465 54.3011C198.605 55.2009 198.791 56.2714 198.868 56.7058C198.992 57.4195 199.225 59.6071 199.643 63.9977C199.845 66.1853 199.845 75.3233 199.643 77.2627C199.566 78.0694 199.411 79.5743 199.318 80.5983C198.961 84.3839 198.481 87.5799 197.861 90.2949C197.706 90.931 197.489 91.9084 197.365 92.467C197.009 94.1425 196.219 97.1989 195.94 97.9747C195.847 98.2229 195.459 99.4175 195.087 100.612C194.375 102.846 193.414 105.53 193.135 105.996C193.057 106.151 192.98 106.337 192.98 106.415C192.98 106.492 192.779 107.004 192.546 107.547C192.298 108.09 192.004 108.773 191.895 109.068C191.663 109.688 189.029 115.025 188.486 115.972C188.3 116.313 187.835 117.12 187.479 117.756C186.255 119.897 184.008 123.45 182.939 124.892C182.644 125.28 182.288 125.761 182.133 125.979C179.22 129.95 177.066 132.464 173.378 136.156C170.046 139.507 167.598 141.679 165.072 143.588C164.84 143.758 164.143 144.286 163.523 144.767C160.098 147.342 155.326 150.305 151.529 152.214C151.018 152.477 150.491 152.741 150.367 152.819C149.515 153.284 146.214 154.712 144.401 155.394C143.642 155.689 142.867 155.984 142.697 156.061C142.526 156.123 141.999 156.31 141.535 156.465C141.07 156.62 140.62 156.806 140.527 156.868C140.341 157.054 141.101 157.054 141.566 156.868C141.767 156.806 142.34 156.62 142.852 156.465C143.363 156.325 143.921 156.139 144.091 156.077C144.262 155.999 145.037 155.72 145.796 155.456C150.863 153.672 158.735 149.902 162.283 147.544C162.795 147.202 163.244 146.923 163.29 146.923C163.352 146.923 163.926 146.551 166.653 144.674C173.517 139.973 180.924 132.789 185.929 125.979C186.518 125.172 187.061 124.427 187.138 124.349C187.541 123.822 188.951 121.774 188.951 121.712C188.951 121.665 189.215 121.231 189.555 120.735C189.881 120.254 190.268 119.633 190.408 119.385C190.547 119.121 190.733 118.811 190.811 118.687C191.771 117.244 194.561 111.783 195.692 109.145C196.11 108.183 196.234 107.873 196.699 106.663C196.978 105.98 197.257 105.282 197.319 105.111C197.97 103.622 199.488 98.5642 200.123 95.8802C200.294 95.151 200.495 94.3132 200.573 94.0184C201.022 92.3273 201.859 87.4092 202.138 84.7097C202.634 79.9932 202.711 69.8622 202.277 66.9455C202.2 66.4335 202.091 65.5181 202.045 64.9286C201.936 63.5788 201.704 61.8567 201.41 60.3518C201.286 59.7157 201.115 58.7693 201.022 58.2573C200.511 55.4647 199.581 51.7257 198.713 48.9485C198.264 47.5212 197.195 44.4183 196.947 43.8287C196.823 43.565 196.606 43.0064 196.466 42.5876C196.312 42.1531 196.126 41.7498 196.048 41.6567C195.986 41.5791 195.924 41.4084 195.924 41.2843C195.924 41.0051 195.335 39.7484 195.134 39.6243C195.056 39.5777 194.994 39.4071 194.994 39.2519C194.994 39.0968 194.932 38.9106 194.839 38.8641C194.746 38.8175 194.684 38.9416 194.684 39.1588Z" fill="#407A6C"/>
<path d="M18.6854 41.5791C18.6854 41.8739 18.7164 41.998 18.7629 41.8428C18.7939 41.7032 18.7939 41.455 18.7629 41.2998C18.7164 41.1602 18.6854 41.2843 18.6854 41.5791Z" fill="#407A6C"/>
<path d="M18.3135 42.2462C18.1275 42.6962 18.1585 43.2237 18.36 43.022C18.4529 42.9289 18.4994 42.6651 18.4684 42.4169C18.4375 42.0446 18.4065 42.0135 18.3135 42.2462Z" fill="#407A6C"/>
<path d="M17.8021 43.6115C17.7556 43.8132 17.6472 44.1235 17.5697 44.2942C17.4922 44.4648 17.3218 44.9458 17.1823 45.3802C17.0274 45.7991 16.8569 46.2956 16.7949 46.4662C16.7329 46.6369 16.547 47.1954 16.4075 47.7074C16.2526 48.2194 16.0821 48.7469 16.0046 48.8865C15.9427 49.0261 15.8342 49.3985 15.7877 49.7088C15.7257 50.0191 15.6173 50.3138 15.5398 50.3604C15.4623 50.4069 15.4003 50.7017 15.4003 51.012C15.4003 51.3223 15.2918 51.7257 15.1679 51.8808C15.0439 52.0515 14.9354 52.3462 14.9354 52.5479C14.9354 52.7496 14.8735 53.0289 14.796 53.184C14.7185 53.3237 14.579 53.8356 14.4861 54.3011C14.1297 56.0232 14.0367 56.4111 13.8662 56.9386C13.7733 57.2333 13.6958 57.7453 13.6958 58.0556C13.6958 58.3659 13.6338 58.6762 13.5408 58.7227C13.4634 58.7693 13.3859 59.1106 13.3859 59.483C13.3859 59.8553 13.2774 60.4914 13.1534 60.9103C13.0295 61.3292 12.921 61.9963 12.921 62.3997C12.921 62.8031 12.859 63.2995 12.7816 63.5168C12.6886 63.7184 12.5801 64.7734 12.5181 65.8595C12.4561 66.93 12.3477 67.8453 12.2857 67.8919C12.0997 68.0005 12.0997 83.1117 12.2857 83.2203C12.3632 83.2668 12.4716 84.1512 12.5336 85.1751C12.5956 86.1991 12.7041 87.0834 12.7816 87.13C12.859 87.1765 12.921 87.6264 12.921 88.1229C12.921 88.6349 13.0295 89.4416 13.1534 89.9381C13.2774 90.4191 13.3859 91.1172 13.3859 91.4585C13.3859 91.8154 13.4324 92.1567 13.4944 92.2187C13.5718 92.2808 13.7113 92.8083 13.8198 93.3668C14.1452 95.12 14.2691 95.632 14.4551 96.0819C14.5481 96.3301 14.6255 96.718 14.6255 96.9662C14.6255 97.2144 14.703 97.4627 14.7805 97.5092C14.8735 97.5558 14.9354 97.835 14.9354 98.1143C14.9354 98.3936 15.0439 98.7504 15.1679 98.9211C15.2918 99.0762 15.4003 99.4796 15.4003 99.7899C15.4003 100.1 15.4623 100.395 15.5398 100.441C15.6173 100.488 15.7257 100.783 15.7877 101.093C15.8342 101.403 15.9427 101.776 16.0046 101.915C16.2216 102.35 16.516 103.234 16.5935 103.684C16.64 103.917 16.7329 104.149 16.8104 104.196C16.8879 104.243 16.9499 104.398 16.9499 104.537C16.9499 104.677 17.0583 105.003 17.1823 105.251C17.3063 105.484 17.4147 105.778 17.4147 105.887C17.4147 106.011 17.5387 106.322 17.6782 106.616C18.143 107.563 18.1895 107.671 18.1895 107.951C18.1895 108.106 18.267 108.307 18.3755 108.416C18.5614 108.602 18.9178 109.486 19.0728 110.107C19.1193 110.309 19.2122 110.464 19.2897 110.464C19.3672 110.464 19.4292 110.588 19.4292 110.728C19.4292 110.883 19.5376 111.147 19.6616 111.302C19.7856 111.472 19.894 111.736 19.894 111.876C19.894 112.031 19.9405 112.171 20.018 112.202C20.173 112.264 20.6688 113.241 20.6688 113.489C20.6688 113.598 20.7773 113.769 20.9013 113.877C21.0252 113.986 21.1337 114.203 21.1337 114.358C21.1337 114.529 21.2112 114.653 21.2886 114.653C21.3816 114.653 21.4436 114.792 21.4436 114.963C21.4436 115.134 21.5521 115.32 21.676 115.367C21.8 115.429 21.9085 115.584 21.9085 115.739C21.9085 115.91 21.9859 116.08 22.0634 116.127C22.1564 116.173 22.3578 116.515 22.5283 116.871C23.0706 117.988 23.9384 119.524 24.1708 119.788C24.2948 119.912 24.3878 120.067 24.3878 120.13C24.3878 120.192 24.8371 120.905 25.395 121.712C25.9528 122.534 26.4022 123.232 26.4022 123.279C26.4022 123.326 26.4797 123.434 26.5571 123.543C26.6501 123.651 27.208 124.427 27.8123 125.28C28.4321 126.134 28.9745 126.863 29.021 126.909C29.0829 126.956 29.2534 127.189 29.3928 127.421C29.5478 127.67 29.8112 128.011 29.9662 128.197C33.4062 132.324 33.4682 132.402 35.8545 134.868C38.3183 137.428 41.8978 140.624 44.6715 142.734C45.2913 143.2 46.1126 143.836 46.5155 144.146C48.9328 145.992 53.5505 148.894 56.9285 150.693C58.3231 151.438 61.4068 152.974 61.4997 152.974C61.5307 152.974 62.1351 153.238 62.8479 153.563C63.5607 153.889 65.1877 154.556 66.4583 155.053C67.7445 155.549 68.9221 156.015 69.0926 156.077C69.263 156.154 69.7899 156.325 70.2548 156.48C70.7196 156.62 71.2465 156.79 71.4169 156.868C71.5874 156.93 72.5016 157.209 73.4314 157.489C74.3766 157.752 75.2599 158.032 75.3993 158.109C75.7557 158.295 76.7629 158.295 76.7629 158.109C76.7629 158.032 76.5305 157.923 76.2671 157.861C75.9881 157.814 75.6163 157.706 75.4458 157.644C74.7175 157.349 74.0202 157.132 73.6638 157.054C73.4469 157.023 73.075 156.884 72.8115 156.775C72.5636 156.651 71.8198 156.372 71.1845 156.154C68.3333 155.161 62.228 152.338 59.2529 150.647C56.0143 148.8 51.3811 145.682 48.7779 143.603C48.344 143.246 47.7242 142.75 47.3987 142.502C47.0733 142.238 46.7324 141.959 46.6395 141.881C46.5465 141.788 46.2211 141.524 45.9267 141.276C43.2614 139.088 39.2481 135.101 36.3969 131.781C35.8855 131.191 35.4361 130.679 35.3896 130.633C35.2657 130.524 33.6851 128.507 32.9413 127.53C32.5849 127.065 32.1821 126.537 32.0426 126.366C31.9031 126.196 31.6087 125.777 31.3918 125.435C31.1593 125.094 30.9424 124.784 30.8959 124.737C30.8494 124.691 30.5705 124.272 30.2761 123.806C29.9817 123.341 29.7028 122.922 29.6408 122.876C29.5323 122.782 28.4321 121.091 28.1532 120.564C28.0447 120.362 27.6418 119.711 27.2699 119.09C26.3402 117.601 25.6429 116.375 25.426 115.847C25.333 115.615 25.1935 115.429 25.1316 115.429C25.0696 115.429 25.0076 115.335 25.0076 115.211C25.0076 115.01 24.5582 114.048 24.3878 113.877C24.2483 113.737 22.9312 110.945 22.1409 109.145C21.924 108.633 21.645 108.013 21.5211 107.78C21.3971 107.532 21.2886 107.237 21.2886 107.128C21.2886 107.02 21.1182 106.585 20.9167 106.166C20.7153 105.763 20.4364 105.065 20.2814 104.646C20.142 104.212 19.9715 103.731 19.894 103.56C19.7546 103.188 19.3982 102.21 19.1193 101.465C19.0263 101.171 18.9023 100.752 18.8558 100.535C18.8093 100.317 18.7164 100.069 18.6544 99.9916C18.5924 99.8985 18.4839 99.5416 18.422 99.1848C18.36 98.8124 18.2515 98.4866 18.174 98.4246C18.0965 98.378 18.0346 98.1453 18.0346 97.8971C18.0346 97.6489 17.9726 97.4006 17.8796 97.3541C17.8021 97.3075 17.6937 96.9197 17.6317 96.4853C17.5697 96.0664 17.4612 95.6785 17.3992 95.632C17.3218 95.5854 17.2598 95.3372 17.2598 95.0889C17.2598 94.8252 17.1823 94.4839 17.0893 94.3132C16.9964 94.1426 16.8724 93.6771 16.7949 93.2737C16.7174 92.8704 16.547 92.0481 16.4075 91.4585C15.9427 89.4571 15.8652 88.9762 15.6947 87.6575C15.6018 86.9283 15.4623 86.2146 15.3848 86.075C15.3073 85.9198 15.2454 85.5009 15.2454 85.1441C15.2454 84.7717 15.1679 84.1977 15.0749 83.8564C14.9974 83.5151 14.858 82.398 14.7805 81.374C14.703 80.3501 14.5635 79.0158 14.4861 78.4263C14.2846 77.03 14.2846 65.8284 14.4861 63.9977C14.579 63.222 14.703 61.7946 14.7805 60.8172C14.858 59.8398 14.9819 58.6452 15.0749 58.1797C15.1679 57.7143 15.2299 57.0627 15.2144 56.7369C15.1989 56.4266 15.2609 56.0853 15.3693 55.9767C15.4778 55.8681 15.5553 55.4647 15.5553 55.0768C15.5553 54.6734 15.6637 54.0063 15.7877 53.5874C15.9117 53.1685 16.0201 52.5479 16.0201 52.1911C16.0201 51.8498 16.0976 51.4929 16.1906 51.3999C16.2836 51.3068 16.3765 50.8724 16.4075 50.4224C16.423 49.988 16.5315 49.5381 16.6245 49.445C16.7174 49.3519 16.7949 49.1037 16.7949 48.8865C16.7949 48.6848 16.8879 48.1573 17.0119 47.7229C17.1358 47.2885 17.3528 46.5128 17.4922 46.0008C17.6317 45.4888 17.8486 44.7286 17.9881 44.3252C18.1585 43.8132 18.174 43.5184 18.0656 43.4098C17.9571 43.3012 17.8796 43.3633 17.8021 43.6115ZM14.734 56.5817C14.6875 56.7369 14.6565 56.6128 14.6565 56.318C14.6565 56.0232 14.6875 55.8991 14.734 56.0387C14.765 56.1939 14.765 56.4421 14.734 56.5817ZM13.9592 60.3052C13.9127 60.4604 13.8817 60.3363 13.8817 60.0415C13.8817 59.7467 13.9127 59.6226 13.9592 59.7622C13.9902 59.9174 13.9902 60.1656 13.9592 60.3052ZM12.7196 74.5787C12.7041 75.5871 12.6731 74.7959 12.6731 72.841C12.6731 70.8707 12.7041 70.0484 12.7196 71.0103C12.7506 71.9722 12.7506 73.5702 12.7196 74.5787ZM14.734 94.6701C14.6875 94.7787 14.6565 94.7011 14.6565 94.4839C14.6565 94.2667 14.6875 94.1891 14.734 94.2822C14.765 94.3908 14.765 94.577 14.734 94.6701Z" fill="#407A6C"/>
<path d="M182.505 45.7991C182.335 46.0783 182.784 48.5607 183.156 49.445C183.28 49.7088 183.373 50.0346 183.373 50.1587C183.373 50.2983 183.419 50.4224 183.497 50.4535C183.559 50.469 183.807 50.9034 184.055 51.3998C184.736 52.7806 186.813 54.8751 188.564 55.9611C189.106 56.3025 191.337 57.3575 191.74 57.4661C191.957 57.5281 192.267 57.6367 192.438 57.7143C192.794 57.8539 194.251 58.2418 195.459 58.5055C196.281 58.6917 196.823 58.7227 196.947 58.5986C197.04 58.5055 196.234 56.4266 195.661 55.3095C194.654 53.3547 192.407 50.6551 190.733 49.3674C188.889 47.9711 185.062 46.0783 184.07 46.0783C183.869 46.0783 183.667 46.0163 183.621 45.9387C183.497 45.7525 182.598 45.6439 182.505 45.7991Z" fill="#407A6C"/>
<path d="M31.0509 45.9387C30.7565 46.0163 30.3691 46.1559 30.1986 46.218C30.0282 46.2955 29.5478 46.4817 29.1139 46.6214C27.0375 47.3505 24.2638 49.0882 22.6058 50.6862C21.645 51.6171 20.6688 52.7031 20.6688 52.8427C20.6688 52.8892 20.4674 53.1995 20.2349 53.5098C19.5686 54.3631 18.6544 55.9922 18.6544 56.3025C18.6544 56.4576 18.5459 56.6748 18.422 56.7834C18.298 56.892 18.1895 57.0937 18.1895 57.2333C18.1895 57.373 18.1275 57.5591 18.0501 57.6522C17.9726 57.7298 17.8796 57.9935 17.8486 58.2418L17.8021 58.6917L18.7319 58.6607C19.2432 58.6296 19.7546 58.5676 19.894 58.49C20.018 58.428 20.4054 58.3349 20.7463 58.2728C22.3578 57.9935 25.0541 56.8455 26.6346 55.775C29.8112 53.6339 31.8876 50.2518 32.0116 47.0092C32.0581 45.7215 32.0271 45.675 31.0509 45.9387Z" fill="#407A6C"/>
<path d="M213.744 67.6126C213.527 67.6902 211.885 68.8382 211.73 69.0399C211.683 69.0865 211.311 69.3968 210.908 69.7226C210.273 70.2346 209.529 71.0568 208.026 72.841C207.871 73.0272 207.716 73.2599 207.654 73.384C207.592 73.5081 207.329 73.9581 207.081 74.3925C206.818 74.8114 206.508 75.4164 206.368 75.7112C206.244 76.006 206.027 76.4559 205.919 76.7197C205.81 76.9679 205.593 77.5264 205.454 77.9608C205.314 78.3797 205.129 78.8607 205.051 79.0003C204.974 79.1554 204.912 79.4968 204.912 79.776C204.912 80.0553 204.803 80.6293 204.679 81.0482C204.416 81.9015 204.369 84.1822 204.602 84.3218C204.679 84.3684 205.144 84.1822 205.64 83.9184C206.136 83.6392 206.678 83.3444 206.849 83.2513C209.204 81.9791 211.947 79.2485 213.202 76.9213C213.682 76.006 213.822 75.6802 214.379 73.8495C214.674 72.9186 214.658 69.7071 214.379 68.528C214.131 67.5505 214.101 67.4885 213.744 67.6126Z" fill="#407A6C"/>
<path d="M0.292094 68.2952C-0.203765 69.8932 -0.0333137 74.7183 0.540024 75.3078C0.617502 75.4009 0.679484 75.5716 0.679484 75.6802C0.679484 76.0991 1.73319 78.1315 2.47698 79.1399C3.82509 80.9707 5.87051 82.7393 8.48927 84.3218C10.1473 85.3303 10.1938 85.2837 10.0543 83.1117C9.99235 82.1653 9.88388 81.2499 9.8064 81.1103C9.72892 80.9707 9.66694 80.6759 9.66694 80.4587C9.66694 80.0553 9.0781 78.1315 8.62873 77.1075C7.80746 75.1992 6.38187 73.0893 4.83231 71.5068C3.54617 70.2035 1.50075 68.5745 1.15985 68.5745C1.08237 68.5745 0.94291 68.4659 0.834441 68.3418C0.602006 68.0625 0.385068 68.047 0.292094 68.2952Z" fill="#407A6C"/>
<path d="M187.03 68.6055C186.983 68.8072 186.937 69.9553 186.937 71.181C186.937 72.7945 186.999 73.5392 187.169 73.9581C187.293 74.2528 187.402 74.6407 187.402 74.7959C187.402 74.9665 187.464 75.2147 187.557 75.3699C187.634 75.5095 187.913 76.0836 188.176 76.6266C189.199 78.7831 191.322 81.0948 193.677 82.6152C195.056 83.5151 197.257 84.7097 197.505 84.7097C197.737 84.7097 197.551 81.7619 197.257 80.7069C196.544 78.1625 195.552 76.006 194.251 74.1753C192.779 72.0963 189.819 69.5054 188.021 68.6986C187.773 68.59 187.557 68.4504 187.557 68.3883C187.557 68.1091 187.123 68.2952 187.03 68.6055Z" fill="#407A6C"/>
<path d="M25.8598 69.071C23.458 70.7155 21.4126 72.6859 20.1265 74.6252C19.2897 75.8974 18.1895 78.0074 18.1895 78.3642C18.1895 78.5194 18.1275 78.69 18.0346 78.7366C17.9571 78.7831 17.8796 79.0158 17.8796 79.2485C17.8796 79.4813 17.7866 79.8071 17.6627 79.9777C17.5542 80.1484 17.4147 80.5673 17.3683 80.9086C17.3218 81.2499 17.2133 81.8395 17.1203 82.2273C16.9189 83.0962 16.9034 84.7097 17.0893 84.7097C17.1668 84.7097 17.6007 84.5235 18.0656 84.3063C18.8248 83.934 19.1657 83.7478 20.0955 83.2668C22.9157 81.7619 26.1078 78.2401 26.929 75.7112C27.084 75.2458 27.2699 74.7028 27.3474 74.5321C27.7038 73.5547 27.8278 71.6154 27.6418 70.0329C27.4094 68.1091 27.3164 68.0625 25.8598 69.071Z" fill="#407A6C"/>
<path d="M184.411 89.7054C183.497 91.7999 183.45 96.3767 184.318 98.0833C184.395 98.2384 184.457 98.4556 184.457 98.5642C184.457 98.9676 185.728 101.233 186.58 102.381C187.061 103.017 187.882 103.979 188.424 104.506C189.571 105.654 191.864 107.392 192.066 107.268C192.314 107.128 192.236 101.946 191.957 100.597C191.833 99.914 191.663 99.2313 191.585 99.0607C191.523 98.89 191.415 98.6108 191.368 98.4401C191.059 97.2144 190.206 95.5078 188.998 93.6616C188.223 92.498 185.806 89.8916 185.093 89.4727L184.628 89.2089L184.411 89.7054Z" fill="#407A6C"/>
<path d="M28.0447 90.8069C26.0458 92.8393 24.3723 95.3061 23.6905 97.2144C23.551 97.6333 23.3651 98.1143 23.2876 98.2849C23.0087 98.9055 22.6832 100.162 22.6832 100.612C22.6832 100.876 22.6213 101.155 22.5438 101.233C22.3423 101.45 22.1564 105.235 22.2959 106.492L22.4043 107.532L22.9157 107.144C23.2101 106.911 23.5045 106.74 23.582 106.74C23.675 106.74 23.7679 106.694 23.7989 106.616C23.8299 106.554 24.1553 106.275 24.5427 105.98C25.6429 105.142 27.8588 102.831 28.5561 101.791C30.1831 99.3244 30.8804 97.0903 30.8959 94.2977C30.8959 92.1412 30.1831 89.3641 29.6098 89.3641C29.5168 89.3641 28.804 90.0157 28.0447 90.8069Z" fill="#407A6C"/>
<path d="M211.962 96.5783C211.885 96.5939 211.497 96.7025 211.11 96.8111C206.089 98.2074 202.448 100.721 199.783 104.646C199.178 105.561 198.403 106.989 198.403 107.237C198.403 107.33 198.295 107.532 198.156 107.687C198.016 107.842 197.939 108.059 197.985 108.183C198.047 108.369 198.341 108.369 199.829 108.199C200.79 108.075 201.828 107.92 202.122 107.842C204.586 107.19 204.524 107.206 206.229 106.43C209.312 105.003 211.761 102.319 212.737 99.2624C213.186 97.8195 213.434 96.78 213.341 96.6249C213.264 96.5008 212.288 96.4697 211.962 96.5783Z" fill="#407A6C"/>
<path d="M1.36129 97.4627C1.40778 97.6488 1.48526 98.1453 1.53174 98.5487C1.57823 98.9521 1.6867 99.3244 1.77967 99.371C1.85715 99.433 1.91913 99.6192 1.91913 99.7899C1.91913 100.224 2.81788 102.039 3.46869 102.924C5.43664 105.561 8.81468 107.563 12.6886 108.369C13.3704 108.509 14.1762 108.695 14.4861 108.773C15.1679 108.943 16.5935 108.959 16.7019 108.788C16.7639 108.664 15.3228 105.654 15.1059 105.499C15.0594 105.453 14.8735 105.204 14.7185 104.956C13.9902 103.824 12.5491 102.257 11.2165 101.171C10.8291 100.86 10.4882 100.581 10.4417 100.535C10.0543 100.116 7.14115 98.5487 6.2579 98.2849C6.04096 98.2229 5.80853 98.1143 5.71556 98.0677C5.34366 97.804 3.17428 97.261 2.10508 97.1679C1.3148 97.0903 1.28381 97.1058 1.36129 97.4627Z" fill="#407A6C"/>
<path d="M176.818 106.089C176.477 106.632 176.028 107.454 175.78 107.982C174.788 110.138 174.695 114.436 175.578 117.135C176.059 118.578 176.989 120.595 177.717 121.712C178.399 122.782 180.103 124.892 180.274 124.892C180.444 124.892 180.723 124.396 180.924 123.744C181.668 121.262 181.715 120.967 181.715 118.066C181.73 115.444 181.699 115.056 181.312 113.489C181.079 112.558 180.785 111.596 180.661 111.333C180.537 111.084 180.429 110.821 180.429 110.743C180.429 110.169 177.81 105.763 177.36 105.592C177.252 105.546 177.02 105.763 176.818 106.089Z" fill="#407A6C"/>
<path d="M36.3969 106.539C35.8545 107.283 34.3824 110.154 33.9486 111.317C33.3597 112.915 32.9413 114.917 32.8329 116.747C32.7089 119.09 33.0653 122.72 33.5612 123.962C33.6232 124.086 33.7006 124.38 33.7471 124.613C33.8866 125.234 34.15 125.156 34.9403 124.225C38.4733 120.129 40.0383 115.91 39.5735 111.798C39.403 110.34 39.279 109.89 38.6747 108.369C38.3803 107.625 37.2336 105.81 37.0632 105.81C37.0012 105.81 36.7068 106.135 36.3969 106.539Z" fill="#407A6C"/>
<path d="M163.43 120.269C162.996 120.89 162.547 121.65 162.407 121.945C161.865 123.139 161.679 123.713 161.679 124.132C161.679 124.365 161.617 124.598 161.539 124.644C161.462 124.691 161.353 125.451 161.291 126.32C161.044 129.904 162.051 133.534 164.329 137.242C165.367 138.933 165.444 138.995 165.832 138.359C166.095 137.909 166.312 137.366 167.087 135.132C167.877 132.851 167.893 127.235 167.118 125.048C167.04 124.83 166.854 124.241 166.699 123.729C166.56 123.217 166.374 122.689 166.312 122.565C166.25 122.441 165.94 121.79 165.63 121.138C165.057 119.928 164.546 119.152 164.329 119.152C164.251 119.152 163.848 119.664 163.43 120.269Z" fill="#407A6C"/>
<path d="M48.9638 121.045C48.5919 121.836 48.2045 122.767 48.096 123.108C47.9876 123.45 47.8326 123.869 47.7706 124.039C47.5537 124.551 47.3058 125.684 47.1663 126.785C47.0888 127.375 46.9959 127.902 46.9494 127.98C46.655 128.445 46.9959 134.356 47.3368 135.008C47.4142 135.163 47.4762 135.38 47.4762 135.52C47.4762 136.11 48.5454 138.887 48.8553 139.073C48.9638 139.15 50.4824 137.009 50.7148 136.451C50.7458 136.358 50.9317 136.047 51.1332 135.722C51.722 134.791 52.4813 132.836 52.9927 130.943C53.3801 129.531 53.3801 126.103 53.0082 124.815C52.6518 123.62 52.5898 123.465 51.9545 122.208C51.3346 120.936 50.2964 119.633 49.9245 119.633C49.7231 119.618 49.4442 120.036 48.9638 121.045Z" fill="#407A6C"/>
<path d="M200.185 121.107C196.59 121.386 193.491 122.379 190.888 124.101C190.222 124.536 189.648 124.892 189.617 124.892C189.524 124.892 188.347 125.994 187.65 126.739C187.293 127.111 186.921 127.514 186.828 127.623C186.549 127.902 186.565 127.949 187.061 128.057C191.74 129.035 192.949 129.128 195.63 128.616C197.675 128.244 198.001 128.135 199.38 127.468C200.371 126.987 202.51 125.451 203.006 124.846C203.455 124.303 204.648 122.457 204.772 122.131C205.051 121.402 204.648 121.247 202.045 121.122C201.363 121.091 200.526 121.091 200.185 121.107Z" fill="#407A6C"/>
<path d="M11.0615 121.79C10.9376 121.867 10.5657 121.945 10.2558 121.945C9.62045 121.945 9.48099 122.208 9.89937 122.565C10.0233 122.674 10.1318 122.891 10.1318 123.046C10.1318 123.217 10.2093 123.341 10.2868 123.341C10.3797 123.341 10.4417 123.419 10.4417 123.512C10.4417 123.729 11.232 124.737 12.0688 125.591C13.8043 127.375 16.0666 128.523 18.8093 129.019C20.3589 129.299 23.675 129.283 25.395 128.988C26.1698 128.864 27.022 128.709 27.3009 128.663C28.1377 128.523 28.0912 128.213 27.0065 127.111C24.3258 124.365 20.7773 122.534 16.8879 121.867C15.3538 121.603 11.4179 121.557 11.0615 121.79Z" fill="#407A6C"/>
<path d="M148.88 131.455C147.934 132.464 146.648 134.512 146.648 135.008C146.648 135.086 146.555 135.38 146.431 135.644C146.307 135.923 146.152 136.389 146.09 136.684C145.904 137.583 145.935 142.424 146.137 143.355C146.462 144.875 146.726 145.806 146.85 145.93C146.912 145.992 146.958 146.179 146.958 146.334C146.958 146.489 147.02 146.737 147.098 146.892C147.19 147.032 147.5 147.714 147.795 148.382C148.539 150.088 148.647 150.119 149.468 148.738C149.84 148.118 150.259 147.342 150.429 147.001C150.584 146.659 150.754 146.272 150.816 146.147C150.894 146.023 151.064 145.496 151.219 144.984C151.359 144.472 151.576 143.774 151.7 143.432C152.227 141.834 152.335 137.832 151.917 135.442C151.545 133.301 150.538 130.493 150.119 130.369C150.026 130.338 149.468 130.835 148.88 131.455Z" fill="#407A6C"/>
<path d="M64.1185 130.912C63.9171 131.036 63.3902 132.541 63.0338 133.953C62.321 136.715 62.228 141.353 62.8169 143.665C63.1423 144.937 63.4832 146.085 63.5917 146.38C64.2115 147.823 64.4749 148.366 64.9553 149.204C65.2652 149.747 65.6061 150.181 65.7146 150.181C66.1949 150.181 67.8839 145.992 68.4728 143.37C68.9376 141.26 68.7517 137.506 68.1009 135.985C67.2486 133.937 66.5513 132.867 65.3737 131.672C64.4284 130.741 64.3974 130.726 64.1185 130.912Z" fill="#407A6C"/>
<path d="M178.492 140.5C177.221 140.81 175.95 141.183 175.392 141.416C173.378 142.269 171.798 143.169 171.054 143.851C170.604 144.27 170.604 144.286 170.945 144.286C171.131 144.286 171.565 144.456 171.906 144.674C172.247 144.891 172.557 145.061 172.619 145.061C172.665 145.061 172.929 145.155 173.192 145.279C173.796 145.527 174.757 145.884 175.439 146.116C175.733 146.21 176.896 146.442 178.042 146.628C180.088 146.97 180.165 146.97 181.87 146.722C183.931 146.411 185.651 145.791 187.107 144.813C188.657 143.789 190.098 142.3 189.943 141.896C189.865 141.679 188.61 141.229 187.247 140.904C186.859 140.81 186.084 140.624 185.527 140.485C184.194 140.174 179.809 140.174 178.492 140.5Z" fill="#407A6C"/>
<path d="M30.5085 140.717C29.7493 140.795 28.5871 140.997 27.9518 141.183C27.3164 141.369 26.6036 141.555 26.3557 141.602C26.1233 141.648 25.8908 141.741 25.8444 141.819C25.7979 141.896 25.6274 141.959 25.4725 141.959C25.3175 141.959 25.0696 142.067 24.9301 142.207C24.7132 142.439 24.7132 142.486 24.9301 142.827C25.8599 144.255 28.1842 145.837 30.4311 146.566C33.3132 147.513 35.8855 147.435 39.7284 146.287C40.7666 145.977 41.278 145.791 43.3389 144.937C43.6488 144.798 43.9122 144.627 43.9122 144.565C43.9122 144.379 43.1839 143.712 42.6881 143.448C39.8679 141.912 38.7522 141.478 36.087 140.888C35.0023 140.655 32.1666 140.562 30.5085 140.717Z" fill="#407A6C"/>
<path d="M157.727 153.905C155.961 154.137 155.093 154.308 154.752 154.494C154.566 154.603 154.272 154.68 154.102 154.68C153.931 154.68 153.699 154.789 153.559 154.913C153.435 155.037 153.172 155.146 152.97 155.146C152.66 155.146 152.707 155.239 153.389 155.86C154.194 156.62 155.713 157.783 155.868 157.783C155.93 157.783 156.069 157.877 156.178 157.97C156.643 158.388 156.829 158.513 158.037 159.133C158.967 159.63 159.618 159.893 160.982 160.359C162.113 160.747 162.423 160.778 164.623 160.793C166.885 160.793 167.102 160.762 168.342 160.343C169.566 159.924 171.906 158.668 171.906 158.435C171.89 157.923 169.272 156.325 166.56 155.146C166.25 155.022 165.351 154.712 164.313 154.401C162.748 153.92 159.432 153.672 157.727 153.905Z" fill="#407A6C"/>
<path d="M53.2096 154.215C51.1177 154.401 49.6301 154.805 47.5227 155.704C47.2593 155.829 46.9959 155.922 46.9494 155.922C46.9029 155.922 46.407 156.201 45.8492 156.542C45.2913 156.884 44.78 157.163 44.718 157.163C44.656 157.163 44.4236 157.333 44.1912 157.551C43.9587 157.768 43.6953 157.939 43.6023 157.939C43.5248 157.939 43.4474 158.001 43.4474 158.078C43.4474 158.156 43.3079 158.28 43.1375 158.326C42.967 158.373 42.8275 158.513 42.8275 158.621C42.8275 158.792 44.0672 159.8 44.2841 159.8C44.3306 159.8 44.7335 159.971 45.1829 160.173C46.8254 160.933 47.7242 161.119 49.9555 161.119C52.2489 161.119 53.1476 160.948 55.0691 160.142C57.006 159.335 59.7797 157.582 61.1898 156.294L61.9491 155.58L61.5772 155.301C61.3758 155.146 61.0194 154.975 60.8024 154.944C60.5855 154.898 60.1051 154.789 59.7178 154.696C57.7188 154.184 55.317 154.013 53.2096 154.215Z" fill="#407A6C"/>
<path d="M139.52 157.132C139.179 157.194 139.164 157.209 139.427 157.318C139.815 157.442 140.481 157.333 140.357 157.147C140.279 157.008 140.171 156.992 139.52 157.132Z" fill="#407A6C"/>
<path d="M138.048 157.628C138.002 157.706 138.095 157.783 138.265 157.783C138.451 157.783 138.59 157.706 138.59 157.628C138.59 157.535 138.497 157.473 138.373 157.473C138.249 157.473 138.095 157.535 138.048 157.628Z" fill="#407A6C"/>
<path d="M136.855 158.047C136.963 158.094 137.103 158.078 137.149 158.032C137.211 157.985 137.118 157.939 136.948 157.954C136.777 157.954 136.731 158.001 136.855 158.047Z" fill="#407A6C"/>
<path d="M77.1658 158.388C77.0419 158.575 77.9251 158.776 78.173 158.621C78.297 158.544 78.2815 158.482 78.1421 158.388C77.8631 158.202 77.2743 158.218 77.1658 158.388Z" fill="#407A6C"/>
<path d="M78.7774 158.869C78.7774 158.947 78.9943 159.025 79.2577 159.025C79.5211 159.025 79.6916 158.963 79.6296 158.869C79.5831 158.776 79.3662 158.714 79.1493 158.714C78.9478 158.714 78.7774 158.776 78.7774 158.869Z" fill="#407A6C"/>
<path d="M82.7752 159.754C82.8682 159.785 83.0541 159.785 83.1626 159.754C83.2556 159.707 83.1781 159.676 82.9612 159.676C82.7442 159.676 82.6668 159.707 82.7752 159.754Z" fill="#407A6C"/>
<path d="M86.2688 94.42C84.7568 94.42 83.1888 94.224 81.5648 93.832C79.9408 93.44 78.5268 92.852 77.3228 92.068C76.7628 91.704 76.3848 91.284 76.1888 90.808C75.9928 90.332 75.9368 89.884 76.0208 89.464C76.1328 89.016 76.3428 88.638 76.6508 88.33C76.9868 88.022 77.3928 87.84 77.8688 87.784C78.3728 87.728 78.9188 87.854 79.5068 88.162C80.6548 88.778 81.7608 89.226 82.8248 89.506C83.8888 89.758 84.9808 89.884 86.1008 89.884C87.3328 89.884 88.3688 89.716 89.2088 89.38C90.0488 89.044 90.6788 88.54 91.0988 87.868C91.5468 87.196 91.7708 86.384 91.7708 85.432C91.7708 84.032 91.2948 82.996 90.3428 82.324C89.4188 81.624 88.0608 81.274 86.2688 81.274H83.5808C82.7968 81.274 82.1948 81.078 81.7748 80.686C81.3828 80.294 81.1868 79.748 81.1868 79.048C81.1868 78.348 81.3828 77.802 81.7748 77.41C82.1948 77.018 82.7968 76.822 83.5808 76.822H85.7648C86.8288 76.822 87.7388 76.654 88.4948 76.318C89.2508 75.954 89.8388 75.45 90.2588 74.806C90.6788 74.162 90.8888 73.378 90.8888 72.454C90.8888 71.166 90.4548 70.186 89.5868 69.514C88.7468 68.842 87.5148 68.506 85.8908 68.506C84.8548 68.506 83.8748 68.632 82.9508 68.884C82.0548 69.108 81.0608 69.542 79.9688 70.186C79.4648 70.494 78.9748 70.62 78.4988 70.564C78.0508 70.508 77.6728 70.326 77.3648 70.018C77.0568 69.71 76.8468 69.346 76.7348 68.926C76.6228 68.478 76.6508 68.03 76.8188 67.582C76.9868 67.106 77.3368 66.7 77.8688 66.364C79.0728 65.58 80.4028 64.992 81.8588 64.6C83.3148 64.18 84.8128 63.97 86.3528 63.97C88.3968 63.97 90.1468 64.292 91.6028 64.936C93.0588 65.552 94.1648 66.448 94.9208 67.624C95.7048 68.772 96.0968 70.172 96.0968 71.824C96.0968 73 95.8728 74.078 95.4248 75.058C94.9768 76.01 94.3468 76.822 93.5348 77.494C92.7228 78.166 91.7428 78.642 90.5948 78.922V78.418C92.6108 78.754 94.1788 79.594 95.2988 80.938C96.4188 82.254 96.9788 83.906 96.9788 85.894C96.9788 87.63 96.5448 89.142 95.6768 90.43C94.8088 91.718 93.5768 92.712 91.9808 93.412C90.3848 94.084 88.4808 94.42 86.2688 94.42ZM104.858 94.336C103.99 94.336 103.318 94.112 102.842 93.664C102.394 93.188 102.17 92.516 102.17 91.648V75.772C102.17 74.904 102.394 74.246 102.842 73.798C103.29 73.35 103.92 73.126 104.732 73.126C105.544 73.126 106.174 73.35 106.622 73.798C107.07 74.246 107.294 74.904 107.294 75.772V78.418H106.874C107.266 76.738 108.036 75.464 109.184 74.596C110.332 73.728 111.858 73.21 113.762 73.042C114.35 72.986 114.812 73.14 115.148 73.504C115.512 73.84 115.722 74.372 115.778 75.1C115.834 75.8 115.666 76.374 115.274 76.822C114.91 77.242 114.35 77.494 113.594 77.578L112.67 77.662C110.962 77.83 109.674 78.362 108.806 79.258C107.938 80.126 107.504 81.358 107.504 82.954V91.648C107.504 92.516 107.28 93.188 106.832 93.664C106.384 94.112 105.726 94.336 104.858 94.336ZM126.186 94.42C124.394 94.42 122.812 93.986 121.44 93.118C120.096 92.25 119.046 91.018 118.29 89.422C117.534 87.798 117.156 85.894 117.156 83.71C117.156 81.498 117.534 79.608 118.29 78.04C119.046 76.444 120.096 75.212 121.44 74.344C122.812 73.476 124.394 73.042 126.186 73.042C127.894 73.042 129.378 73.462 130.638 74.302C131.926 75.142 132.794 76.248 133.242 77.62H132.78V66.7C132.78 65.832 133.004 65.174 133.452 64.726C133.9 64.278 134.544 64.054 135.384 64.054C136.224 64.054 136.868 64.278 137.316 64.726C137.792 65.174 138.03 65.832 138.03 66.7V91.648C138.03 92.516 137.806 93.188 137.358 93.664C136.91 94.112 136.266 94.336 135.426 94.336C134.586 94.336 133.942 94.112 133.494 93.664C133.046 93.188 132.822 92.516 132.822 91.648V88.372L133.284 89.632C132.864 91.088 132.01 92.25 130.722 93.118C129.434 93.986 127.922 94.42 126.186 94.42ZM127.656 90.43C128.692 90.43 129.602 90.178 130.386 89.674C131.17 89.17 131.772 88.428 132.192 87.448C132.64 86.44 132.864 85.194 132.864 83.71C132.864 81.47 132.388 79.804 131.436 78.712C130.484 77.592 129.224 77.032 127.656 77.032C126.62 77.032 125.71 77.284 124.926 77.788C124.142 78.264 123.526 79.006 123.078 80.014C122.658 80.994 122.448 82.226 122.448 83.71C122.448 85.922 122.924 87.602 123.876 88.75C124.828 89.87 126.088 90.43 127.656 90.43Z" fill="white"/>
</svg>
