<svg width="250" height="85" viewBox="0 0 250 85" fill="none" xmlns="http://www.w3.org/2000/svg">
<path d="M53.1163 11.998L9 56.3803L112.679 56.5926L122.2 66.998H181.868L192.342 55.9556H220.166L250 26.0135L242.171 18.2625H116.276L110.14 11.998H53.1163Z" fill="#88A8D6" fill-opacity="0.3"/>
<path d="M103.148 39.666C106.991 39.057 108.209 36.39 108.209 34.227C108.209 30.594 105.479 28.62 102.035 28.62H95.9655V45H98.8215V31.476H101.972C104.072 31.476 105.248 32.421 105.248 34.29C105.248 36.285 103.778 37.251 100.754 37.461C99.6195 37.545 99.0525 38.028 99.0525 38.931C99.0525 39.414 99.3255 39.876 99.8295 40.401L104.177 45H108.167L103.148 39.666ZM117.874 42.144H112.603V38.112H117.034V35.277H112.603V31.476H117.748V28.62H109.747V45H117.874V42.144ZM125.08 45C128.44 45 130.687 42.879 130.687 39.939C130.687 36.999 128.566 34.92 125.647 34.92H124.03C122.875 34.92 122.077 34.164 122.077 33.156C122.077 32.232 122.833 31.476 124.03 31.476H129.616V28.62H124.177C121.132 28.62 119.074 30.573 119.074 33.135C119.074 35.739 121.111 37.587 123.778 37.587H125.08C126.844 37.587 128.125 38.532 128.125 39.876C128.125 41.22 126.844 42.144 125.08 42.144H119.347V45H125.08ZM142.407 28.62V37.608C142.407 41.031 141.42 42.144 138.984 42.144H138.438C136.002 42.144 135.036 41.052 135.036 37.608V28.62H132.18V37.608C132.18 42.375 134.469 45 138.438 45H138.984C142.932 45 145.263 42.333 145.263 37.608V28.62H142.407ZM154.129 45V42.144H149.677V28.62H146.842V45H154.129ZM165.774 31.476V28.62H154.56V31.476H158.739V45H161.595V31.476H165.774Z" fill="white"/>
<path d="M29.2211 76.9697L55.4423 50.842H105.77L115.603 60.8104H175.446L186.125 50.0025H213.509L242.902 20.7269L235.818 13.4867H110.422L103.444 6.77118H47.1953L3 50.6321H46.5609M29.2211 76.9697V84H21.9258V76.9697H29.2211ZM24.9919 20.0973L44.1292 1H85.4698M243.854 42.4475L225.245 60.8104H198.813" stroke="url(#paint0_linear_105_66)" stroke-width="2"/>
<defs>
<linearGradient id="paint0_linear_105_66" x1="-239.388" y1="42.5001" x2="745.506" y2="30.2507" gradientUnits="userSpaceOnUse">
<stop stop-color="#65CFB4"/>
<stop offset="1" stop-color="#5CA7CC"/>
</linearGradient>
</defs>
</svg>
