<svg width="51" height="52" viewBox="0 0 51 52" fill="none" xmlns="http://www.w3.org/2000/svg">
<g clip-path="url(#clip0_325_1043)">
<path d="M25.4613 0.84375C11.6665 0.84375 0.484375 12.0259 0.484375 25.8206C0.484375 38.344 9.69963 48.7132 21.7197 50.519C22.9399 50.7026 23.9275 50.9965 25.1988 50.9965C26.3465 50.9965 27.7391 50.72 28.8469 50.5702C41.0406 48.918 50.4381 38.4677 50.4381 25.8206C50.4381 12.0259 39.2559 0.84375 25.4613 0.84375Z" fill="#66D6B4"/>
<path d="M28.1632 26.8847H33.5276L34.3701 21.3542H28.1632V18.3312C28.1632 16.0341 28.9032 13.9968 31.0205 13.9968H34.423V9.17097C33.825 9.08892 32.5606 8.91016 30.1718 8.91016C25.1826 8.91016 22.2579 11.5839 22.2579 17.676V21.3552H17.1289V26.8857H22.2569V42.1108C23.2725 42.2644 24.3017 42.3453 25.3578 42.3453C26.3123 42.3453 27.244 42.2802 28.1632 42.1539V26.8847Z" fill="#141C1D"/>
</g>
<defs>
<clipPath id="clip0_325_1043">
<rect width="50.6657" height="51.4219" fill="white" transform="translate(0.332031 0.328125)"/>
</clipPath>
</defs>
</svg>
