<svg width="333" height="98" viewBox="0 0 333 98" fill="none" xmlns="http://www.w3.org/2000/svg">
<path d="M9.59491 73.504C8.63491 73.504 7.89091 73.24 7.36291 72.712C6.88291 72.136 6.64291 71.368 6.64291 70.408V25.264C6.64291 24.256 6.90691 23.512 7.43491 23.032C7.96291 22.504 8.70691 22.24 9.66691 22.24H26.7309C32.1549 22.24 36.3309 23.512 39.2589 26.056C42.1869 28.6 43.6509 32.224 43.6509 36.928C43.6509 39.904 42.9789 42.496 41.6349 44.704C40.3389 46.864 38.4189 48.52 35.8749 49.672C33.3309 50.776 30.2829 51.328 26.7309 51.328L27.4509 50.392H28.8909C30.7629 50.392 32.3949 50.872 33.7869 51.832C35.1789 52.792 36.4509 54.328 37.6029 56.44L44.5149 69.328C44.8989 70 45.0669 70.672 45.0189 71.344C45.0189 71.968 44.8029 72.496 44.3709 72.928C43.9389 73.312 43.3149 73.504 42.4989 73.504C41.6829 73.504 41.0109 73.312 40.4829 72.928C39.9549 72.544 39.4989 71.992 39.1149 71.272L31.2669 56.728C30.1629 54.664 28.8909 53.296 27.4509 52.624C26.0109 51.904 24.1149 51.544 21.7629 51.544H12.5469V70.408C12.5469 71.368 12.3069 72.136 11.8269 72.712C11.3469 73.24 10.6029 73.504 9.59491 73.504ZM12.5469 46.864H25.8669C29.8029 46.864 32.7789 46.048 34.7949 44.416C36.8109 42.736 37.8189 40.24 37.8189 36.928C37.8189 33.712 36.8109 31.288 34.7949 29.656C32.7789 27.976 29.8029 27.136 25.8669 27.136H12.5469V46.864ZM69.0095 73.648C65.3135 73.648 62.1215 72.928 59.4335 71.488C56.7935 70 54.7295 67.912 53.2415 65.224C51.8015 62.536 51.0815 59.32 51.0815 55.576C51.0815 51.928 51.8015 48.76 53.2415 46.072C54.6815 43.336 56.6495 41.2 59.1455 39.664C61.6895 38.128 64.6175 37.36 67.9295 37.36C70.2815 37.36 72.3935 37.768 74.2655 38.584C76.1375 39.352 77.7215 40.48 79.0175 41.968C80.3615 43.456 81.3695 45.256 82.0415 47.368C82.7615 49.48 83.1215 51.856 83.1215 54.496C83.1215 55.264 82.9055 55.84 82.4735 56.224C82.0415 56.56 81.4175 56.728 80.6015 56.728H55.5455V52.912H79.2335L78.0815 53.848C78.0815 51.256 77.6975 49.072 76.9295 47.296C76.1615 45.472 75.0335 44.08 73.5455 43.12C72.1055 42.16 70.2815 41.68 68.0735 41.68C65.6255 41.68 63.5375 42.256 61.8095 43.408C60.1295 44.512 58.8575 46.072 57.9935 48.088C57.1295 50.056 56.6975 52.36 56.6975 55V55.432C56.6975 59.848 57.7535 63.208 59.8655 65.512C62.0255 67.816 65.0735 68.968 69.0095 68.968C70.6415 68.968 72.2495 68.752 73.8335 68.32C75.4655 67.888 77.0495 67.168 78.5855 66.16C79.2575 65.728 79.8575 65.536 80.3855 65.584C80.9615 65.584 81.4175 65.752 81.7535 66.088C82.0895 66.376 82.3055 66.76 82.4015 67.24C82.5455 67.672 82.4975 68.152 82.2575 68.68C82.0655 69.208 81.6575 69.664 81.0335 70.048C79.4495 71.2 77.5775 72.088 75.4175 72.712C73.2575 73.336 71.1215 73.648 69.0095 73.648ZM103.37 73.648C101.21 73.648 99.0258 73.384 96.8178 72.856C94.6578 72.328 92.6418 71.416 90.7698 70.12C90.2898 69.784 89.9538 69.4 89.7618 68.968C89.5698 68.488 89.4978 68.032 89.5458 67.6C89.6418 67.12 89.8338 66.712 90.1218 66.376C90.4578 66.04 90.8418 65.848 91.2738 65.8C91.7538 65.704 92.2818 65.8 92.8578 66.088C94.7298 67.24 96.5298 68.056 98.2578 68.536C100.034 68.968 101.786 69.184 103.514 69.184C106.25 69.184 108.314 68.68 109.706 67.672C111.098 66.664 111.794 65.296 111.794 63.568C111.794 62.224 111.338 61.168 110.426 60.4C109.514 59.584 108.074 58.96 106.106 58.528L99.5538 57.088C96.5298 56.464 94.2738 55.384 92.7858 53.848C91.3458 52.312 90.6258 50.32 90.6258 47.872C90.6258 45.712 91.1778 43.864 92.2818 42.328C93.4338 40.744 95.0418 39.52 97.1058 38.656C99.1698 37.792 101.57 37.36 104.306 37.36C106.418 37.36 108.41 37.648 110.282 38.224C112.202 38.752 113.93 39.616 115.466 40.816C115.946 41.152 116.258 41.56 116.402 42.04C116.594 42.472 116.618 42.928 116.474 43.408C116.378 43.84 116.162 44.224 115.826 44.56C115.49 44.848 115.082 45.016 114.602 45.064C114.122 45.112 113.618 44.968 113.09 44.632C111.65 43.672 110.186 42.976 108.698 42.544C107.21 42.064 105.746 41.824 104.306 41.824C101.618 41.824 99.5778 42.352 98.1858 43.408C96.7938 44.464 96.0978 45.856 96.0978 47.584C96.0978 48.928 96.5298 50.032 97.3938 50.896C98.2578 51.76 99.6018 52.384 101.426 52.768L107.978 54.136C111.098 54.808 113.426 55.888 114.962 57.376C116.546 58.816 117.338 60.784 117.338 63.28C117.338 66.448 116.066 68.968 113.522 70.84C110.978 72.712 107.594 73.648 103.37 73.648ZM138.61 73.648C135.778 73.648 133.426 73.144 131.554 72.136C129.73 71.08 128.338 69.52 127.378 67.456C126.466 65.392 126.01 62.824 126.01 59.752V40.456C126.01 39.448 126.25 38.704 126.73 38.224C127.258 37.744 127.978 37.504 128.89 37.504C129.85 37.504 130.57 37.744 131.05 38.224C131.578 38.704 131.842 39.448 131.842 40.456V59.68C131.842 62.752 132.466 65.056 133.714 66.592C135.01 68.08 137.026 68.824 139.762 68.824C142.738 68.824 145.162 67.816 147.034 65.8C148.906 63.784 149.842 61.144 149.842 57.88V40.456C149.842 39.448 150.082 38.704 150.562 38.224C151.09 37.744 151.834 37.504 152.794 37.504C153.706 37.504 154.402 37.744 154.882 38.224C155.41 38.704 155.674 39.448 155.674 40.456V70.48C155.674 72.496 154.738 73.504 152.866 73.504C151.954 73.504 151.234 73.24 150.706 72.712C150.226 72.184 149.986 71.44 149.986 70.48V63.928L150.922 64.936C149.962 67.768 148.378 69.928 146.17 71.416C144.01 72.904 141.49 73.648 138.61 73.648ZM177.241 73.648C173.785 73.648 171.145 72.592 169.321 70.48C167.497 68.368 166.585 65.344 166.585 61.408V24.688C166.585 23.728 166.825 23.008 167.305 22.528C167.785 22 168.505 21.736 169.465 21.736C170.377 21.736 171.097 22 171.625 22.528C172.153 23.008 172.417 23.728 172.417 24.688V60.976C172.417 63.568 172.921 65.512 173.929 66.808C174.985 68.056 176.521 68.68 178.537 68.68C178.969 68.68 179.353 68.656 179.689 68.608C180.025 68.56 180.361 68.536 180.697 68.536C181.225 68.488 181.585 68.608 181.777 68.896C182.017 69.184 182.137 69.76 182.137 70.624C182.137 71.488 181.945 72.136 181.561 72.568C181.177 73 180.553 73.288 179.689 73.432C179.305 73.48 178.897 73.528 178.465 73.576C178.033 73.624 177.625 73.648 177.241 73.648ZM201.297 73.648C198.561 73.648 196.257 73.168 194.385 72.208C192.561 71.2 191.193 69.76 190.281 67.888C189.369 65.968 188.913 63.64 188.913 60.904V42.544H184.089C183.273 42.544 182.649 42.352 182.217 41.968C181.785 41.536 181.569 40.96 181.569 40.24C181.569 39.52 181.785 38.968 182.217 38.584C182.649 38.2 183.273 38.008 184.089 38.008H188.913V29.728C188.913 28.768 189.177 28.048 189.705 27.568C190.233 27.04 190.953 26.776 191.865 26.776C192.777 26.776 193.473 27.04 193.953 27.568C194.481 28.048 194.745 28.768 194.745 29.728V38.008H203.817C204.633 38.008 205.257 38.2 205.689 38.584C206.121 38.968 206.337 39.52 206.337 40.24C206.337 40.96 206.121 41.536 205.689 41.968C205.257 42.352 204.633 42.544 203.817 42.544H194.745V60.328C194.745 63.064 195.321 65.152 196.473 66.592C197.625 67.984 199.497 68.68 202.089 68.68C203.001 68.68 203.769 68.584 204.393 68.392C205.065 68.2 205.617 68.104 206.049 68.104C206.481 68.056 206.841 68.2 207.129 68.536C207.417 68.872 207.561 69.448 207.561 70.264C207.561 70.84 207.441 71.368 207.201 71.848C207.009 72.328 206.649 72.664 206.121 72.856C205.545 73.048 204.777 73.216 203.817 73.36C202.905 73.552 202.065 73.648 201.297 73.648ZM224.237 73.648C222.077 73.648 219.893 73.384 217.685 72.856C215.525 72.328 213.509 71.416 211.637 70.12C211.157 69.784 210.821 69.4 210.629 68.968C210.437 68.488 210.365 68.032 210.413 67.6C210.509 67.12 210.701 66.712 210.989 66.376C211.325 66.04 211.709 65.848 212.141 65.8C212.621 65.704 213.149 65.8 213.725 66.088C215.597 67.24 217.397 68.056 219.125 68.536C220.901 68.968 222.653 69.184 224.381 69.184C227.117 69.184 229.181 68.68 230.573 67.672C231.965 66.664 232.661 65.296 232.661 63.568C232.661 62.224 232.205 61.168 231.293 60.4C230.381 59.584 228.941 58.96 226.973 58.528L220.421 57.088C217.397 56.464 215.141 55.384 213.653 53.848C212.213 52.312 211.493 50.32 211.493 47.872C211.493 45.712 212.045 43.864 213.149 42.328C214.301 40.744 215.909 39.52 217.973 38.656C220.037 37.792 222.437 37.36 225.173 37.36C227.285 37.36 229.277 37.648 231.149 38.224C233.069 38.752 234.797 39.616 236.333 40.816C236.813 41.152 237.125 41.56 237.269 42.04C237.461 42.472 237.485 42.928 237.341 43.408C237.245 43.84 237.029 44.224 236.693 44.56C236.357 44.848 235.949 45.016 235.469 45.064C234.989 45.112 234.485 44.968 233.957 44.632C232.517 43.672 231.053 42.976 229.565 42.544C228.077 42.064 226.613 41.824 225.173 41.824C222.485 41.824 220.445 42.352 219.053 43.408C217.661 44.464 216.965 45.856 216.965 47.584C216.965 48.928 217.397 50.032 218.261 50.896C219.125 51.76 220.469 52.384 222.293 52.768L228.845 54.136C231.965 54.808 234.293 55.888 235.829 57.376C237.413 58.816 238.205 60.784 238.205 63.28C238.205 66.448 236.933 68.968 234.389 70.84C231.845 72.712 228.461 73.648 224.237 73.648Z" fill="white"/>
<path d="M254.028 36.7295L254 61.5887L276.843 49.1721L254.028 36.7295Z" fill="#65CEB4"/>
<path d="M285.451 22L285.41 75.4013L333.001 48.7403L285.451 22ZM292.88 34.5448L318.101 48.727L292.867 62.8697L292.88 34.5448Z" fill="#5CA8CC"/>
</svg>
