<svg width="71" height="61" viewBox="0 0 71 61" fill="none" xmlns="http://www.w3.org/2000/svg">
<path d="M35.4375 0.136719C34.1092 0.136719 32.7939 0.398347 31.5667 0.906668C30.3395 1.41499 29.2245 2.16004 28.2852 3.0993C27.346 4.03855 26.6009 5.15361 26.0926 6.3808C25.5843 7.60799 25.3226 8.92329 25.3226 10.2516C25.3226 11.5799 25.5843 12.8952 26.0926 14.1224C26.6009 15.3496 27.346 16.4646 28.2852 17.4039C29.2245 18.3431 30.3395 19.0882 31.5667 19.5965C32.7939 20.1048 34.1092 20.3665 35.4375 20.3665C38.1201 20.3665 40.6929 19.3008 42.5898 17.4039C44.4867 15.507 45.5524 12.9342 45.5524 10.2516C45.5524 7.56896 44.4867 4.9962 42.5898 3.0993C40.6929 1.20239 38.1201 0.136719 35.4375 0.136719V0.136719ZM58.2188 5.18909C56.2048 5.18909 54.2733 5.98915 52.8492 7.41325C51.4251 8.83736 50.625 10.7689 50.625 12.7828C50.625 14.7968 51.4251 16.7283 52.8492 18.1524C54.2733 19.5765 56.2048 20.3766 58.2188 20.3766C60.2327 20.3766 62.1642 19.5765 63.5883 18.1524C65.0124 16.7283 65.8125 14.7968 65.8125 12.7828C65.8125 10.7689 65.0124 8.83736 63.5883 7.41325C62.1642 5.98915 60.2327 5.18909 58.2188 5.18909V5.18909ZM12.6563 5.18909C10.6423 5.18909 8.71076 5.98915 7.28666 7.41325C5.86255 8.83736 5.0625 10.7689 5.0625 12.7828C5.0625 14.7968 5.86255 16.7283 7.28666 18.1524C8.71076 19.5765 10.6423 20.3766 12.6563 20.3766C14.6702 20.3766 16.6017 19.5765 18.0258 18.1524C19.4499 16.7283 20.25 14.7968 20.25 12.7828C20.25 10.7689 19.4499 8.83736 18.0258 7.41325C16.6017 5.98915 14.6702 5.18909 12.6563 5.18909ZM20.25 30.4662C20.2594 29.1296 20.7969 27.8511 21.7452 26.9093C22.6936 25.9676 23.976 25.4391 25.3125 25.4391H45.5625C46.9052 25.4391 48.1928 25.9725 49.1422 26.9219C50.0916 27.8713 50.625 29.1589 50.625 30.5016V45.6891C50.6247 47.2824 50.3753 48.8658 49.8859 50.382C48.7649 53.818 46.4557 56.7417 43.373 58.6283C40.2903 60.5149 36.6361 61.2407 33.0664 60.6755C29.4967 60.1102 26.2454 58.2909 23.8964 55.5441C21.5474 52.7974 20.2546 49.3033 20.25 45.6891V30.4662ZM15.1875 30.5016C15.1875 28.6538 15.6786 26.9275 16.5443 25.4391H5.0625C3.71984 25.4391 2.43218 25.9725 1.48277 26.9219C0.53337 27.8713 7.00717e-07 29.1589 7.00717e-07 30.5016V43.1578C-0.000688742 45.23 0.507394 47.2705 1.47963 49.1004C2.45187 50.9303 3.85852 52.4934 5.57605 53.6526C7.29358 54.8118 9.26946 55.5315 11.3302 55.7486C13.3909 55.9658 15.4734 55.6736 17.3948 54.8978C15.9377 52.0454 15.181 48.887 15.1875 45.684V30.5016ZM55.6875 30.5016V45.6891C55.6875 49.005 54.8927 52.1337 53.4803 54.8978C55.4016 55.6736 57.4841 55.9658 59.5448 55.7486C61.6055 55.5315 63.5814 54.8118 65.2989 53.6526C67.0165 52.4934 68.4231 50.9303 69.3954 49.1004C70.3676 47.2705 70.8757 45.23 70.875 43.1578V30.5016C70.875 29.1589 70.3416 27.8713 69.3922 26.9219C68.4428 25.9725 67.1552 25.4391 65.8125 25.4391H54.3308C55.1914 26.9275 55.6875 28.6538 55.6875 30.5016Z" fill="#407A6C"/>
</svg>
