<svg width="216" height="67" viewBox="0 0 216 67" fill="none" xmlns="http://www.w3.org/2000/svg">
<path d="M62.3933 11H216L188.873 38.3226H166.061L147.477 56.6856V61.3428V66H34.4765C22.1542 63.4288 15.0701 59.9611 11.0607 53.2742C4.8252 42.8747 5.82828 28.1787 13.675 18.9572C17.9956 13.8795 24.2977 11.7138 34.4765 11H62.3933Z" fill="#88A8D6" fill-opacity="0.3"/>
<path d="M67.2409 45H64.3849V28.62H67.2409V35.277H72.0919V28.62H74.9479V45H72.0919V38.133H67.2409V45ZM84.7727 45C83.5687 45 82.4557 44.79 81.4337 44.37C80.4257 43.936 79.5577 43.341 78.8297 42.585C78.1017 41.829 77.5347 40.947 77.1287 39.939C76.7227 38.917 76.5197 37.818 76.5197 36.642C76.5197 35.466 76.7157 34.388 77.1077 33.408C77.5137 32.428 78.0737 31.581 78.7877 30.867C79.5157 30.153 80.3837 29.6 81.3917 29.208C82.4137 28.816 83.5407 28.62 84.7727 28.62H85.2557C86.5017 28.62 87.6287 28.823 88.6367 29.229C89.6587 29.621 90.5267 30.174 91.2407 30.888C91.9687 31.602 92.5287 32.449 92.9207 33.429C93.3127 34.409 93.5087 35.48 93.5087 36.642C93.5087 37.818 93.3057 38.917 92.8997 39.939C92.4937 40.947 91.9197 41.829 91.1777 42.585C90.4497 43.341 89.5817 43.936 88.5737 44.37C87.5657 44.79 86.4597 45 85.2557 45H84.7727ZM84.7727 31.476C83.9887 31.476 83.2677 31.609 82.6097 31.875C81.9517 32.141 81.3777 32.512 80.8877 32.988C80.4117 33.464 80.0337 34.031 79.7537 34.689C79.4877 35.347 79.3547 36.075 79.3547 36.873C79.3547 37.643 79.4877 38.35 79.7537 38.994C80.0197 39.638 80.3907 40.198 80.8667 40.674C81.3427 41.136 81.9097 41.5 82.5677 41.766C83.2397 42.018 83.9747 42.144 84.7727 42.144H85.2557C86.0677 42.144 86.8027 42.011 87.4607 41.745C88.1327 41.479 88.7067 41.115 89.1827 40.653C89.6587 40.177 90.0227 39.617 90.2747 38.973C90.5407 38.329 90.6737 37.629 90.6737 36.873C90.6737 36.089 90.5407 35.368 90.2747 34.71C90.0087 34.052 89.6307 33.485 89.1407 33.009C88.6647 32.519 88.0907 32.141 87.4187 31.875C86.7607 31.609 86.0397 31.476 85.2557 31.476H84.7727ZM102.42 29.355C102.616 29.047 102.861 28.83 103.155 28.704C103.449 28.564 103.75 28.494 104.058 28.494C104.422 28.494 104.716 28.627 104.94 28.893C105.164 29.145 105.276 29.488 105.276 29.922V39.897L112.29 29.355C112.486 29.047 112.724 28.83 113.004 28.704C113.298 28.564 113.606 28.494 113.928 28.494C114.292 28.494 114.586 28.627 114.81 28.893C115.034 29.145 115.146 29.488 115.146 29.922V45H112.29V33.933L105.906 44.013C105.668 44.391 105.409 44.65 105.129 44.79C104.849 44.93 104.562 45 104.268 45C104.016 45 103.778 44.958 103.554 44.874C103.33 44.776 103.134 44.643 102.966 44.475C102.798 44.307 102.665 44.111 102.567 43.887C102.469 43.663 102.42 43.411 102.42 43.131V33.933L95.4059 45H92.0039L102.42 29.355ZM125.073 45H116.946V28.62H124.947V31.476H119.802V35.277H124.233V38.112H119.802V42.144H125.073V45Z" fill="white"/>
<path d="M56.7807 6.49786H211.461L184.144 33.8098H161.173M56.7807 6.49786H28.6685C18.4185 7.21138 12.0725 9.37618 7.72167 14.4519C-0.179889 23.6697 -1.19003 38.3602 5.08905 48.7557C9.12651 55.4399 16.26 58.9063 28.6685 61.4765H142.459V52.1656L155.94 38.7756L178.557 61.4765H203.036L203.513 61.0331M56.7807 6.49786L62.3712 1H153.546M56.7807 6.49786L46.1407 16.9615M203.513 61.0331L208.002 56.8654L212.259 61.0331L208.002 65.5556L203.513 61.0331Z" stroke="url(#paint0_linear_1137_6)" stroke-width="2"/>
<defs>
<linearGradient id="paint0_linear_1137_6" x1="-9.44682" y1="32.5003" x2="975.447" y2="20.2509" gradientUnits="userSpaceOnUse">
<stop stop-color="#65CFB4"/>
<stop offset="1" stop-color="#5CA7CC"/>
</linearGradient>
</defs>
</svg>
