<svg width="395" height="98" viewBox="0 0 395 98" fill="none" xmlns="http://www.w3.org/2000/svg">
<path d="M22.9417 73.648C20.6857 73.648 18.4777 73.456 16.3177 73.072C14.1577 72.688 12.1417 72.136 10.2697 71.416C8.44572 70.696 6.78972 69.784 5.30172 68.68C4.72572 68.248 4.31772 67.768 4.07772 67.24C3.88572 66.664 3.83772 66.112 3.93372 65.584C4.07772 65.008 4.31772 64.528 4.65372 64.144C5.03772 63.76 5.49372 63.544 6.02172 63.496C6.54972 63.448 7.12572 63.616 7.74972 64C9.90972 65.536 12.2137 66.664 14.6617 67.384C17.1097 68.056 19.8697 68.392 22.9417 68.392C27.2617 68.392 30.4537 67.6 32.5177 66.016C34.6297 64.384 35.6857 62.248 35.6857 59.608C35.6857 57.448 34.9177 55.768 33.3817 54.568C31.8937 53.32 29.3737 52.336 25.8217 51.616L18.3337 50.104C13.8217 49.144 10.4377 47.584 8.18172 45.424C5.97372 43.216 4.86972 40.288 4.86972 36.64C4.86972 34.384 5.32572 32.344 6.23772 30.52C7.14972 28.648 8.42172 27.064 10.0537 25.768C11.6857 24.424 13.6297 23.392 15.8857 22.672C18.1417 21.952 20.6377 21.592 23.3737 21.592C26.3977 21.592 29.2057 22.024 31.7977 22.888C34.4377 23.704 36.8137 24.952 38.9257 26.632C39.4537 27.064 39.8137 27.568 40.0057 28.144C40.1977 28.672 40.2217 29.2 40.0777 29.728C39.9337 30.208 39.6697 30.616 39.2857 30.952C38.9497 31.288 38.4937 31.48 37.9177 31.528C37.3897 31.576 36.7897 31.384 36.1177 30.952C34.1977 29.512 32.2057 28.48 30.1417 27.856C28.0777 27.184 25.7977 26.848 23.3017 26.848C20.7577 26.848 18.5497 27.232 16.6777 28C14.8537 28.768 13.4137 29.896 12.3577 31.384C11.3497 32.824 10.8457 34.504 10.8457 36.424C10.8457 38.728 11.5417 40.552 12.9337 41.896C14.3737 43.24 16.7017 44.224 19.9177 44.848L27.4057 46.432C32.2537 47.44 35.8297 48.976 38.1337 51.04C40.4857 53.056 41.6617 55.816 41.6617 59.32C41.6617 61.432 41.2297 63.376 40.3657 65.152C39.5017 66.928 38.2537 68.464 36.6217 69.76C34.9897 71.008 33.0217 71.968 30.7177 72.64C28.4137 73.312 25.8217 73.648 22.9417 73.648ZM64.8626 73.648C61.3586 73.648 58.3346 72.88 55.7906 71.344C53.2466 69.808 51.2786 67.672 49.8866 64.936C48.5426 62.152 47.8706 58.936 47.8706 55.288C47.8706 52.504 48.2546 50.008 49.0226 47.8C49.7906 45.592 50.9186 43.72 52.4066 42.184C53.8946 40.6 55.6706 39.4 57.7346 38.584C59.8466 37.768 62.2226 37.36 64.8626 37.36C66.5906 37.36 68.3906 37.624 70.2626 38.152C72.1346 38.68 73.8386 39.592 75.3746 40.888C75.8546 41.224 76.1666 41.632 76.3106 42.112C76.4546 42.592 76.4546 43.072 76.3106 43.552C76.1666 43.984 75.9266 44.368 75.5906 44.704C75.2546 44.992 74.8226 45.16 74.2946 45.208C73.8146 45.256 73.3106 45.088 72.7826 44.704C71.5346 43.744 70.2626 43.072 68.9666 42.688C67.6706 42.304 66.4226 42.112 65.2226 42.112C63.3506 42.112 61.7186 42.424 60.3266 43.048C58.9346 43.624 57.7586 44.464 56.7986 45.568C55.8386 46.672 55.0946 48.04 54.5666 49.672C54.0866 51.304 53.8466 53.2 53.8466 55.36C53.8466 59.536 54.8306 62.848 56.7986 65.296C58.7666 67.696 61.5746 68.896 65.2226 68.896C66.4226 68.896 67.6466 68.704 68.8946 68.32C70.1906 67.936 71.4866 67.264 72.7826 66.304C73.3106 65.92 73.8146 65.752 74.2946 65.8C74.7746 65.848 75.1826 66.04 75.5186 66.376C75.8546 66.664 76.0706 67.048 76.1666 67.528C76.3106 68.008 76.3106 68.488 76.1666 68.968C76.0226 69.4 75.7106 69.784 75.2306 70.12C73.6946 71.368 72.0146 72.28 70.1906 72.856C68.3666 73.384 66.5906 73.648 64.8626 73.648ZM86.2387 73.504C85.2787 73.504 84.5587 73.24 84.0787 72.712C83.5987 72.184 83.3587 71.44 83.3587 70.48V24.688C83.3587 23.728 83.5987 23.008 84.0787 22.528C84.5587 22 85.2787 21.736 86.2387 21.736C87.1507 21.736 87.8707 22 88.3987 22.528C88.9267 23.008 89.1907 23.728 89.1907 24.688V45.784H88.2547C89.2627 43 90.8947 40.912 93.1507 39.52C95.4547 38.08 98.0947 37.36 101.071 37.36C103.855 37.36 106.159 37.864 107.983 38.872C109.855 39.88 111.247 41.416 112.159 43.48C113.071 45.496 113.527 48.064 113.527 51.184V70.48C113.527 71.44 113.263 72.184 112.735 72.712C112.255 73.24 111.559 73.504 110.647 73.504C109.687 73.504 108.943 73.24 108.415 72.712C107.935 72.184 107.695 71.44 107.695 70.48V51.544C107.695 48.28 107.047 45.904 105.751 44.416C104.503 42.88 102.487 42.112 99.7027 42.112C96.4867 42.112 93.9187 43.12 91.9987 45.136C90.1267 47.104 89.1907 49.744 89.1907 53.056V70.48C89.1907 72.496 88.2067 73.504 86.2387 73.504ZM140.049 73.648C136.353 73.648 133.161 72.928 130.473 71.488C127.833 70 125.769 67.912 124.281 65.224C122.841 62.536 122.121 59.32 122.121 55.576C122.121 51.928 122.841 48.76 124.281 46.072C125.721 43.336 127.689 41.2 130.185 39.664C132.729 38.128 135.657 37.36 138.969 37.36C141.321 37.36 143.433 37.768 145.305 38.584C147.177 39.352 148.761 40.48 150.057 41.968C151.401 43.456 152.409 45.256 153.081 47.368C153.801 49.48 154.161 51.856 154.161 54.496C154.161 55.264 153.945 55.84 153.513 56.224C153.081 56.56 152.457 56.728 151.641 56.728H126.585V52.912H150.273L149.121 53.848C149.121 51.256 148.737 49.072 147.969 47.296C147.201 45.472 146.073 44.08 144.585 43.12C143.145 42.16 141.321 41.68 139.113 41.68C136.665 41.68 134.577 42.256 132.849 43.408C131.169 44.512 129.897 46.072 129.033 48.088C128.169 50.056 127.737 52.36 127.737 55V55.432C127.737 59.848 128.793 63.208 130.905 65.512C133.065 67.816 136.113 68.968 140.049 68.968C141.681 68.968 143.289 68.752 144.873 68.32C146.505 67.888 148.089 67.168 149.625 66.16C150.297 65.728 150.897 65.536 151.425 65.584C152.001 65.584 152.457 65.752 152.793 66.088C153.129 66.376 153.345 66.76 153.441 67.24C153.585 67.672 153.537 68.152 153.297 68.68C153.105 69.208 152.697 69.664 152.073 70.048C150.489 71.2 148.617 72.088 146.457 72.712C144.297 73.336 142.161 73.648 140.049 73.648ZM175.921 73.648C172.801 73.648 170.065 72.904 167.713 71.416C165.409 69.928 163.609 67.84 162.313 65.152C161.065 62.416 160.441 59.2 160.441 55.504C160.441 51.76 161.065 48.544 162.313 45.856C163.609 43.12 165.409 41.032 167.713 39.592C170.065 38.104 172.801 37.36 175.921 37.36C179.089 37.36 181.801 38.152 184.057 39.736C186.313 41.32 187.825 43.456 188.593 46.144H187.801V24.688C187.801 23.728 188.041 23.008 188.521 22.528C189.049 22 189.793 21.736 190.753 21.736C191.665 21.736 192.361 22 192.841 22.528C193.369 23.008 193.633 23.728 193.633 24.688V70.48C193.633 71.44 193.393 72.184 192.913 72.712C192.433 73.24 191.713 73.504 190.753 73.504C189.841 73.504 189.121 73.24 188.593 72.712C188.113 72.184 187.873 71.44 187.873 70.48V63.64L188.665 64.648C187.897 67.384 186.361 69.568 184.057 71.2C181.801 72.832 179.089 73.648 175.921 73.648ZM177.145 68.968C179.305 68.968 181.201 68.44 182.833 67.384C184.465 66.328 185.713 64.792 186.577 62.776C187.489 60.76 187.945 58.336 187.945 55.504C187.945 51.136 186.961 47.8 184.993 45.496C183.073 43.192 180.457 42.04 177.145 42.04C174.937 42.04 173.017 42.568 171.385 43.624C169.801 44.632 168.553 46.144 167.641 48.16C166.777 50.128 166.345 52.576 166.345 55.504C166.345 59.824 167.329 63.16 169.297 65.512C171.265 67.816 173.881 68.968 177.145 68.968ZM216.961 73.648C214.129 73.648 211.777 73.144 209.905 72.136C208.081 71.08 206.689 69.52 205.729 67.456C204.817 65.392 204.361 62.824 204.361 59.752V40.456C204.361 39.448 204.601 38.704 205.081 38.224C205.609 37.744 206.329 37.504 207.241 37.504C208.201 37.504 208.921 37.744 209.401 38.224C209.929 38.704 210.193 39.448 210.193 40.456V59.68C210.193 62.752 210.817 65.056 212.065 66.592C213.361 68.08 215.377 68.824 218.113 68.824C221.089 68.824 223.513 67.816 225.385 65.8C227.257 63.784 228.193 61.144 228.193 57.88V40.456C228.193 39.448 228.433 38.704 228.913 38.224C229.441 37.744 230.185 37.504 231.145 37.504C232.057 37.504 232.753 37.744 233.233 38.224C233.761 38.704 234.025 39.448 234.025 40.456V70.48C234.025 72.496 233.089 73.504 231.217 73.504C230.305 73.504 229.585 73.24 229.057 72.712C228.577 72.184 228.337 71.44 228.337 70.48V63.928L229.273 64.936C228.313 67.768 226.729 69.928 224.521 71.416C222.361 72.904 219.841 73.648 216.961 73.648ZM255.593 73.648C252.137 73.648 249.497 72.592 247.673 70.48C245.849 68.368 244.937 65.344 244.937 61.408V24.688C244.937 23.728 245.177 23.008 245.657 22.528C246.137 22 246.857 21.736 247.817 21.736C248.729 21.736 249.449 22 249.977 22.528C250.505 23.008 250.769 23.728 250.769 24.688V60.976C250.769 63.568 251.273 65.512 252.281 66.808C253.337 68.056 254.873 68.68 256.889 68.68C257.321 68.68 257.705 68.656 258.041 68.608C258.377 68.56 258.713 68.536 259.049 68.536C259.577 68.488 259.937 68.608 260.129 68.896C260.369 69.184 260.489 69.76 260.489 70.624C260.489 71.488 260.297 72.136 259.913 72.568C259.529 73 258.905 73.288 258.041 73.432C257.657 73.48 257.249 73.528 256.817 73.576C256.385 73.624 255.977 73.648 255.593 73.648ZM281.658 73.648C277.962 73.648 274.77 72.928 272.082 71.488C269.442 70 267.378 67.912 265.89 65.224C264.45 62.536 263.73 59.32 263.73 55.576C263.73 51.928 264.45 48.76 265.89 46.072C267.33 43.336 269.298 41.2 271.794 39.664C274.338 38.128 277.266 37.36 280.578 37.36C282.93 37.36 285.042 37.768 286.914 38.584C288.786 39.352 290.37 40.48 291.666 41.968C293.01 43.456 294.018 45.256 294.69 47.368C295.41 49.48 295.77 51.856 295.77 54.496C295.77 55.264 295.554 55.84 295.122 56.224C294.69 56.56 294.066 56.728 293.25 56.728H268.194V52.912H291.882L290.73 53.848C290.73 51.256 290.346 49.072 289.578 47.296C288.81 45.472 287.682 44.08 286.194 43.12C284.754 42.16 282.93 41.68 280.722 41.68C278.274 41.68 276.186 42.256 274.458 43.408C272.778 44.512 271.506 46.072 270.642 48.088C269.778 50.056 269.346 52.36 269.346 55V55.432C269.346 59.848 270.402 63.208 272.514 65.512C274.674 67.816 277.722 68.968 281.658 68.968C283.29 68.968 284.898 68.752 286.482 68.32C288.114 67.888 289.698 67.168 291.234 66.16C291.906 65.728 292.506 65.536 293.034 65.584C293.61 65.584 294.066 65.752 294.402 66.088C294.738 66.376 294.954 66.76 295.05 67.24C295.194 67.672 295.146 68.152 294.906 68.68C294.714 69.208 294.306 69.664 293.682 70.048C292.098 71.2 290.226 72.088 288.066 72.712C285.906 73.336 283.77 73.648 281.658 73.648Z" fill="white"/>
<path d="M316.028 36.7295L316 61.5887L338.843 49.1721L316.028 36.7295Z" fill="#65CEB4"/>
<path d="M347.451 22L347.41 75.4013L395.001 48.7403L347.451 22ZM354.88 34.5448L380.101 48.727L354.867 62.8697L354.88 34.5448Z" fill="#5CA8CC"/>
</svg>
