<svg width="51" height="52" viewBox="0 0 51 52" fill="none" xmlns="http://www.w3.org/2000/svg">
<g clip-path="url(#clip0_42_29)">
<path d="M25.129 0.514648C11.3343 0.514648 0.152161 11.6968 0.152161 25.4915C0.152161 38.0149 9.36741 48.384 21.3875 50.1899C22.6076 50.3735 23.5952 50.6674 24.8666 50.6674C26.0143 50.6674 27.4069 50.3909 28.5147 50.2411C40.7084 48.5889 50.1059 38.1386 50.1059 25.4915C50.1059 11.6968 38.9237 0.514648 25.129 0.514648Z" fill="#66D6B4"/>
<path d="M38.1685 14.4011C35.7049 13.2702 33.1049 12.4637 30.4338 12.002C30.4095 11.9975 30.3844 12.0007 30.3621 12.0113C30.3398 12.0219 30.3214 12.0392 30.3095 12.0609C29.9755 12.6548 29.6054 13.43 29.3464 14.0391C26.4255 13.6018 23.5198 13.6018 20.659 14.0391C20.3998 13.4163 20.0164 12.6548 19.6809 12.0609C19.6684 12.0397 19.6499 12.0227 19.6277 12.0122C19.6055 12.0017 19.5807 11.9981 19.5564 12.002C16.885 12.4628 14.285 13.2693 11.8217 14.4011C11.8006 14.41 11.7828 14.4253 11.7708 14.4448C6.84444 21.8047 5.49505 28.9836 6.15701 36.0737C6.15886 36.0911 6.16418 36.1079 6.17267 36.1232C6.18116 36.1385 6.19263 36.1519 6.20641 36.1626C9.45656 38.5496 12.6051 39.9987 15.695 40.9592C15.7191 40.9663 15.7447 40.966 15.7686 40.9582C15.7924 40.9504 15.8133 40.9355 15.8284 40.9155C16.5594 39.9172 17.2109 38.8648 17.7697 37.758C17.7773 37.7429 17.7817 37.7263 17.7825 37.7093C17.7833 37.6923 17.7805 37.6754 17.7743 37.6595C17.7681 37.6437 17.7586 37.6294 17.7464 37.6175C17.7342 37.6057 17.7197 37.5965 17.7037 37.5907C16.6701 37.1985 15.6861 36.7206 14.7395 36.1778C14.7223 36.1677 14.7078 36.1534 14.6974 36.1363C14.6869 36.1193 14.6809 36.0999 14.6797 36.0799C14.6785 36.0599 14.6822 36.04 14.6906 36.0218C14.6989 36.0036 14.7116 35.9878 14.7276 35.9757C14.9272 35.8264 15.1235 35.6726 15.3162 35.5143C15.333 35.5004 15.3535 35.4914 15.3752 35.4885C15.3969 35.4855 15.4189 35.4887 15.4389 35.4976C21.658 38.337 28.3907 38.337 34.5362 35.4976C34.5563 35.4881 34.5786 35.4845 34.6007 35.4872C34.6227 35.4899 34.6435 35.4988 34.6607 35.5128C34.8536 35.6719 35.0503 35.8263 35.2508 35.9757C35.2668 35.9877 35.2796 36.0034 35.2881 36.0215C35.2966 36.0396 35.3005 36.0595 35.2994 36.0795C35.2984 36.0995 35.2925 36.1189 35.2822 36.136C35.2719 36.1532 35.2575 36.1675 35.2404 36.1778C34.2933 36.7308 33.3012 37.2029 32.2747 37.5891C32.2587 37.5952 32.2443 37.6046 32.2322 37.6167C32.2201 37.6288 32.2108 37.6432 32.2047 37.6592C32.1986 37.6751 32.1959 37.6922 32.1969 37.7092C32.1979 37.7262 32.2024 37.7429 32.2103 37.758C32.7787 38.856 33.427 39.9108 34.1498 40.914C34.1645 40.9345 34.1853 40.9499 34.2092 40.958C34.2331 40.9661 34.259 40.9665 34.2832 40.9592C37.3882 39.9987 40.5367 38.5496 43.787 36.1626C43.8009 36.1523 43.8125 36.1393 43.821 36.1242C43.8295 36.1091 43.8348 36.0924 43.8364 36.0752C44.6287 27.8784 42.5092 20.7581 38.2179 14.4463C38.2074 14.4258 38.1898 14.4098 38.1685 14.4011ZM18.6984 31.7567C16.8259 31.7567 15.2831 30.0378 15.2831 27.9267C15.2831 25.8156 16.7961 24.0966 18.6984 24.0966C20.6155 24.0966 22.1433 25.8308 22.1133 27.9267C22.1133 30.0378 20.6007 31.7567 18.6984 31.7567ZM31.325 31.7567C29.4526 31.7567 27.91 30.0378 27.91 27.9267C27.91 25.8156 29.4228 24.0966 31.325 24.0966C33.2422 24.0966 34.7699 25.8308 34.7401 27.9267C34.7401 30.0378 33.2422 31.7567 31.325 31.7567Z" fill="#141C1D"/>
</g>
<defs>
<clipPath id="clip0_42_29">
<rect width="50.6657" height="51.4219" fill="white"/>
</clipPath>
</defs>
</svg>
