<svg width="252" height="134" viewBox="0 0 252 134" fill="none" xmlns="http://www.w3.org/2000/svg">
<g filter="url(#filter0_d_49_56)">
<path d="M220.002 9H36.1328L52 99.3697H235.502L220.002 9Z" fill="#5190AE" fill-opacity="0.3" shape-rendering="crispEdges"/>
</g>
<g filter="url(#filter1_d_49_56)">
<path d="M16.3272 119.642V113.747H6V123.999H16.3272V119.642ZM16.3272 119.642H91.4576L107.465 104.264H246.002L230.617 15.0713H44.502L59.5 104.008H85.2613L91.974 98.1127H230.617M167.104 15.0713L154.454 2H34.658" stroke="url(#paint0_linear_49_56)" stroke-width="3" shape-rendering="crispEdges"/>
</g>
<path d="M87.168 55.332V72H81.084C78.996 72 77.088 71.64 75.36 70.92C73.632 70.176 72.144 69.168 70.896 67.896C69.648 66.6 68.676 65.076 67.98 63.324C67.284 61.572 66.936 59.688 66.936 57.672C66.936 55.632 67.272 53.772 67.944 52.092C68.64 50.412 69.6 48.972 70.824 47.772C72.072 46.548 73.56 45.6 75.288 44.928C77.04 44.256 78.972 43.92 81.084 43.92H85.188V48.816H81.084C79.74 48.816 78.504 49.056 77.376 49.536C76.248 49.992 75.264 50.628 74.424 51.444C73.608 52.26 72.96 53.244 72.48 54.396C72.024 55.524 71.796 56.748 71.796 58.068C71.796 59.388 72.024 60.6 72.48 61.704C72.936 62.808 73.572 63.768 74.388 64.584C75.204 65.376 76.176 66 77.304 66.456C78.456 66.888 79.716 67.104 81.084 67.104H82.56V60.192H76.008V55.332H87.168ZM105.958 45.18C106.294 44.652 106.702 44.28 107.182 44.064C107.686 43.824 108.214 43.704 108.766 43.704C109.39 43.704 109.882 43.932 110.242 44.388C110.626 44.82 110.818 45.408 110.818 46.152V72H105.958V53.028L93.9343 72H88.1023L105.958 45.18ZM129.938 45.18C130.274 44.652 130.694 44.28 131.198 44.064C131.702 43.824 132.218 43.704 132.746 43.704C133.37 43.704 133.874 43.932 134.258 44.388C134.642 44.82 134.834 45.408 134.834 46.152V63.252L146.858 45.18C147.194 44.652 147.602 44.28 148.082 44.064C148.586 43.824 149.114 43.704 149.666 43.704C150.29 43.704 150.794 43.932 151.178 44.388C151.562 44.82 151.754 45.408 151.754 46.152V72H146.858V53.028L135.914 70.308C135.506 70.956 135.062 71.4 134.582 71.64C134.102 71.88 133.61 72 133.106 72C132.674 72 132.266 71.928 131.882 71.784C131.498 71.616 131.162 71.388 130.874 71.1C130.586 70.812 130.358 70.476 130.19 70.092C130.022 69.708 129.938 69.276 129.938 68.796V53.028L117.914 72H112.082L129.938 45.18ZM154.841 72V43.92H159.737V72H154.841ZM167.643 52.524V72H162.927V46.368C162.927 45.624 163.131 45.036 163.539 44.604C163.947 44.148 164.535 43.92 165.303 43.92C165.783 43.92 166.227 44.028 166.635 44.244C167.067 44.436 167.499 44.808 167.931 45.36L181.647 63.396V43.92H186.327V69.588C186.327 71.388 185.715 72.288 184.491 72.288C183.891 72.288 183.363 72.156 182.907 71.892C182.451 71.604 181.947 71.172 181.395 70.596L167.643 52.524ZM209.09 55.332V72H203.006C200.918 72 199.01 71.64 197.282 70.92C195.554 70.176 194.066 69.168 192.818 67.896C191.57 66.6 190.598 65.076 189.902 63.324C189.206 61.572 188.858 59.688 188.858 57.672C188.858 55.632 189.194 53.772 189.866 52.092C190.562 50.412 191.522 48.972 192.746 47.772C193.994 46.548 195.482 45.6 197.21 44.928C198.962 44.256 200.894 43.92 203.006 43.92H207.11V48.816H203.006C201.662 48.816 200.426 49.056 199.298 49.536C198.17 49.992 197.186 50.628 196.346 51.444C195.53 52.26 194.882 53.244 194.402 54.396C193.946 55.524 193.718 56.748 193.718 58.068C193.718 59.388 193.946 60.6 194.402 61.704C194.858 62.808 195.494 63.768 196.31 64.584C197.126 65.376 198.098 66 199.226 66.456C200.378 66.888 201.638 67.104 203.006 67.104H204.482V60.192H197.93V55.332H209.09Z" fill="#CACACA"/>
<defs>
<filter id="filter0_d_49_56" x="32.1328" y="9" width="207.367" height="98.3701" filterUnits="userSpaceOnUse" color-interpolation-filters="sRGB">
<feFlood flood-opacity="0" result="BackgroundImageFix"/>
<feColorMatrix in="SourceAlpha" type="matrix" values="0 0 0 0 0 0 0 0 0 0 0 0 0 0 0 0 0 0 127 0" result="hardAlpha"/>
<feOffset dy="4"/>
<feGaussianBlur stdDeviation="2"/>
<feComposite in2="hardAlpha" operator="out"/>
<feColorMatrix type="matrix" values="0 0 0 0 0 0 0 0 0 0 0 0 0 0 0 0 0 0 0.25 0"/>
<feBlend mode="normal" in2="BackgroundImageFix" result="effect1_dropShadow_49_56"/>
<feBlend mode="normal" in="SourceGraphic" in2="effect1_dropShadow_49_56" result="shape"/>
</filter>
<filter id="filter1_d_49_56" x="0.5" y="0.5" width="251.281" height="132.999" filterUnits="userSpaceOnUse" color-interpolation-filters="sRGB">
<feFlood flood-opacity="0" result="BackgroundImageFix"/>
<feColorMatrix in="SourceAlpha" type="matrix" values="0 0 0 0 0 0 0 0 0 0 0 0 0 0 0 0 0 0 127 0" result="hardAlpha"/>
<feOffset dy="4"/>
<feGaussianBlur stdDeviation="2"/>
<feComposite in2="hardAlpha" operator="out"/>
<feColorMatrix type="matrix" values="0 0 0 0 0 0 0 0 0 0 0 0 0 0 0 0 0 0 0.25 0"/>
<feBlend mode="normal" in2="BackgroundImageFix" result="effect1_dropShadow_49_56"/>
<feBlend mode="normal" in="SourceGraphic" in2="effect1_dropShadow_49_56" result="shape"/>
</filter>
<linearGradient id="paint0_linear_49_56" x1="11.3866" y1="63.1976" x2="238.221" y2="63.1976" gradientUnits="userSpaceOnUse">
<stop stop-color="#65CFB4"/>
<stop offset="1" stop-color="#5CA8CC"/>
</linearGradient>
</defs>
</svg>
