<svg width="591" height="249" viewBox="0 0 591 249" fill="none" xmlns="http://www.w3.org/2000/svg">
<path d="M470.396 17H93.8921L0.960938 108.848L89.6438 197H474.113L562.796 108.848L470.396 17Z" fill="#5190AE" fill-opacity="0.3"/>
<path d="M133.909 29.0357H494.397L586.961 118.374L494.397 206.691H238.301L206.418 237.321H56.7717M56.7717 237.321V225.58H36.2018V246H56.7717V237.321ZM483.597 194.439H207.446L194.076 206.181H131.852L42.887 117.863L134.423 29.0357M357.093 29.0357L331.894 3H93.2833L42.887 53.0294" stroke="url(#paint0_linear_818_2711)" stroke-width="5"/>
<path d="M275.752 110.998V136H266.626C263.494 136 260.632 135.46 258.04 134.38C255.448 133.264 253.216 131.752 251.344 129.844C249.472 127.9 248.014 125.614 246.97 122.986C245.926 120.358 245.404 117.532 245.404 114.508C245.404 111.448 245.908 108.658 246.916 106.138C247.96 103.618 249.4 101.458 251.236 99.658C253.108 97.822 255.34 96.4 257.932 95.392C260.56 94.384 263.458 93.88 266.626 93.88H272.782V101.224H266.626C264.61 101.224 262.756 101.584 261.064 102.304C259.372 102.988 257.896 103.942 256.636 105.166C255.412 106.39 254.44 107.866 253.72 109.594C253.036 111.286 252.694 113.122 252.694 115.102C252.694 117.082 253.036 118.9 253.72 120.556C254.404 122.212 255.358 123.652 256.582 124.876C257.806 126.064 259.264 127 260.956 127.684C262.684 128.332 264.574 128.656 266.626 128.656H268.84V118.288H259.012V110.998H275.752ZM280.178 136V93.88H292.274C295.406 93.88 298.268 94.384 300.86 95.392C303.452 96.4 305.684 97.822 307.556 99.658C309.428 101.458 310.886 103.618 311.93 106.138C312.974 108.658 313.496 111.448 313.496 114.508C313.496 117.532 312.956 120.358 311.876 122.986C310.832 125.614 309.374 127.9 307.502 129.844C305.63 131.752 303.38 133.264 300.752 134.38C298.16 135.46 295.334 136 292.274 136H280.178ZM287.522 101.224V128.656H292.274C294.362 128.656 296.252 128.314 297.944 127.63C299.636 126.946 301.094 126.01 302.318 124.822C303.542 123.598 304.478 122.158 305.126 120.502C305.81 118.846 306.152 117.046 306.152 115.102C306.152 113.122 305.81 111.286 305.126 109.594C304.442 107.866 303.488 106.39 302.264 105.166C301.04 103.942 299.564 102.988 297.836 102.304C296.144 101.584 294.29 101.224 292.274 101.224H287.522ZM322.331 112.672L311.855 93.88H320.279L326.489 106.084L332.699 93.88H341.069L330.539 113.482L342.797 136H334.751L326.489 120.232L318.227 136H310.127L322.331 112.672ZM376.521 136H366.261L355.083 124.174C354.435 123.49 353.931 122.842 353.571 122.23C353.247 121.618 353.085 121.006 353.085 120.394C353.085 118.09 354.543 116.83 357.459 116.614C361.383 116.326 364.281 115.552 366.153 114.292C368.061 112.996 369.015 111.052 369.015 108.46C369.015 106.048 368.277 104.248 366.801 103.06C365.361 101.836 363.291 101.224 360.591 101.224H352.491V136H345.147V93.88H360.753C362.949 93.88 365.019 94.204 366.963 94.852C368.907 95.464 370.581 96.382 371.985 97.606C373.425 98.794 374.559 100.288 375.387 102.088C376.215 103.888 376.629 105.958 376.629 108.298C376.629 109.702 376.413 111.142 375.981 112.618C375.549 114.094 374.829 115.48 373.821 116.776C372.813 118.072 371.481 119.224 369.825 120.232C368.169 121.204 366.099 121.888 363.615 122.284L376.521 136Z" fill="#CACACA"/>
<defs>
<linearGradient id="paint0_linear_818_2711" x1="46.9309" y1="124.894" x2="498.744" y2="124.894" gradientUnits="userSpaceOnUse">
<stop stop-color="#65CFB4"/>
<stop offset="1" stop-color="#5CA8CC"/>
</linearGradient>
</defs>
</svg>
