<svg width="76" height="76" viewBox="0 0 76 76" fill="none" xmlns="http://www.w3.org/2000/svg">
<path d="M11.8081 2.375C11.8081 1.74511 12.059 1.14102 12.5057 0.695621C12.9524 0.250223 13.5582 0 14.1898 0L61.8244 0C62.4561 0 63.0619 0.250223 63.5086 0.695621C63.9552 1.14102 64.2062 1.74511 64.2062 2.375C64.2062 4.9305 64.149 7.3625 64.0442 9.671C65.9264 9.9818 67.7271 10.6653 69.3402 11.6811C70.9533 12.6969 72.3461 14.0246 73.4364 15.5857C74.5267 17.1469 75.2925 18.9099 75.6886 20.7709C76.0847 22.6319 76.1031 24.5531 75.7427 26.4213C75.3823 28.2895 74.6505 30.0668 73.5903 31.6485C72.5301 33.2301 71.163 34.5841 69.5697 35.6304C67.9763 36.6768 66.189 37.3945 64.3131 37.7411C62.4372 38.0877 60.5107 38.0562 58.6472 37.6485C54.8841 46.5073 49.7014 50.8393 45.1523 51.9508V62.2725L51.9403 63.9635C52.8644 64.1915 53.7361 64.6048 54.4982 65.1748L63.2535 71.725C63.6534 72.0241 63.9488 72.4411 64.0978 72.9168C64.2469 73.3926 64.242 73.9031 64.0839 74.376C63.9259 74.8489 63.6226 75.2602 63.2171 75.5517C62.8115 75.8432 62.3243 76 61.8244 76H14.1898C13.69 76 13.2027 75.8432 12.7972 75.5517C12.3917 75.2602 12.0884 74.8489 11.9303 74.376C11.7723 73.9031 11.7674 73.3926 11.9165 72.9168C12.0655 72.4411 12.3609 72.0241 12.7608 71.725L21.516 65.1748C22.2782 64.6048 23.1499 64.1915 24.074 63.9635L30.8619 62.2725V51.9508C26.3128 50.8393 21.1302 46.5073 17.3671 37.6437C15.5026 38.0536 13.5746 38.0868 11.6971 37.7413C9.81953 37.3958 8.03044 36.6787 6.43547 35.6322C4.8405 34.5857 3.472 33.2311 2.41079 31.6484C1.34958 30.0658 0.617175 28.2871 0.256829 26.4174C-0.103517 24.5478 -0.0844953 22.6251 0.31277 20.7629C0.710036 18.9007 1.47749 17.1368 2.56981 15.5753C3.66213 14.0138 5.05716 12.6864 6.67252 11.6715C8.28788 10.6566 10.0908 9.97474 11.9748 9.66625C11.8627 7.23745 11.8071 4.80638 11.8081 2.375ZM12.2797 14.44C9.79406 14.8935 7.5909 16.3131 6.15488 18.3864C4.71887 20.4598 4.16763 23.017 4.62244 25.4956C5.07724 27.9742 6.50083 30.1712 8.58004 31.6031C10.6592 33.0351 13.2238 33.5848 15.7094 33.1312C14.1232 28.1437 12.9085 21.9877 12.2797 14.44ZM60.3097 33.1312C62.7953 33.5848 65.3598 33.0351 67.439 31.6031C69.5182 30.1712 70.9418 27.9742 71.3966 25.4956C71.8514 23.017 71.3002 20.4598 69.8642 18.3864C68.4281 16.3131 66.225 14.8935 63.7393 14.44C63.1058 21.9925 61.8911 28.1437 60.3097 33.1312Z" fill="#407A6C"/>
</svg>
