<svg width="591" height="249" viewBox="0 0 591 249" fill="none" xmlns="http://www.w3.org/2000/svg">
<path d="M473.645 15H94.5352L0.960938 106.848L90.2575 195H477.388L566.684 106.848L473.645 15Z" fill="#5190AE" fill-opacity="0.3"/>
<path d="M130.773 29.0357H493.755L586.96 118.374L493.755 206.691H235.887L203.783 237.321H53.1016M53.1016 237.321V225.58H32.3894V246H53.1016V237.321ZM482.881 194.439H204.819L191.356 206.181H128.701L39.1209 117.863L131.29 29.0357M355.501 29.0357L330.128 3H89.8659L39.1209 53.0294" stroke="url(#paint0_linear_818_2716)" stroke-width="5"/>
<path d="M209.696 136H199.436L188.258 124.174C187.61 123.49 187.106 122.842 186.746 122.23C186.422 121.618 186.26 121.006 186.26 120.394C186.26 118.09 187.718 116.83 190.634 116.614C194.558 116.326 197.456 115.552 199.328 114.292C201.236 112.996 202.19 111.052 202.19 108.46C202.19 106.048 201.452 104.248 199.976 103.06C198.536 101.836 196.466 101.224 193.766 101.224H185.666V136H178.322V93.88H193.928C196.124 93.88 198.194 94.204 200.138 94.852C202.082 95.464 203.756 96.382 205.16 97.606C206.6 98.794 207.734 100.288 208.562 102.088C209.39 103.888 209.804 105.958 209.804 108.298C209.804 109.702 209.588 111.142 209.156 112.618C208.724 114.094 208.004 115.48 206.996 116.776C205.988 118.072 204.656 119.224 203 120.232C201.344 121.204 199.274 121.888 196.79 122.284L209.696 136ZM232.646 136C229.55 136 226.688 135.46 224.06 134.38C221.468 133.264 219.236 131.734 217.364 129.79C215.492 127.846 214.034 125.578 212.99 122.986C211.946 120.358 211.424 117.532 211.424 114.508C211.424 111.484 211.928 108.712 212.936 106.192C213.98 103.672 215.42 101.494 217.256 99.658C219.128 97.822 221.36 96.4 223.952 95.392C226.58 94.384 229.478 93.88 232.646 93.88H233.888C237.092 93.88 239.99 94.402 242.582 95.446C245.21 96.454 247.442 97.876 249.278 99.712C251.15 101.548 252.59 103.726 253.598 106.246C254.606 108.766 255.11 111.52 255.11 114.508C255.11 117.532 254.588 120.358 253.544 122.986C252.5 125.578 251.024 127.846 249.116 129.79C247.244 131.734 245.012 133.264 242.42 134.38C239.828 135.46 236.984 136 233.888 136H232.646ZM232.646 101.224C230.63 101.224 228.776 101.566 227.084 102.25C225.392 102.934 223.916 103.888 222.656 105.112C221.432 106.336 220.46 107.794 219.74 109.486C219.056 111.178 218.714 113.05 218.714 115.102C218.714 117.082 219.056 118.9 219.74 120.556C220.424 122.212 221.378 123.652 222.602 124.876C223.826 126.064 225.284 127 226.976 127.684C228.704 128.332 230.594 128.656 232.646 128.656H233.888C235.976 128.656 237.866 128.314 239.558 127.63C241.286 126.946 242.762 126.01 243.986 124.822C245.21 123.598 246.146 122.158 246.794 120.502C247.478 118.846 247.82 117.046 247.82 115.102C247.82 113.086 247.478 111.232 246.794 109.54C246.11 107.848 245.138 106.39 243.878 105.166C242.654 103.906 241.178 102.934 239.45 102.25C237.758 101.566 235.904 101.224 233.888 101.224H232.646ZM266.455 101.116V128.602H272.881C275.401 128.602 277.453 128.188 279.037 127.36C280.657 126.532 281.467 125.236 281.467 123.472C281.467 121.708 280.927 120.394 279.847 119.53C278.767 118.666 277.417 118.234 275.797 118.234H270.721V110.944H275.797C277.417 110.944 278.659 110.548 279.523 109.756C280.423 108.964 280.873 107.704 280.873 105.976C280.873 104.248 280.261 103.006 279.037 102.25C277.849 101.494 275.797 101.116 272.881 101.116H266.455ZM282.547 113.806C283.663 114.31 284.599 114.94 285.355 115.696C286.147 116.416 286.777 117.208 287.245 118.072C287.713 118.936 288.037 119.836 288.217 120.772C288.433 121.708 288.541 122.608 288.541 123.472C288.541 125.2 288.199 126.82 287.515 128.332C286.867 129.844 285.841 131.176 284.437 132.328C283.069 133.444 281.323 134.326 279.199 134.974C277.111 135.622 274.627 135.946 271.747 135.946H259.111V93.826H273.313C278.029 93.826 281.629 94.726 284.113 96.526C286.597 98.326 287.839 101.062 287.839 104.734C287.839 105.562 287.749 106.426 287.569 107.326C287.389 108.19 287.101 109.036 286.705 109.864C286.309 110.656 285.769 111.394 285.085 112.078C284.401 112.762 283.555 113.338 282.547 113.806ZM313.277 136C310.181 136 307.319 135.46 304.691 134.38C302.099 133.264 299.867 131.734 297.995 129.79C296.123 127.846 294.665 125.578 293.621 122.986C292.577 120.358 292.055 117.532 292.055 114.508C292.055 111.484 292.559 108.712 293.567 106.192C294.611 103.672 296.051 101.494 297.887 99.658C299.759 97.822 301.991 96.4 304.583 95.392C307.211 94.384 310.109 93.88 313.277 93.88H314.519C317.723 93.88 320.621 94.402 323.213 95.446C325.841 96.454 328.073 97.876 329.909 99.712C331.781 101.548 333.221 103.726 334.229 106.246C335.237 108.766 335.741 111.52 335.741 114.508C335.741 117.532 335.219 120.358 334.175 122.986C333.131 125.578 331.655 127.846 329.747 129.79C327.875 131.734 325.643 133.264 323.051 134.38C320.459 135.46 317.615 136 314.519 136H313.277ZM313.277 101.224C311.261 101.224 309.407 101.566 307.715 102.25C306.023 102.934 304.547 103.888 303.287 105.112C302.063 106.336 301.091 107.794 300.371 109.486C299.687 111.178 299.345 113.05 299.345 115.102C299.345 117.082 299.687 118.9 300.371 120.556C301.055 122.212 302.009 123.652 303.233 124.876C304.457 126.064 305.915 127 307.607 127.684C309.335 128.332 311.225 128.656 313.277 128.656H314.519C316.607 128.656 318.497 128.314 320.189 127.63C321.917 126.946 323.393 126.01 324.617 124.822C325.841 123.598 326.777 122.158 327.425 120.502C328.109 118.846 328.451 117.046 328.451 115.102C328.451 113.086 328.109 111.232 327.425 109.54C326.741 107.848 325.769 106.39 324.509 105.166C323.285 103.906 321.809 102.934 320.081 102.25C318.389 101.566 316.535 101.224 314.519 101.224H313.277ZM355.996 101.224V136H348.652V101.224H337.906V93.88H366.742V101.224H355.996ZM369.484 136V93.88H376.828V136H369.484ZM401.863 136C398.731 136 395.851 135.46 393.223 134.38C390.631 133.264 388.399 131.752 386.527 129.844C384.691 127.9 383.251 125.614 382.207 122.986C381.163 120.358 380.641 117.532 380.641 114.508C380.641 111.448 381.145 108.658 382.153 106.138C383.197 103.618 384.637 101.458 386.473 99.658C388.345 97.822 390.577 96.4 393.169 95.392C395.797 94.384 398.695 93.88 401.863 93.88H408.019V101.224H401.863C399.847 101.224 397.975 101.584 396.247 102.304C394.555 102.988 393.079 103.942 391.819 105.166C390.595 106.39 389.623 107.866 388.903 109.594C388.219 111.286 387.877 113.122 387.877 115.102C387.877 117.082 388.219 118.9 388.903 120.556C389.587 122.212 390.541 123.652 391.765 124.876C392.989 126.064 394.465 127 396.193 127.684C397.921 128.332 399.811 128.656 401.863 128.656H408.019V136H401.863ZM411.574 136V128.656H426.316C428.584 128.656 430.456 128.116 431.932 127.036C433.408 125.956 434.146 124.552 434.146 122.824C434.146 121.96 433.948 121.168 433.552 120.448C433.156 119.728 432.616 119.116 431.932 118.612C431.248 118.072 430.42 117.658 429.448 117.37C428.476 117.082 427.432 116.938 426.316 116.938H422.968C421.24 116.938 419.638 116.668 418.162 116.128C416.686 115.552 415.408 114.76 414.328 113.752C413.248 112.708 412.402 111.502 411.79 110.134C411.178 108.73 410.872 107.182 410.872 105.49C410.872 103.834 411.178 102.304 411.79 100.9C412.438 99.496 413.338 98.272 414.49 97.228C415.642 96.184 417.028 95.374 418.648 94.798C420.268 94.186 422.05 93.88 423.994 93.88H437.98V101.224H423.616C422.068 101.224 420.844 101.656 419.944 102.52C419.044 103.348 418.594 104.356 418.594 105.544C418.594 106.84 419.044 107.92 419.944 108.784C420.88 109.648 422.104 110.08 423.616 110.08H427.774C429.646 110.08 431.374 110.404 432.958 111.052C434.542 111.664 435.91 112.546 437.062 113.698C438.214 114.85 439.114 116.218 439.762 117.802C440.41 119.386 440.734 121.114 440.734 122.986C440.734 124.894 440.392 126.64 439.708 128.224C439.024 129.808 438.034 131.176 436.738 132.328C435.478 133.48 433.966 134.38 432.202 135.028C430.438 135.676 428.476 136 426.316 136H411.574Z" fill="#CACACA"/>
<defs>
<linearGradient id="paint0_linear_818_2716" x1="43.1927" y1="124.894" x2="498.133" y2="124.894" gradientUnits="userSpaceOnUse">
<stop stop-color="#65CFB4"/>
<stop offset="1" stop-color="#5CA8CC"/>
</linearGradient>
</defs>
</svg>
