<svg width="252" height="134" viewBox="0 0 252 134" fill="none" xmlns="http://www.w3.org/2000/svg">
<g filter="url(#filter0_d_49_71)">
<path d="M220.002 9H36.1328L52 99.3697H235.502L220.002 9Z" fill="#5190AE" fill-opacity="0.3" shape-rendering="crispEdges"/>
</g>
<g filter="url(#filter1_d_49_71)">
<path d="M16.3272 119.642V113.747H6V123.999H16.3272V119.642ZM16.3272 119.642H91.4576L107.465 104.264H246.002L230.617 15.0713H44.502L59.5 104.008H85.2613L91.974 98.1127H230.617M167.104 15.0713L154.454 2H34.658" stroke="url(#paint0_linear_49_71)" stroke-width="3" shape-rendering="crispEdges"/>
</g>
<path d="M90.72 70H85.02L78.81 63.43C78.45 63.05 78.17 62.69 77.97 62.35C77.79 62.01 77.7 61.67 77.7 61.33C77.7 60.05 78.51 59.35 80.13 59.23C82.31 59.07 83.92 58.64 84.96 57.94C86.02 57.22 86.55 56.14 86.55 54.7C86.55 53.36 86.14 52.36 85.32 51.7C84.52 51.02 83.37 50.68 81.87 50.68H77.37V70H73.29V46.6H81.96C83.18 46.6 84.33 46.78 85.41 47.14C86.49 47.48 87.42 47.99 88.2 48.67C89 49.33 89.63 50.16 90.09 51.16C90.55 52.16 90.78 53.31 90.78 54.61C90.78 55.39 90.66 56.19 90.42 57.01C90.18 57.83 89.78 58.6 89.22 59.32C88.66 60.04 87.92 60.68 87 61.24C86.08 61.78 84.93 62.16 83.55 62.38L90.72 70ZM103.47 70C101.75 70 100.16 69.7 98.7 69.1C97.26 68.48 96.02 67.63 94.98 66.55C93.94 65.47 93.13 64.21 92.55 62.77C91.97 61.31 91.68 59.74 91.68 58.06C91.68 56.38 91.96 54.84 92.52 53.44C93.1 52.04 93.9 50.83 94.92 49.81C95.96 48.79 97.2 48 98.64 47.44C100.1 46.88 101.71 46.6 103.47 46.6H104.16C105.94 46.6 107.55 46.89 108.99 47.47C110.45 48.03 111.69 48.82 112.71 49.84C113.75 50.86 114.55 52.07 115.11 53.47C115.67 54.87 115.95 56.4 115.95 58.06C115.95 59.74 115.66 61.31 115.08 62.77C114.5 64.21 113.68 65.47 112.62 66.55C111.58 67.63 110.34 68.48 108.9 69.1C107.46 69.7 105.88 70 104.16 70H103.47ZM103.47 50.68C102.35 50.68 101.32 50.87 100.38 51.25C99.44 51.63 98.62 52.16 97.92 52.84C97.24 53.52 96.7 54.33 96.3 55.27C95.92 56.21 95.73 57.25 95.73 58.39C95.73 59.49 95.92 60.5 96.3 61.42C96.68 62.34 97.21 63.14 97.89 63.82C98.57 64.48 99.38 65 100.32 65.38C101.28 65.74 102.33 65.92 103.47 65.92H104.16C105.32 65.92 106.37 65.73 107.31 65.35C108.27 64.97 109.09 64.45 109.77 63.79C110.45 63.11 110.97 62.31 111.33 61.39C111.71 60.47 111.9 59.47 111.9 58.39C111.9 57.27 111.71 56.24 111.33 55.3C110.95 54.36 110.41 53.55 109.71 52.87C109.03 52.17 108.21 51.63 107.25 51.25C106.31 50.87 105.28 50.68 104.16 50.68H103.47ZM122.253 50.62V65.89H125.823C127.223 65.89 128.363 65.66 129.243 65.2C130.143 64.74 130.593 64.02 130.593 63.04C130.593 62.06 130.293 61.33 129.693 60.85C129.093 60.37 128.343 60.13 127.443 60.13H124.623V56.08H127.443C128.343 56.08 129.033 55.86 129.513 55.42C130.013 54.98 130.263 54.28 130.263 53.32C130.263 52.36 129.923 51.67 129.243 51.25C128.583 50.83 127.443 50.62 125.823 50.62H122.253ZM131.193 57.67C131.813 57.95 132.333 58.3 132.753 58.72C133.193 59.12 133.543 59.56 133.803 60.04C134.063 60.52 134.243 61.02 134.343 61.54C134.463 62.06 134.523 62.56 134.523 63.04C134.523 64 134.333 64.9 133.953 65.74C133.593 66.58 133.023 67.32 132.243 67.96C131.483 68.58 130.513 69.07 129.333 69.43C128.173 69.79 126.793 69.97 125.193 69.97H118.173V46.57H126.063C128.683 46.57 130.683 47.07 132.063 48.07C133.443 49.07 134.133 50.59 134.133 52.63C134.133 53.09 134.083 53.57 133.983 54.07C133.883 54.55 133.723 55.02 133.503 55.48C133.283 55.92 132.983 56.33 132.603 56.71C132.223 57.09 131.753 57.41 131.193 57.67ZM148.265 70C146.545 70 144.955 69.7 143.495 69.1C142.055 68.48 140.815 67.63 139.775 66.55C138.735 65.47 137.925 64.21 137.345 62.77C136.765 61.31 136.475 59.74 136.475 58.06C136.475 56.38 136.755 54.84 137.315 53.44C137.895 52.04 138.695 50.83 139.715 49.81C140.755 48.79 141.995 48 143.435 47.44C144.895 46.88 146.505 46.6 148.265 46.6H148.955C150.735 46.6 152.345 46.89 153.785 47.47C155.245 48.03 156.485 48.82 157.505 49.84C158.545 50.86 159.345 52.07 159.905 53.47C160.465 54.87 160.745 56.4 160.745 58.06C160.745 59.74 160.455 61.31 159.875 62.77C159.295 64.21 158.475 65.47 157.415 66.55C156.375 67.63 155.135 68.48 153.695 69.1C152.255 69.7 150.675 70 148.955 70H148.265ZM148.265 50.68C147.145 50.68 146.115 50.87 145.175 51.25C144.235 51.63 143.415 52.16 142.715 52.84C142.035 53.52 141.495 54.33 141.095 55.27C140.715 56.21 140.525 57.25 140.525 58.39C140.525 59.49 140.715 60.5 141.095 61.42C141.475 62.34 142.005 63.14 142.685 63.82C143.365 64.48 144.175 65 145.115 65.38C146.075 65.74 147.125 65.92 148.265 65.92H148.955C150.115 65.92 151.165 65.73 152.105 65.35C153.065 64.97 153.885 64.45 154.565 63.79C155.245 63.11 155.765 62.31 156.125 61.39C156.505 60.47 156.695 59.47 156.695 58.39C156.695 57.27 156.505 56.24 156.125 55.3C155.745 54.36 155.205 53.55 154.505 52.87C153.825 52.17 153.005 51.63 152.045 51.25C151.105 50.87 150.075 50.68 148.955 50.68H148.265ZM171.998 50.68V70H167.918V50.68H161.948V46.6H177.968V50.68H171.998ZM179.491 70V46.6H183.571V70H179.491ZM197.479 70C195.739 70 194.139 69.7 192.679 69.1C191.239 68.48 189.999 67.64 188.959 66.58C187.939 65.5 187.139 64.23 186.559 62.77C185.979 61.31 185.689 59.74 185.689 58.06C185.689 56.36 185.969 54.81 186.529 53.41C187.109 52.01 187.909 50.81 188.929 49.81C189.969 48.79 191.209 48 192.649 47.44C194.109 46.88 195.719 46.6 197.479 46.6H200.899V50.68H197.479C196.359 50.68 195.319 50.88 194.359 51.28C193.419 51.66 192.599 52.19 191.899 52.87C191.219 53.55 190.679 54.37 190.279 55.33C189.899 56.27 189.709 57.29 189.709 58.39C189.709 59.49 189.899 60.5 190.279 61.42C190.659 62.34 191.189 63.14 191.869 63.82C192.549 64.48 193.369 65 194.329 65.38C195.289 65.74 196.339 65.92 197.479 65.92H200.899V70H197.479ZM202.874 70V65.92H211.064C212.324 65.92 213.364 65.62 214.184 65.02C215.004 64.42 215.414 63.64 215.414 62.68C215.414 62.2 215.304 61.76 215.084 61.36C214.864 60.96 214.564 60.62 214.184 60.34C213.804 60.04 213.344 59.81 212.804 59.65C212.264 59.49 211.684 59.41 211.064 59.41H209.204C208.244 59.41 207.354 59.26 206.534 58.96C205.714 58.64 205.004 58.2 204.404 57.64C203.804 57.06 203.334 56.39 202.994 55.63C202.654 54.85 202.484 53.99 202.484 53.05C202.484 52.13 202.654 51.28 202.994 50.5C203.354 49.72 203.854 49.04 204.494 48.46C205.134 47.88 205.904 47.43 206.804 47.11C207.704 46.77 208.694 46.6 209.774 46.6H217.544V50.68H209.564C208.704 50.68 208.024 50.92 207.524 51.4C207.024 51.86 206.774 52.42 206.774 53.08C206.774 53.8 207.024 54.4 207.524 54.88C208.044 55.36 208.724 55.6 209.564 55.6H211.874C212.914 55.6 213.874 55.78 214.754 56.14C215.634 56.48 216.394 56.97 217.034 57.61C217.674 58.25 218.174 59.01 218.534 59.89C218.894 60.77 219.074 61.73 219.074 62.77C219.074 63.83 218.884 64.8 218.504 65.68C218.124 66.56 217.574 67.32 216.854 67.96C216.154 68.6 215.314 69.1 214.334 69.46C213.354 69.82 212.264 70 211.064 70H202.874Z" fill="#CACACA"/>
<defs>
<filter id="filter0_d_49_71" x="32.1328" y="9" width="207.367" height="98.3701" filterUnits="userSpaceOnUse" color-interpolation-filters="sRGB">
<feFlood flood-opacity="0" result="BackgroundImageFix"/>
<feColorMatrix in="SourceAlpha" type="matrix" values="0 0 0 0 0 0 0 0 0 0 0 0 0 0 0 0 0 0 127 0" result="hardAlpha"/>
<feOffset dy="4"/>
<feGaussianBlur stdDeviation="2"/>
<feComposite in2="hardAlpha" operator="out"/>
<feColorMatrix type="matrix" values="0 0 0 0 0 0 0 0 0 0 0 0 0 0 0 0 0 0 0.25 0"/>
<feBlend mode="normal" in2="BackgroundImageFix" result="effect1_dropShadow_49_71"/>
<feBlend mode="normal" in="SourceGraphic" in2="effect1_dropShadow_49_71" result="shape"/>
</filter>
<filter id="filter1_d_49_71" x="0.5" y="0.5" width="251.281" height="132.999" filterUnits="userSpaceOnUse" color-interpolation-filters="sRGB">
<feFlood flood-opacity="0" result="BackgroundImageFix"/>
<feColorMatrix in="SourceAlpha" type="matrix" values="0 0 0 0 0 0 0 0 0 0 0 0 0 0 0 0 0 0 127 0" result="hardAlpha"/>
<feOffset dy="4"/>
<feGaussianBlur stdDeviation="2"/>
<feComposite in2="hardAlpha" operator="out"/>
<feColorMatrix type="matrix" values="0 0 0 0 0 0 0 0 0 0 0 0 0 0 0 0 0 0 0.25 0"/>
<feBlend mode="normal" in2="BackgroundImageFix" result="effect1_dropShadow_49_71"/>
<feBlend mode="normal" in="SourceGraphic" in2="effect1_dropShadow_49_71" result="shape"/>
</filter>
<linearGradient id="paint0_linear_49_71" x1="11.3866" y1="63.1976" x2="238.221" y2="63.1976" gradientUnits="userSpaceOnUse">
<stop stop-color="#65CFB4"/>
<stop offset="1" stop-color="#5CA8CC"/>
</linearGradient>
</defs>
</svg>
