<svg width="35" height="35" viewBox="0 0 35 35" fill="none" xmlns="http://www.w3.org/2000/svg">
<path d="M17.4108 -0.000976562C7.79483 -0.000976562 0 7.79386 0 17.4099C0 26.1397 6.42373 33.3678 14.8027 34.6266C15.6532 34.7545 16.5246 32.2091 17.4108 32.2091C18.2109 32.2091 18.9987 34.7667 19.7709 34.6623C28.2708 33.5105 34.8217 26.2258 34.8217 17.4099C34.8217 7.79386 27.0268 -0.000976562 17.4108 -0.000976562Z" fill="white"/>
<path opacity="0.05" d="M20.6387 14.9463C20.6387 13.7067 20.9042 12.2293 22.1682 12.2293H25.8967L25.8959 7.33951L25.8523 6.59781L25.1158 6.49857C24.5866 6.42718 23.4853 6.27832 21.4543 6.27832C16.6063 6.27832 13.9363 9.16417 13.9363 14.404V16.5786H9.62891L9.62891 22.897H13.9363L13.9363 34.4734C15.0593 34.7006 16.2215 34.8216 17.4116 34.8216C18.5154 34.8216 19.5914 34.7076 20.6387 34.5109V22.8961H25.0201L25.9968 16.5777H20.6387V14.9463Z" fill="white"/>
<path opacity="0.05" d="M20.2037 14.9456C20.2037 13.7678 20.4587 11.7934 22.1685 11.7934H25.4617V7.36406L25.4391 6.98102L25.0621 6.92966C24.5424 6.85914 23.4621 6.71289 21.4555 6.71289C16.8216 6.71289 14.3728 9.3724 14.3728 14.4033V17.0131H10.0645V22.461H14.3719L14.3719 34.5389C15.3608 34.713 16.3724 34.8209 17.4118 34.8209C18.3642 34.8209 19.2922 34.7234 20.2037 34.5763V22.4601H24.6469L25.4887 17.0123H20.2028V14.9456H20.2037Z" fill="white"/>
<path d="M19.7667 22.0251H24.2726L24.9804 17.4478H19.7667V14.9459C19.7667 13.0446 20.3883 11.3584 22.1668 11.3584H25.0248V7.36433C24.5225 7.29643 23.4604 7.14844 21.4538 7.14844C17.263 7.14844 14.8064 9.36135 14.8064 14.4035V17.4487H10.498V22.026H14.8055L14.8055 34.6271C15.6586 34.7542 16.5231 34.8212 17.4102 34.8212C18.2119 34.8212 18.9945 34.7672 19.7667 34.6628V22.0251Z" fill="#262626"/>
</svg>
