<svg width="35" height="35" viewBox="0 0 35 35" fill="none" xmlns="http://www.w3.org/2000/svg">
<path d="M17.4108 -0.000976562C7.79483 -0.000976562 0 7.79385 0 17.4099C0 27.0259 7.79483 34.8207 17.4108 34.8207C27.0268 34.8207 34.8217 27.0259 34.8217 17.4099C34.8217 7.79385 27.0268 -0.000976562 17.4108 -0.000976562Z" fill="white"/>
<path opacity="0.05" d="M22.6351 26.9863V19.1515C22.6351 18.1912 21.8543 17.4104 20.8941 17.4104C19.9339 17.4104 19.153 18.1912 19.153 19.1515V26.9863H13.9297V12.1871H19.153V13.0812C20.0583 12.4996 21.1134 12.1871 22.1999 12.1871C25.3199 12.1871 27.8584 14.7256 27.8584 17.8456V26.9863H22.6351ZM7.83594 26.9863L7.83594 12.1871H10.418C8.9215 12.1871 7.83594 11.0885 7.83594 9.57462C7.83594 8.06162 8.93891 6.96387 10.4571 6.96387C11.9336 6.96387 13.0278 8.05379 13.0592 9.55721C13.0592 11.0841 11.9562 12.1871 10.4371 12.1871H13.0592V26.9863H7.83594Z" fill="white"/>
<path opacity="0.07" d="M23.0687 26.5523V19.1527C23.0687 17.9531 22.0929 16.9764 20.8924 16.9764C19.6919 16.9764 18.716 17.9531 18.716 19.1527V26.5523H14.3633V12.6236H18.716V13.9591C19.6649 13.1085 20.9028 12.6236 22.1982 12.6236C25.0788 12.6236 27.4215 14.9663 27.4215 17.8469V26.5523H23.0687ZM8.26953 26.5523L8.26953 12.6236H12.6222V26.5523H8.26953ZM10.4163 11.7531C9.17228 11.7531 8.26953 10.8373 8.26953 9.57587C8.26953 8.31533 9.18882 7.40039 10.4555 7.40039C11.7056 7.40039 12.5961 8.29096 12.6222 9.56717C12.6222 10.8373 11.7021 11.7531 10.4354 11.7531H10.4163Z" fill="white"/>
<path d="M8.70508 13.0572H12.1872V26.1154H8.70508L8.70508 13.0572ZM10.4357 11.3162H10.4166C9.37714 11.3162 8.70508 10.5414 8.70508 9.5742C8.70508 8.58613 9.39803 7.83398 10.4557 7.83398C11.5152 7.83398 12.1672 8.58613 12.1872 9.5742C12.1872 10.5414 11.5152 11.3162 10.4357 11.3162ZM26.9865 17.8452C26.9865 15.2005 24.8432 13.0572 22.1985 13.0572C20.5775 13.0572 19.1472 13.8651 18.281 15.0978V13.0572H14.7989V26.1154H18.281V19.151C18.281 17.7085 19.4502 16.5394 20.8927 16.5394C22.3352 16.5394 23.5043 17.7085 23.5043 19.151V26.1154H26.9865C26.9865 26.1154 26.9865 18.2117 26.9865 17.8452Z" fill="#262626"/>
</svg>
