<svg width="50" height="51" viewBox="0 0 50 51" fill="none" xmlns="http://www.w3.org/2000/svg">
<path d="M24.9769 0C11.1821 0 0 11.1822 0 24.9768C0 37.5003 9.21525 47.8694 21.2353 49.6752C22.4555 49.8588 23.4431 50.1528 24.7144 50.1528C25.8621 50.1528 27.2547 49.8763 28.3625 49.7265C40.5562 48.0743 49.9537 37.6239 49.9537 24.9768C49.9537 11.1822 38.7716 0 24.9769 0Z" fill="#66D6B4"/>
<path d="M24.5263 33.5842C19.6283 33.5842 15.6417 29.5988 15.6417 24.6996C15.6417 19.8004 19.6283 15.8149 24.5263 15.8149C29.4242 15.8149 33.4109 19.8004 33.4109 24.6996C33.4109 29.5988 29.4242 33.5842 24.5263 33.5842ZM24.5263 18.3534C21.027 18.3534 18.1801 21.2003 18.1801 24.6996C18.1801 28.1989 21.027 31.0457 24.5263 31.0457C28.0255 31.0457 30.8725 28.1989 30.8725 24.6996C30.8725 21.2003 28.0255 18.3534 24.5263 18.3534Z" fill="#141C1D"/>
<path d="M34.0221 16.8848C35.0735 16.8848 35.9259 16.0325 35.9259 14.981C35.9259 13.9295 35.0735 13.0771 34.0221 13.0771C32.9706 13.0771 32.1182 13.9295 32.1182 14.981C32.1182 16.0325 32.9706 16.8848 34.0221 16.8848Z" fill="#141C1D"/>
<path d="M32.1154 41H16.8846C11.9866 41 8 37.0147 8 32.1154V16.8846C8 11.9854 11.9866 8 16.8846 8H32.1154C37.0134 8 41 11.9854 41 16.8846V32.1154C41 37.0147 37.0134 41 32.1154 41ZM16.8846 10.5385C13.3853 10.5385 10.5384 13.3854 10.5384 16.8846V32.1154C10.5384 35.6147 13.3853 38.4616 16.8846 38.4616H32.1154C35.6147 38.4616 38.4615 35.6147 38.4615 32.1154V16.8846C38.4615 13.3854 35.6147 10.5385 32.1154 10.5385H16.8846Z" fill="#141C1D"/>
</svg>
