<svg width="52" height="51" viewBox="0 0 52 51" fill="none" xmlns="http://www.w3.org/2000/svg">
<g clip-path="url(#clip0_325_1037)">
<path d="M25.6362 0.84375C11.8398 0.84375 0.65625 12.0273 0.65625 25.8237C0.65625 39.6201 11.8398 50.8036 25.6362 50.8036C39.4326 50.8036 50.6161 39.6201 50.6161 25.8237C50.6161 12.0273 39.4326 0.84375 25.6362 0.84375Z" fill="#66D6B4"/>
<path opacity="0.05" d="M33.1314 39.559V28.318C33.1314 26.9403 32.011 25.82 30.6333 25.82C29.2557 25.82 28.1354 26.9403 28.1354 28.318V39.559H20.6414V18.326H28.1354V19.6087C29.4343 18.7744 30.9481 18.326 32.5068 18.326C36.9833 18.326 40.6253 21.9681 40.6253 26.4445V39.559H33.1314ZM11.8984 39.559V18.326H15.6029C13.456 18.326 11.8984 16.7497 11.8984 14.5777C11.8984 12.407 13.4809 10.832 15.6591 10.832C17.7774 10.832 19.3474 12.3958 19.3924 14.5528C19.3924 16.7435 17.81 18.326 15.6305 18.326H19.3924V39.559H11.8984Z" fill="#66D6B4"/>
<path opacity="0.07" d="M33.7564 38.935V28.3185C33.7564 26.5974 32.3563 25.196 30.6339 25.196C28.9116 25.196 27.5114 26.5974 27.5114 28.3185V38.935H21.2665V18.951H27.5114V20.867C28.8728 19.6467 30.6489 18.951 32.5074 18.951C36.6403 18.951 40.0014 22.3121 40.0014 26.445V38.935H33.7564ZM12.5234 38.935V18.951H18.7684V38.935H12.5234ZM15.6035 17.7021C13.8187 17.7021 12.5234 16.3881 12.5234 14.5783C12.5234 12.7697 13.8424 11.457 15.6596 11.457C17.4532 11.457 18.731 12.7348 18.7684 14.5658C18.7684 16.3881 17.4482 17.7021 15.631 17.7021H15.6035Z" fill="#66D6B4"/>
<path d="M13.1484 19.5759H18.1445V38.3109H13.1484V19.5759ZM15.6314 17.078H15.604C14.1126 17.078 13.1484 15.9664 13.1484 14.5787C13.1484 13.1611 14.1427 12.082 15.6602 12.082C17.1802 12.082 18.1157 13.1611 18.1445 14.5787C18.1445 15.9664 17.1802 17.078 15.6314 17.078ZM39.3773 26.4455C39.3773 22.651 36.3023 19.5759 32.5079 19.5759C30.1823 19.5759 28.1301 20.735 26.8874 22.5036V19.5759H21.8914V38.3109H26.8874V28.319C26.8874 26.2494 28.5648 24.572 30.6344 24.572C32.704 24.572 34.3814 26.2494 34.3814 28.319V38.3109H39.3773C39.3773 38.3109 39.3773 26.9713 39.3773 26.4455Z" fill="#141C1D"/>
</g>
<defs>
<clipPath id="clip0_325_1037">
<rect width="50.6719" height="50.6719" fill="white" transform="translate(0.65625 0.328125)"/>
</clipPath>
</defs>
</svg>
