<svg width="252" height="85" viewBox="0 0 252 85" fill="none" xmlns="http://www.w3.org/2000/svg">
<path d="M55.1163 12L11 56.3822L114.679 56.5946L124.2 67H183.868L194.342 55.9575H222.166L252 26.0154L244.171 18.2645H118.276L112.14 12H55.1163Z" fill="#88A8D6" fill-opacity="0.3"/>
<path d="M109.326 31.476V45H106.47V31.476H102.291V28.62H113.505V31.476H109.326ZM122.698 45H114.571V28.62H122.572V31.476H117.427V35.277H121.858V38.112H117.427V42.144H122.698V45ZM133.286 29.355C133.482 29.047 133.72 28.83 134 28.704C134.294 28.564 134.602 28.494 134.924 28.494C135.288 28.494 135.575 28.627 135.785 28.893C136.009 29.145 136.121 29.488 136.121 29.922V45H133.286V33.933L126.272 45H122.87L133.286 29.355ZM147.274 29.355C147.47 29.047 147.715 28.83 148.009 28.704C148.303 28.564 148.604 28.494 148.912 28.494C149.276 28.494 149.57 28.627 149.794 28.893C150.018 29.145 150.13 29.488 150.13 29.922V39.897L157.144 29.355C157.34 29.047 157.578 28.83 157.858 28.704C158.152 28.564 158.46 28.494 158.782 28.494C159.146 28.494 159.44 28.627 159.664 28.893C159.888 29.145 160 29.488 160 29.922V45H157.144V33.933L150.76 44.013C150.522 44.391 150.263 44.65 149.983 44.79C149.703 44.93 149.416 45 149.122 45C148.87 45 148.632 44.958 148.408 44.874C148.184 44.776 147.988 44.643 147.82 44.475C147.652 44.307 147.519 44.111 147.421 43.887C147.323 43.663 147.274 43.411 147.274 43.131V33.933L140.26 45H136.858L147.274 29.355Z" fill="white"/>
<path d="M29.2211 76.9697L55.4423 50.842H105.77L115.603 60.8104H175.446L186.125 50.0025H213.509L242.902 20.7269L235.818 13.4867H110.422L103.444 6.77118H47.1953L3 50.6321H46.5609M29.2211 76.9697V84H21.9258V76.9697H29.2211ZM24.9919 20.0973L44.1291 1H85.4698M243.854 42.4475L225.245 60.8104H198.813" stroke="url(#paint0_linear_1137_9)" stroke-width="2"/>
<defs>
<linearGradient id="paint0_linear_1137_9" x1="-510.924" y1="42.5003" x2="473.97" y2="30.2509" gradientUnits="userSpaceOnUse">
<stop stop-color="#65CFB4"/>
<stop offset="1" stop-color="#5CA7CC"/>
</linearGradient>
</defs>
</svg>
