<svg width="950" height="534" viewBox="0 0 950 534" fill="none" xmlns="http://www.w3.org/2000/svg">
<g clip-path="url(#clip0_1148_101)">
<rect width="950" height="534" rx="100" fill="white"/>
<rect width="950" height="534" rx="100" fill="#3D4B49"/>
<g opacity="0.8">
<line x1="-2" y1="21.1719" x2="957" y2="21.1719" stroke="white" stroke-opacity="0.1"/>
<line x1="-2" y1="95.9102" x2="957" y2="95.9102" stroke="white" stroke-opacity="0.1"/>
<line x1="-2" y1="169.074" x2="957" y2="169.074" stroke="white" stroke-opacity="0.1"/>
<line x1="-2" y1="243.023" x2="957" y2="243.023" stroke="white" stroke-opacity="0.1"/>
<line x1="-2" y1="316.188" x2="957" y2="316.188" stroke="white" stroke-opacity="0.1"/>
<line x1="-2" y1="390.141" x2="957" y2="390.141" stroke="white" stroke-opacity="0.1"/>
<line x1="-2" y1="463.305" x2="957" y2="463.305" stroke="white" stroke-opacity="0.1"/>
<line x1="69.9368" y1="611.582" x2="70.7241" y2="-198.608" stroke="white" stroke-opacity="0.1"/>
<line x1="144.736" y1="678.508" x2="144.736" y2="-198.608" stroke="white" stroke-opacity="0.1"/>
<line x1="217.96" y1="739.922" x2="217.96" y2="-198.607" stroke="white" stroke-opacity="0.1"/>
<line x1="292.759" y1="759.605" x2="292.759" y2="-198.607" stroke="white" stroke-opacity="0.1"/>
<line x1="365.983" y1="759.605" x2="365.983" y2="-198.607" stroke="white" stroke-opacity="0.1"/>
<line x1="439.994" y1="759.605" x2="439.994" y2="-198.607" stroke="white" stroke-opacity="0.1"/>
<line x1="513.218" y1="759.605" x2="513.218" y2="-198.607" stroke="white" stroke-opacity="0.1"/>
<line x1="587.23" y1="759.605" x2="587.23" y2="-198.607" stroke="white" stroke-opacity="0.1"/>
<line x1="660.454" y1="759.605" x2="660.454" y2="-198.607" stroke="white" stroke-opacity="0.1"/>
<line x1="735.253" y1="759.605" x2="735.253" y2="-198.607" stroke="white" stroke-opacity="0.1"/>
<path d="M808.583 759.605V-132.076" stroke="white" stroke-opacity="0.1"/>
<path d="M882.595 759.605V-73.8112" stroke="white" stroke-opacity="0.1"/>
</g>
<g opacity="0.65">
<path d="M864.74 480.187L948.315 370.286L1001.47 380.839L964.551 396.835L964.218 440.54L864.74 480.187Z" fill="#AFBEBF"/>
<path d="M1314.25 518.063L1277.58 513.909L1207.64 341.53L1251.31 285.374L1296.92 328.726L1245.22 350.418L1314.25 518.063Z" fill="#BFB460"/>
<path d="M973.427 207.933L946.038 247.066L942.077 248.594L891.497 117.827L921.774 80.2991L973.427 207.933Z" fill="#BFB460"/>
<path d="M905.496 34.6361L851.276 56.2939L813.844 -37.3317L905.496 34.6361Z" fill="#AFBEBF"/>
<path d="M1001.47 380.839L1075.47 396.221L1176.73 266.431L1170.99 252.35L1060.35 299.522L1054.26 358.025L1001.47 380.839Z" fill="#65CEB4"/>
<path d="M1170.99 252.35L1060.35 299.522L1071.1 197.356L1137.78 170.853L1170.99 252.35Z" fill="#86B1B2"/>
<path d="M942.077 248.594L973.427 207.933L1060.62 172.912L1071.1 197.356L942.077 248.594Z" fill="#65CEB4"/>
<path d="M964.218 440.54L964.551 396.835L1001.47 380.839L1075.47 396.221L964.218 440.54Z" fill="#AFBEBF"/>
<path d="M833.052 140.437L891.497 117.827L921.774 80.2991L954.193 68.3027L916.694 30.2268L851.276 56.2939L805.707 118.187L872.521 91.0654L833.052 140.437Z" fill="#7C455F"/>
<path d="M1283.47 684.741L1217.76 521.774L1114.05 562.372L1098.47 526.899L1121.93 498.95L1130.5 517.862L1258.88 467.196L1277.58 513.909L1314.34 517.953L1352.03 608.332L1443.52 620.75L1283.47 684.741Z" fill="#86B1B2"/>
<path d="M1075.47 396.221L1176.73 266.431L1207.64 341.53L1075.47 396.221Z" fill="#7C455F"/>
<path d="M1045.05 306.077L942.077 248.594L1071.1 197.356L1060.35 299.522L1045.05 306.077Z" fill="#E6FFFF"/>
<path d="M837.01 411.289L948.315 370.286L864.74 480.187L837.01 411.289Z" fill="#86B1B2"/>
<path d="M1207.64 341.53L1170.99 252.35L1236.28 304.679L1207.64 341.53Z" fill="#7C455F"/>
<path d="M976.927 335.048L942.077 248.594L1045.05 306.077L976.927 335.048Z" fill="#AFBEBF"/>
<path d="M1342.34 363.746L1245.22 350.418L1324.17 317.279L1342.34 363.746Z" fill="#7C455F"/>
<path d="M833.052 140.437L882.378 269.827L942.077 248.594L891.497 117.827L833.052 140.437Z" fill="#991951"/>
<path d="M1001.47 380.839L910.235 420.415L948.315 370.286L1001.47 380.839Z" fill="#65CEB4"/>
<path d="M1130.5 517.862L1075.47 396.221L1207.64 341.53L1258.88 467.196L1130.5 517.862Z" fill="#991951"/>
<path d="M1352.03 608.332L1301.04 485.96L1437.17 431.553L1520.52 631.285L1352.03 608.332Z" fill="#FFDC0D"/>
<path d="M770.132 166.339L805.707 118.187L876.994 88.6785L833.052 140.437L770.132 166.339Z" fill="#7C455F"/>
<path d="M1060.62 172.912L973.427 207.933L921.774 80.2991L1008.27 48.1689L1060.62 172.912Z" fill="#FFDC0D"/>
<path d="M1071.1 197.356L1060.62 172.912L1128.38 147.099L1137.78 170.853L1071.1 197.356Z" fill="#AFBEBF"/>
<path d="M770.132 166.339L758.478 137.492L805.707 118.187L770.132 166.339Z" fill="#86B1B2"/>
<path d="M1301.04 485.96L1245.22 350.418L1413.02 373.545L1437.17 431.553L1301.04 485.96Z" fill="#FFDC0D"/>
<path d="M788.632 288.841L809.078 262.822L815.013 277.788L788.632 288.841Z" fill="#7C455F"/>
<path d="M837.01 411.289L809.741 342.947L948.315 370.286L837.01 411.289Z" fill="#AFBEBF"/>
<path d="M948.315 370.286L1054 332.193L1045.05 306.077L976.927 335.048L948.315 370.286Z" fill="#86B1B2"/>
<path d="M793.138 301.745L882.378 269.827L836.328 139.083L770.132 166.339L815.013 277.788L788.632 288.841L793.138 301.745Z" fill="#991951"/>
<path d="M948.315 370.286L1001.47 380.839L1054.26 358.025L1060.35 299.522L1045.05 306.077L1054 332.193L948.315 370.286Z" fill="#AFBEBF"/>
<path d="M809.741 342.947L793.138 301.745L942.077 248.594L976.927 335.048L948.315 370.286L809.741 342.947Z" fill="#65CEB4"/>
<path d="M758.478 137.492L805.707 118.187L851.276 56.2939L765.221 -159.25L678.195 -54.3154L758.478 137.492Z" fill="#86B1B2"/>
<path d="M1057.09 331.059L1054 332.193L1045.05 306.077L1060.35 299.522L1057.09 331.059Z" fill="#86B1B2"/>
<path d="M1018.79 746.969L1058.82 695.324L1120.74 671.339L1081.17 722.632L1018.79 746.969Z" fill="#7C455F"/>
<path d="M1114.37 771.227L1156.99 716.59L1265.7 673.85L1223.62 728.026L1114.37 771.227Z" fill="#86B1B2"/>
<path d="M951.751 675.605L966.402 657.447C966.402 657.447 1075.95 613.209 1074 615.63C1073.91 615.74 1057.66 635.879 1057.66 635.879L951.751 675.605Z" fill="#7C455F"/>
<path d="M1057.77 635.968L1087.41 596.294L1114.05 562.372L1217.76 521.774L1161.24 593.181L1057.77 635.968Z" fill="#65CEB4"/>
<path d="M1057.77 635.968L1114.05 562.372L1078.95 576.565L1057.77 635.968Z" fill="#7C455F"/>
<path d="M912.493 789.654L969.453 718.602L1074.62 675.734L1018.79 746.969L912.493 789.654Z" fill="#86B1B2"/>
<path d="M913.272 868.055L934.628 841.134L912.493 789.654L892.245 815.651L913.272 868.055Z" fill="#AFBEBF"/>
<path d="M1105.77 784.819L1081.17 722.632L1120.74 671.339L1146.46 732.802L1105.77 784.819Z" fill="#BFB460"/>
<path d="M1189.06 716.303L1164.22 654.645L1179.03 636.067L1203.71 698.144L1189.06 716.303Z" fill="#BFB460"/>
<path d="M1056.88 525.682L1108.56 468.172L1121.93 498.95L1056.88 525.682Z" fill="#991951"/>
<path d="M1059.28 694.973L1074.33 675.866L1178.85 636.288L1164.22 654.645L1059.28 694.973Z" fill="#7C455F"/>
<path d="M934.628 841.134L912.493 789.654L1018.79 746.969L1033.33 783.961L1017.17 803.991C1017.17 803.991 991.941 813.614 991.408 814.274C990.876 814.934 986.369 820.746 986.369 820.746L934.628 841.134Z" fill="#E6FFFF"/>
<path d="M1040.43 800.413L1027.96 813.611L1069.52 908.206L1265 832.1L1223.62 728.026L1117.27 770.114L1105.63 784.531L1102.68 775.789L1040.43 800.413Z" fill="#E6FFFF"/>
<path d="M951.751 675.605L969.453 718.602L1074.62 675.734L1057.77 635.968L951.751 675.605Z" fill="#AFBEBF"/>
<path d="M951.751 675.605L966.402 657.447L941.189 595.124L926.382 613.702L951.751 675.605Z" fill="#BFB460"/>
<path d="M1049.3 588.973L1024.35 527.226L1071.75 508.607L1056.88 525.682L1078.95 576.565L1049.3 588.973Z" fill="#991951"/>
<path d="M1203.71 698.144L1161.41 592.961L1217.76 521.774L1283.47 684.741L1272.01 689.481L1265.7 673.85L1203.71 698.144Z" fill="#AFBEBF"/>
<path d="M1146.42 732.404L1120.74 671.339L1164.22 654.645L1189.06 716.303L1146.42 732.404Z" fill="#FFDC0D"/>
<path d="M1057.77 635.968L1074.62 675.734L1114.85 660.594L1097.56 619.566L1057.77 635.968Z" fill="#86B1B2"/>
<path d="M966.402 657.447L941.189 595.124L984.141 579.091L1009.82 640.156L966.402 657.447Z" fill="#FFDC0D"/>
<path d="M1009.82 640.156L1049.3 588.973L1078.95 576.565L1087.68 596.87L1073.2 615.714L1009.82 640.156Z" fill="#7C455F"/>
<path d="M1043.27 809.066L1018.88 746.858L1081.26 722.522C1081.26 722.522 1106.15 783.672 1105.72 784.421C1105.3 785.17 1043.27 809.066 1043.27 809.066Z" fill="#991951"/>
<path d="M1114.85 660.594C1114.63 660.416 1097.47 619.676 1097.47 619.676L1161.41 592.961L1178.85 636.288L1114.85 660.594Z" fill="#E6FFFF"/>
<path d="M1009.82 640.156L984.052 579.201L1024.35 527.226L1049.3 588.973L1009.82 640.156Z" fill="#BFB460"/>
<path d="M1078.95 576.565L1056.88 525.682L1121.93 498.95L1098.47 526.899L1114.05 562.372L1078.95 576.565Z" fill="#991951"/>
<path d="M1265 832.1L1223.62 728.026L1265.7 673.85L1307.79 779.055L1265 832.1Z" fill="#65CEB4"/>
<path d="M989.664 1054.54L942.536 940.915L990.052 921.478L1001.8 948.404L979.806 956.275L1000.2 1007.44L989.664 1054.54Z" fill="#E6FFFF"/>
<path d="M962.827 877.884C962.76 878.193 955.923 886.667 955.923 886.667L1007.95 867.053L1036.52 830.511L1003.99 844.231L983.919 869.103L962.827 877.884Z" fill="#86B1B2"/>
<path d="M1079.72 898.268L1058.72 846.064L1087.6 810.496L1115.26 880.608L1110.24 887.279L1079.72 898.268Z" fill="#65CEB4"/>
<path d="M913.272 868.055L934.628 841.134L986.369 820.746L972.422 839.836L951.333 847.711L943.878 856.049L913.272 868.055Z" fill="#86B1B2"/>
<path d="M979.184 957.045L1089.43 914.644L1110.33 887.169L1069.55 901.865L1002.36 927.415L979.184 957.045Z" fill="#86B1B2"/>
<path d="M1016.45 887.18L988.503 922.045L1020.02 910.044L1040.11 884.466L1059.69 877.556L1067.77 867.541L1016.45 887.18Z" fill="#7C455F"/>
<path d="M995.28 1029.09L1000.2 1007.44L1004.6 1017.53L995.28 1029.09Z" fill="#AFBEBF"/>
<path d="M942.536 940.915L913.272 868.055L943.878 856.049L965.282 908.211L942.536 940.915Z" fill="#E6FFFF"/>
<path d="M1007.66 867.185L1035.95 830.774C1035.95 830.774 1087.86 810.166 1087.6 810.496C1087.33 810.826 1059.4 845.89 1059.4 845.89L1007.66 867.185Z" fill="#AFBEBF"/>
<path d="M1021.8 836.804L1011.31 811.255L1033.33 783.961L1039.99 800.963L1027.96 813.611L1035.86 830.884L1021.8 836.804Z" fill="#AFBEBF"/>
<path d="M1004.6 1017.53L1000.2 1007.44L1018.63 1000.15L1004.6 1017.53Z" fill="#AFBEBF"/>
<path d="M942.536 940.915L988.503 922.045L1016.45 887.18L965.282 908.211L942.536 940.915Z" fill="#AFBEBF"/>
<path d="M1033.45 940.514L1053.25 915.972L1040.11 884.466L1020.02 910.044L1033.45 940.514Z" fill="#BFB460"/>
<path d="M1080.01 898.137L1072.99 907.737L1059.69 877.556L1067.68 867.651L1080.01 898.137Z" fill="#BFB460"/>
<path d="M1007.66 867.185L1016.36 887.29L1067.68 867.651L1059.29 845.801L1007.66 867.185Z" fill="#E6FFFF"/>
<path d="M956.3 886.426L943.878 856.049L950.893 847.355L963.026 877.863L956.3 886.426Z" fill="#AFBEBF"/>
<path d="M1004.3 844.299L991.764 813.834L971.871 839.392L983.895 869.81L1004.3 844.299Z" fill="#AFBEBF"/>
<path d="M1110.98 963.47L1000.2 1007.44L979.362 956.825L999.545 948.946L1033.63 940.294L1040.64 931.599L1091.1 913.26L1110.98 963.47Z" fill="#65CEB4"/>
<path d="M965.193 908.322L956.321 886.624L1007.66 867.185L1016.36 887.29L965.193 908.322Z" fill="#65CEB4"/>
<path d="M991.764 813.834C991.476 813.965 1004.3 844.299 1004.3 844.299L1021.91 836.893L1011.4 811.144L1017.17 803.991L991.764 813.834Z" fill="#65CEB4"/>
<path d="M1053.25 915.972L1040.11 884.466L1059.69 877.556L1072.99 907.737L1053.25 915.972Z" fill="#FFDC0D"/>
<path d="M1001.01 952.311L1033.45 940.514L1020.02 910.044L988.503 922.045L1001.01 952.311Z" fill="#991951"/>
<path d="M963.026 877.863L984.072 869.59L971.871 839.392L950.893 847.355L963.026 877.863Z" fill="#E6FFFF"/>
<path d="M386.76 560.343L423.429 564.497L493.484 736.965L449.704 793.033L404.202 749.77L455.904 728.078L386.76 560.343Z" fill="#BFB460"/>
<path d="M727.698 870.562L755.086 831.429L759.047 829.901L809.627 960.668L779.35 998.196L727.698 870.562Z" fill="#BFB460"/>
<path d="M795.518 1043.77L849.937 1022.09L887.28 1115.83L795.518 1043.77Z" fill="#AFBEBF"/>
<path d="M699.655 697.656L625.546 682.185L524.287 811.976L530.026 826.057L640.669 778.885L646.867 720.47L699.655 697.656Z" fill="#65CEB4"/>
<path d="M530.026 826.057L640.669 778.885L630.115 881.029L563.347 907.642L530.026 826.057Z" fill="#86B1B2"/>
<path d="M759.047 829.901L727.698 870.562L640.392 905.495L630.115 881.029L759.047 829.901Z" fill="#65CEB4"/>
<path d="M868.072 938.058L809.627 960.668L779.35 998.196L746.932 1010.19L784.519 1048.16L849.937 1022.09L895.506 960.198L828.493 987.341L868.072 938.058Z" fill="#7C455F"/>
<path d="M625.546 682.185L524.287 811.976L493.484 736.965L625.546 682.185Z" fill="#7C455F"/>
<path d="M656.073 772.418L759.047 829.901L630.115 881.029L640.669 778.885L656.073 772.418Z" fill="#E6FFFF"/>
<path d="M864.225 667.295L752.809 708.21L836.604 598.486L864.225 667.295Z" fill="#86B1B2"/>
<path d="M493.484 736.965L530.026 826.057L464.734 773.727L493.484 736.965Z" fill="#7C455F"/>
<path d="M724.087 743.359L759.047 829.901L656.073 772.418L724.087 743.359Z" fill="#AFBEBF"/>
<path d="M358.672 714.66L455.904 728.078L376.958 761.217L358.672 714.66Z" fill="#7C455F"/>
<path d="M869.799 937.271L818.725 808.469L759.047 829.901L809.627 960.668L869.799 937.271Z" fill="#991951"/>
<path d="M349.095 470.163L399.971 592.446L263.955 646.942L180.605 447.21L349.095 470.163Z" fill="#FFDC0D"/>
<path d="M930.882 912.067L895.506 960.198L824.773 989.245L868.072 938.058L930.882 912.067Z" fill="#7C455F"/>
<path d="M640.392 905.495L727.698 870.562L779.35 998.196L692.739 1030.24L640.392 905.495Z" fill="#FFDC0D"/>
<path d="M912.493 789.654L892.505 817.133L886.463 801.173L912.493 789.654Z" fill="#7C455F"/>
<path d="M630.115 881.029L640.392 905.495L572.742 931.396L563.347 907.642L630.115 881.029Z" fill="#AFBEBF"/>
<path d="M930.882 912.067L942.536 940.915L895.506 960.198L930.882 912.067Z" fill="#86B1B2"/>
<path d="M399.971 592.446L455.904 728.078L287.99 704.862L263.955 646.942L399.971 592.446Z" fill="#FFDC0D"/>
<path d="M864.004 667.117L891.273 735.46L752.809 708.21L864.004 667.117Z" fill="#AFBEBF"/>
<path d="M752.809 708.21L647.128 746.302L656.073 772.418L724.087 743.359L752.809 708.21Z" fill="#86B1B2"/>
<path d="M907.986 776.75L818.725 808.469L868.072 938.058L930.882 912.067L886.463 801.173L912.493 789.654L907.986 776.75Z" fill="#991951"/>
<path d="M752.809 708.21L699.655 697.656L646.867 720.47L640.669 778.885L656.073 772.418L647.128 746.302L752.809 708.21Z" fill="#AFBEBF"/>
<path d="M891.273 735.46L907.986 776.75L759.047 829.901L724.087 743.359L752.809 708.21L891.273 735.46Z" fill="#65CEB4"/>
<path d="M942.536 940.915L895.506 960.198L849.937 1022.09L935.793 1237.66L1024.49 1135.16L942.536 940.915Z" fill="#86B1B2"/>
<path d="M644.03 747.436L647.128 746.302L656.073 772.418L640.669 778.885L644.03 747.436Z" fill="#86B1B2"/>
<path d="M682.337 331.527L642.197 383.082L580.477 407.046L619.842 355.774L682.337 331.527Z" fill="#7C455F"/>
<path d="M586.757 307.268L544.021 361.816L435.317 404.556L477.499 350.469L586.757 307.268Z" fill="#86B1B2"/>
<path d="M749.263 402.801L734.612 420.959C734.612 420.959 625.064 465.198 627.017 462.777C627.106 462.667 643.354 442.527 643.354 442.527L749.263 402.801Z" fill="#7C455F"/>
<path d="M643.354 442.527L613.71 482.201L586.959 516.034L483.258 556.633L539.778 485.225L643.354 442.527Z" fill="#65CEB4"/>
<path d="M643.354 442.527L586.959 516.034L622.258 501.82L643.354 442.527Z" fill="#7C455F"/>
<path d="M788.632 288.841L731.671 359.893L626.392 402.672L682.337 331.527L788.632 288.841Z" fill="#86B1B2"/>
<path d="M787.852 210.44L766.496 237.361L788.632 288.841L808.879 262.844L787.852 210.44Z" fill="#AFBEBF"/>
<path d="M595.337 293.477L619.842 355.774L580.477 407.046L554.664 345.693L595.337 293.477Z" fill="#BFB460"/>
<path d="M511.954 362.103L536.794 423.761L522.097 442.428L497.304 380.262L511.954 362.103Z" fill="#BFB460"/>
<path d="M641.732 383.434L626.769 402.43L522.275 442.208L536.794 423.761L641.732 383.434Z" fill="#7C455F"/>
<path d="M766.496 237.361L788.632 288.841L682.337 331.527L667.796 294.534L683.956 274.504C683.956 274.504 709.183 264.882 709.716 264.221C710.249 263.561 714.755 257.749 714.755 257.749L766.496 237.361Z" fill="#E6FFFF"/>
<path d="M660.695 278.082L673.051 264.796L631.491 170.2L436.216 246.285L477.499 350.469L583.748 308.292L595.38 293.875L598.442 302.706L660.695 278.082Z" fill="#E6FFFF"/>
<path d="M749.263 402.801L731.671 359.893L626.392 402.672L643.354 442.527L749.263 402.801Z" fill="#AFBEBF"/>
<path d="M749.263 402.801L734.612 420.959L759.935 483.371L774.632 464.704L749.263 402.801Z" fill="#BFB460"/>
<path d="M497.304 380.262L539.71 485.534L483.258 556.633L417.544 393.665L429.119 389.014L435.317 404.556L497.304 380.262Z" fill="#AFBEBF"/>
<path d="M554.597 346.002L580.477 407.046L536.794 423.761L511.954 362.103L554.597 346.002Z" fill="#FFDC0D"/>
<path d="M643.354 442.527L626.392 402.672L586.272 417.901L603.54 458.73L643.354 442.527Z" fill="#86B1B2"/>
<path d="M734.612 420.959L759.935 483.371L716.984 499.404L691.302 438.339L734.612 420.959Z" fill="#FFDC0D"/>
<path d="M691.302 438.339L651.827 489.522L622.258 501.82L613.337 481.536L627.813 462.692L691.302 438.339Z" fill="#7C455F"/>
<path d="M657.942 269.319L682.337 331.527L619.842 355.774C619.842 355.774 594.957 294.624 595.38 293.875C595.802 293.126 657.942 269.319 657.942 269.319Z" fill="#991951"/>
<path d="M788.632 288.841L864.74 480.187L856.262 490.244L836.352 440.74L774.632 464.704L731.671 359.893L788.632 288.841Z" fill="#E6FFFF"/>
<path d="M586.272 417.901C586.493 418.079 603.65 458.819 603.65 458.819L539.71 485.534L522.275 442.208L586.272 417.901Z" fill="#E6FFFF"/>
<path d="M691.302 438.339L717.072 499.294L676.666 551.18L651.827 489.522L691.302 438.339Z" fill="#BFB460"/>
<path d="M436.216 246.285L477.499 350.469L435.317 404.556L393.33 299.44L436.216 246.285Z" fill="#65CEB4"/>
<path d="M711.461 23.9553L758.478 137.492L711.051 156.818L699.412 129.981L721.318 122.221L700.906 70.8588L711.461 23.9553Z" fill="#E6FFFF"/>
<path d="M738.187 200.523C738.254 200.214 745.091 191.74 745.091 191.74L693.066 211.353L664.493 247.895L697.028 234.175L717.095 209.303L738.187 200.523Z" fill="#86B1B2"/>
<path d="M621.399 180.227L642.295 232.342L613.527 268L585.867 197.887L590.886 191.216L621.399 180.227Z" fill="#65CEB4"/>
<path d="M787.852 210.44L766.496 237.361L714.755 257.749L728.702 238.659L749.791 230.784L757.335 222.336L787.852 210.44Z" fill="#86B1B2"/>
<path d="M721.94 121.45L611.691 163.851L590.687 191.237L631.468 176.541L698.762 151.08L721.94 121.45Z" fill="#86B1B2"/>
<path d="M684.563 191.226L712.6 156.251L681.109 168.451L661.018 194.029L641.435 200.94L633.355 210.954L684.563 191.226Z" fill="#7C455F"/>
<path d="M705.734 49.3162L700.906 70.8588L696.411 60.8717L705.734 49.3162Z" fill="#AFBEBF"/>
<path d="M758.478 137.492L787.852 210.44L757.335 222.336L735.931 170.174L758.478 137.492Z" fill="#E6FFFF"/>
<path d="M693.353 211.222L665.069 247.632C665.069 247.632 613.151 268.241 613.417 267.911C613.683 267.58 641.61 232.516 641.61 232.516L693.353 211.222Z" fill="#AFBEBF"/>
<path d="M679.212 241.602L689.816 267.241L667.796 294.534L661.139 277.532L673.051 264.796L665.268 247.611L679.212 241.602Z" fill="#AFBEBF"/>
<path d="M696.411 60.8717L700.906 70.8588L682.383 78.26L696.411 60.8717Z" fill="#AFBEBF"/>
<path d="M758.478 137.492L712.6 156.251L684.563 191.226L735.931 170.174L758.478 137.492Z" fill="#AFBEBF"/>
<path d="M667.672 137.981L647.871 162.523L661.018 194.029L681.109 168.451L667.672 137.981Z" fill="#BFB460"/>
<path d="M621.112 180.358L628.019 170.669L641.435 200.94L633.444 210.844L621.112 180.358Z" fill="#BFB460"/>
<path d="M693.353 211.222L684.652 191.116L633.444 210.844L641.72 232.605L693.353 211.222Z" fill="#E6FFFF"/>
<path d="M744.803 191.871L757.335 222.336L750.231 231.14L737.988 200.544L744.803 191.871Z" fill="#AFBEBF"/>
<path d="M696.829 234.196L709.361 264.661L729.253 239.104L717.23 208.685L696.829 234.196Z" fill="#AFBEBF"/>
<path d="M590.032 114.936L700.906 70.8588L721.851 121.56L701.469 129.461L667.494 138.202L660.48 146.896L609.918 165.146L590.032 114.936Z" fill="#65CEB4"/>
<path d="M735.931 170.174L744.803 191.871L693.353 211.222L684.652 191.116L735.931 170.174Z" fill="#65CEB4"/>
<path d="M709.361 264.661C709.648 264.53 696.829 234.196 696.829 234.196L679.212 241.602L689.727 267.351L683.956 274.504L709.361 264.661Z" fill="#65CEB4"/>
<path d="M647.871 162.523L661.018 194.029L641.435 200.94L628.019 170.669L647.871 162.523Z" fill="#FFDC0D"/>
<path d="M700.09 125.985L667.672 137.981L681.109 168.451L712.6 156.251L700.09 125.985Z" fill="#991951"/>
<path d="M737.988 200.544L716.942 208.817L729.253 239.104L750.231 231.14L737.988 200.544Z" fill="#E6FFFF"/>
<path d="M836.604 598.486L753.03 708.388L699.875 697.834L736.218 682.1L736.441 638.307L836.604 598.486Z" fill="#AFBEBF"/>
<path d="M644.241 552.813L592.566 610.323L579.196 579.545L644.241 552.813Z" fill="#991951"/>
<path d="M836.352 440.74L794.081 494.937C794.081 494.937 687.609 537.843 687.79 536.717C688.081 535.679 716.784 499.425 716.784 499.425L759.736 483.392L774.543 464.814L836.352 440.74Z" fill="#AFBEBF"/>
<path d="M856.262 490.244L878.296 545.458L844.862 588.252L822.185 533.609L856.262 490.244Z" fill="#65CEB4"/>
<path d="M736.797 637.866L736.573 681.66L699.655 697.656L625.546 682.185L736.797 637.866Z" fill="#AFBEBF"/>
<path d="M417.544 393.665L483.258 556.633L586.959 516.034L602.655 551.596L579.196 579.545L570.623 560.634L442.135 611.211L423.429 564.497L386.671 560.453L349.095 470.163L257.605 457.746L417.544 393.665Z" fill="#86B1B2"/>
<path d="M651.827 489.522L676.666 551.18L629.373 569.888L644.241 552.813L622.258 501.82L651.827 489.522Z" fill="#991951"/>
<path d="M864.662 637.666L906.933 583.469C906.933 583.469 1013.41 540.564 1013.22 541.69C1012.93 542.727 984.229 578.981 984.229 578.981L941.189 595.124L926.382 613.702L864.662 637.666Z" fill="#AFBEBF"/>
<path d="M836.352 440.74L856.262 490.244L822.718 532.948L844.862 588.252L836.604 598.486L794.17 494.827L836.352 440.74Z" fill="#86B1B2"/>
<path d="M622.258 501.82L644.241 552.813L579.196 579.545L602.655 551.596L586.959 516.034L622.258 501.82Z" fill="#991951"/>
<path d="M864.662 637.666L844.862 588.252L878.296 545.458L856.262 490.244L864.74 480.187L906.844 583.579L864.662 637.666Z" fill="#86B1B2"/>
<path d="M699.655 697.656L791.642 657.598L752.809 708.21L699.655 697.656Z" fill="#65CEB4"/>
<path d="M570.623 560.634L625.546 682.185L493.484 736.965L442.135 611.211L570.623 560.634Z" fill="#991951"/>
<path d="M912.493 789.654L836.16 599.037L844.862 588.252L864.662 637.666L926.382 613.702L969.453 718.602L912.493 789.654Z" fill="#E6FFFF"/>
<path d="M794.39 495.005L836.604 598.486L625.766 682.363L592.786 610.501L629.594 570.066L676.886 551.358L688.209 536.873L794.39 495.005Z" fill="#E6FFFF"/>
<path d="M906.844 583.579L864.74 480.187L1075.47 396.221L1108.56 468.172L1071.75 508.607L1024.35 527.226L1013.14 541.8L906.844 583.579Z" fill="#E6FFFF"/>
<path d="M864.74 480.187L948.315 370.286L1001.47 380.839L964.551 396.835L964.218 440.54L864.74 480.187Z" fill="#536D7F"/>
<path d="M1314.25 518.063L1277.58 513.909L1207.64 341.53L1251.31 285.374L1296.92 328.726L1245.22 350.418L1314.25 518.063Z" fill="#F29E30"/>
<path d="M973.427 207.933L946.038 247.066L942.077 248.594L891.497 117.827L921.774 80.2991L973.427 207.933Z" fill="#536D7F"/>
<path d="M905.496 34.6361L851.276 56.2939L813.844 -37.3317L905.496 34.6361Z" fill="#2E3E4C"/>
<path d="M1001.47 380.839L1075.47 396.221L1176.73 266.431L1170.99 252.35L1060.35 299.522L1054.26 358.025L1001.47 380.839Z" fill="#002147"/>
<path d="M1170.99 252.35L1060.35 299.522L1071.1 197.356L1137.78 170.853L1170.99 252.35Z" fill="#73ACE5"/>
<path d="M942.077 248.594L973.427 207.933L1060.62 172.912L1071.1 197.356L942.077 248.594Z" fill="#73ACE5"/>
<path d="M964.218 440.54L964.551 396.835L1001.47 380.839L1075.47 396.221L964.218 440.54Z" fill="#73ACE5"/>
<path d="M833.052 140.437L891.497 117.827L921.774 80.2991L954.193 68.3027L916.694 30.2268L851.276 56.2939L805.707 118.187L872.521 91.0654L833.052 140.437Z" fill="#73ACE5"/>
<path d="M1283.47 684.741L1217.76 521.774L1114.05 562.372L1098.47 526.899L1121.93 498.95L1130.5 517.862L1258.88 467.196L1277.58 513.909L1314.34 517.953L1352.03 608.332L1443.52 620.75L1283.47 684.741Z" fill="#AF8746"/>
<path d="M1075.47 396.221L1176.73 266.431L1207.64 341.53L1075.47 396.221Z" fill="#AF8746"/>
<path d="M1045.05 306.077L942.077 248.594L1071.1 197.356L1060.35 299.522L1045.05 306.077Z" fill="#3F3D56"/>
<path d="M837.01 411.289L948.315 370.286L864.74 480.187L837.01 411.289Z" fill="#3F3D56"/>
<path d="M1207.64 341.53L1170.99 252.35L1236.28 304.679L1207.64 341.53Z" fill="#66553D"/>
<path d="M976.927 335.048L942.077 248.594L1045.05 306.077L976.927 335.048Z" fill="#73ACE5"/>
<path d="M1342.34 363.746L1245.22 350.418L1324.17 317.279L1342.34 363.746Z" fill="#AF8746"/>
<path d="M833.052 140.437L882.378 269.827L942.077 248.594L891.497 117.827L833.052 140.437Z" fill="#002147"/>
<path d="M1001.47 380.839L910.235 420.415L948.315 370.286L1001.47 380.839Z" fill="#002147"/>
<path d="M1130.5 517.862L1075.47 396.221L1207.64 341.53L1258.88 467.196L1130.5 517.862Z" fill="#FFE0B3"/>
<path d="M1352.03 608.332L1301.04 485.96L1437.17 431.553L1520.52 631.285L1352.03 608.332Z" fill="#FFC466"/>
<path d="M770.132 166.339L805.707 118.187L872.521 91.0654L833.052 140.437L770.132 166.339Z" fill="#3F3D56"/>
<path d="M1060.62 172.912L973.427 207.933L921.774 80.2991L1008.27 48.1689L1060.62 172.912Z" fill="#3F3D56"/>
<path d="M1071.1 197.356L1060.62 172.912L1128.38 147.099L1137.78 170.853L1071.1 197.356Z" fill="#2E3E4C"/>
<path d="M770.132 166.339L758.478 137.492L805.707 118.187L770.132 166.339Z" fill="#002147"/>
<path d="M1301.04 485.96L1245.22 350.418L1413.02 373.545L1437.17 431.553L1301.04 485.96Z" fill="#FFE0B3"/>
<path d="M788.632 288.841L809.078 262.822L815.013 277.788L788.632 288.841Z" fill="#002147"/>
<path d="M837.01 411.289L809.741 342.947L948.315 370.286L837.01 411.289Z" fill="#73ACE5"/>
<path d="M948.315 370.286L1054 332.193L1045.05 306.077L976.927 335.048L948.315 370.286Z" fill="#002147"/>
<path d="M793.138 301.745L882.378 269.827L833.052 140.437L770.132 166.339L815.013 277.788L788.632 288.841L793.138 301.745Z" fill="#73ACE5"/>
<path d="M948.315 370.286L1001.47 380.839L1054.26 358.025L1060.35 299.522L1045.05 306.077L1054 332.193L948.315 370.286Z" fill="#536D7F"/>
<path d="M809.741 342.947L793.138 301.745L942.077 248.594L976.927 335.048L948.315 370.286L809.741 342.947Z" fill="#3F3D56"/>
<path d="M758.478 137.492L805.707 118.187L851.276 56.2939L765.221 -159.25L678.195 -54.3154L758.478 137.492Z" fill="#3F3D56"/>
<path d="M1057.09 331.059L1054 332.193L1045.05 306.077L1060.35 299.522L1057.09 331.059Z" fill="#2E3E4C"/>
<path d="M1018.79 746.969L1058.82 695.324L1120.74 671.339L1081.17 722.632L1018.79 746.969Z" fill="#AF8746"/>
<path d="M1114.37 771.227L1156.99 716.59L1265.7 673.85L1223.62 728.026L1114.37 771.227Z" fill="#66553D"/>
<path d="M951.751 675.605L966.402 657.447C966.402 657.447 1075.95 613.209 1074 615.63C1073.91 615.74 1057.66 635.879 1057.66 635.879L951.751 675.605Z" fill="#2E3E4C"/>
<path d="M1097.56 619.566L1087.41 596.294L1114.05 562.372L1217.76 521.774L1161.24 593.181L1097.56 619.566Z" fill="#66553D"/>
<path d="M1057.77 635.968L1114.05 562.372L1097.56 619.566L1057.77 635.968Z" fill="#AF8746"/>
<path d="M912.493 789.654L969.453 718.602L1074.62 675.734L1018.79 746.969L912.493 789.654Z" fill="#2E3E4C"/>
<path d="M913.272 868.055L934.628 841.134L912.493 789.654L892.245 815.651L913.272 868.055Z" fill="#2E3E4C"/>
<path d="M1105.77 784.819L1081.17 722.632L1120.74 671.339L1146.46 732.802L1105.77 784.819Z" fill="#FFE0B3"/>
<path d="M1189.06 716.303L1164.22 654.645L1179.03 636.067L1203.71 698.144L1189.06 716.303Z" fill="#F29E30"/>
<path d="M1056.88 525.682L1108.56 468.172L1121.93 498.95L1056.88 525.682Z" fill="#536D7F"/>
<path d="M1059.28 694.973L1074.33 675.866L1178.85 636.288L1164.22 654.645L1059.28 694.973Z" fill="#66553D"/>
<path d="M934.628 841.134L912.493 789.654L1018.79 746.969L1033.33 783.961L1017.17 803.991C1017.17 803.991 991.941 813.614 991.408 814.274C990.876 814.934 986.369 820.746 986.369 820.746L934.628 841.134Z" fill="#002147"/>
<path d="M1040.43 800.413L1027.96 813.611L1069.52 908.206L1265 832.1L1223.62 728.026L1117.27 770.114L1105.63 784.531L1102.68 775.789L1040.43 800.413Z" fill="#F29E30"/>
<path d="M951.751 675.605L969.453 718.602L1074.62 675.734L1057.77 635.968L951.751 675.605Z" fill="#3F3D56"/>
<path d="M951.751 675.605L966.402 657.447L941.189 595.124L926.382 613.702L951.751 675.605Z" fill="#73ACE5"/>
<path d="M1049.3 588.973L1024.35 527.226L1071.75 508.607L1056.88 525.682L1078.95 576.565L1049.3 588.973Z" fill="#73ACE5"/>
<path d="M1203.71 698.144L1161.41 592.961L1217.76 521.774L1283.47 684.741L1272.01 689.481L1265.7 673.85L1203.71 698.144Z" fill="#FFE0B3"/>
<path d="M1146.42 732.404L1120.74 671.339L1164.22 654.645L1189.06 716.303L1146.42 732.404Z" fill="#FFC466"/>
<path d="M1057.77 635.968L1074.62 675.734L1114.85 660.594L1097.56 619.566L1057.77 635.968Z" fill="#F29E30"/>
<path d="M966.402 657.447L941.189 595.124L984.141 579.091L1009.82 640.156L966.402 657.447Z" fill="#3F3D56"/>
<path d="M1009.82 640.156L1049.3 588.973L1114.05 562.372L1087.68 596.87L1073.2 615.714L1009.82 640.156Z" fill="#536D7F"/>
<path d="M1043.27 809.066L1018.88 746.858L1081.26 722.522C1081.26 722.522 1106.15 783.672 1105.72 784.421C1105.3 785.17 1043.27 809.066 1043.27 809.066Z" fill="#FFC466"/>
<path d="M1114.85 660.594C1114.63 660.416 1097.47 619.676 1097.47 619.676L1161.41 592.961L1178.85 636.288L1114.85 660.594Z" fill="#FFC466"/>
<path d="M1009.82 640.156L984.052 579.201L1024.35 527.226L1049.3 588.973L1009.82 640.156Z" fill="#002147"/>
<path d="M1078.95 576.565L1056.88 525.682L1121.93 498.95L1098.47 526.899L1114.05 562.372L1078.95 576.565Z" fill="#002147"/>
<path d="M1265 832.1L1223.62 728.026L1265.7 673.85L1307.79 779.055L1265 832.1Z" fill="#FFC466"/>
<path d="M989.664 1054.54L942.536 940.915L990.052 921.478L1001.8 948.404L979.806 956.275L1000.2 1007.44L989.664 1054.54Z" fill="#2E3E4C"/>
<path d="M962.827 877.884C962.76 878.193 955.923 886.667 955.923 886.667L1007.95 867.053L1036.52 830.511L1003.99 844.231L983.919 869.103L962.827 877.884Z" fill="#2E3E4C"/>
<path d="M1079.72 898.268L1058.72 846.064L1087.6 810.496L1115.26 880.608L1110.24 887.279L1079.72 898.268Z" fill="#73ACE5"/>
<path d="M913.272 868.055L934.628 841.134L986.369 820.746L972.422 839.836L951.333 847.711L943.878 856.049L913.272 868.055Z" fill="#536D7F"/>
<path d="M979.184 957.045L1089.43 914.644L1110.33 887.169L1069.55 901.865L1002.36 927.415L979.184 957.045Z" fill="#536D7F"/>
<path d="M1016.45 887.18L988.503 922.045L1020.02 910.044L1040.11 884.466L1059.69 877.556L1067.77 867.541L1016.45 887.18Z" fill="#2E3E4C"/>
<path d="M995.28 1029.09L1000.2 1007.44L1004.6 1017.53L995.28 1029.09Z" fill="#536D7F"/>
<path d="M942.536 940.915L913.272 868.055L943.878 856.049L965.282 908.211L942.536 940.915Z" fill="#002147"/>
<path d="M1007.66 867.185L1035.95 830.774C1035.95 830.774 1087.86 810.166 1087.6 810.496C1087.33 810.826 1059.4 845.89 1059.4 845.89L1007.66 867.185Z" fill="#536D7F"/>
<path d="M1021.8 836.804L1011.31 811.255L1033.33 783.961L1039.99 800.963L1027.96 813.611L1035.86 830.884L1021.8 836.804Z" fill="#536D7F"/>
<path d="M1004.6 1017.53L1000.2 1007.44L1018.63 1000.15L1004.6 1017.53Z" fill="#536D7F"/>
<path d="M942.536 940.915L988.503 922.045L1016.45 887.18L965.282 908.211L942.536 940.915Z" fill="#536D7F"/>
<path d="M1033.45 940.514L1053.25 915.972L1040.11 884.466L1020.02 910.044L1033.45 940.514Z" fill="#002147"/>
<path d="M1080.01 898.137L1072.99 907.737L1059.69 877.556L1067.68 867.651L1080.01 898.137Z" fill="#002147"/>
<path d="M1007.66 867.185L1016.36 887.29L1067.68 867.651L1059.29 845.801L1007.66 867.185Z" fill="#3F3D56"/>
<path d="M956.3 886.426L943.878 856.049L950.893 847.355L963.026 877.863L956.3 886.426Z" fill="#73ACE5"/>
<path d="M1004.3 844.299L991.764 813.834L971.871 839.392L983.895 869.81L1004.3 844.299Z" fill="#73ACE5"/>
<path d="M1110.98 963.47L1000.2 1007.44L979.362 956.825L999.545 948.946L1033.63 940.294L1040.64 931.599L1091.1 913.26L1110.98 963.47Z" fill="#002147"/>
<path d="M965.193 908.322L956.321 886.624L1007.66 867.185L1016.36 887.29L965.193 908.322Z" fill="#73ACE5"/>
<path d="M991.764 813.834C991.476 813.965 1004.3 844.299 1004.3 844.299L1021.91 836.893L1011.4 811.144L1017.17 803.991L991.764 813.834Z" fill="#3F3D56"/>
<path d="M1053.25 915.972L1040.11 884.466L1059.69 877.556L1072.99 907.737L1053.25 915.972Z" fill="#3F3D56"/>
<path d="M1001.01 952.311L1033.45 940.514L1020.02 910.044L988.503 922.045L1001.01 952.311Z" fill="#73ACE5"/>
<path d="M963.026 877.863L984.072 869.59L971.871 839.392L950.893 847.355L963.026 877.863Z" fill="#3F3D56"/>
<path d="M386.76 560.343L423.429 564.497L493.484 736.965L449.704 793.033L404.202 749.77L455.904 728.078L386.76 560.343Z" fill="#AF8746"/>
<path d="M727.698 870.562L755.086 831.429L759.047 829.901L809.627 960.668L779.35 998.196L727.698 870.562Z" fill="#536D7F"/>
<path d="M795.518 1043.77L849.937 1022.09L887.28 1115.83L795.518 1043.77Z" fill="#536D7F"/>
<path d="M699.655 697.656L625.546 682.185L524.287 811.976L530.026 826.057L640.669 778.885L646.867 720.47L699.655 697.656Z" fill="#66553D"/>
<path d="M530.026 826.057L640.669 778.885L630.115 881.029L563.347 907.642L530.026 826.057Z" fill="#2E3E4C"/>
<path d="M759.047 829.901L727.698 870.562L640.392 905.495L630.115 881.029L759.047 829.901Z" fill="#2E3E4C"/>
<path d="M868.072 938.058L809.627 960.668L779.35 998.196L746.932 1010.19L784.519 1048.16L849.937 1022.09L895.506 960.198L828.493 987.341L868.072 938.058Z" fill="#2E3E4C"/>
<path d="M625.546 682.185L524.287 811.976L493.484 736.965L625.546 682.185Z" fill="#AF8746"/>
<path d="M656.073 772.418L759.047 829.901L630.115 881.029L640.669 778.885L656.073 772.418Z" fill="#536D7F"/>
<path d="M864.225 667.295L752.809 708.21L836.604 598.486L864.225 667.295Z" fill="#AF8746"/>
<path d="M493.484 736.965L530.026 826.057L464.734 773.727L493.484 736.965Z" fill="#66553D"/>
<path d="M724.087 743.359L759.047 829.901L656.073 772.418L724.087 743.359Z" fill="#73ACE5"/>
<path d="M358.672 714.66L455.904 728.078L376.958 761.217L358.672 714.66Z" fill="#66553D"/>
<path d="M868.072 938.058L818.725 808.469L759.047 829.901L809.627 960.668L868.072 938.058Z" fill="#73ACE5"/>
<path d="M349.095 470.163L399.971 592.446L263.955 646.942L180.605 447.21L349.095 470.163Z" fill="#F29E30"/>
<path d="M930.882 912.067L895.506 960.198L828.493 987.341L868.072 938.058L930.882 912.067Z" fill="#002147"/>
<path d="M640.392 905.495L727.698 870.562L779.35 998.196L692.739 1030.24L640.392 905.495Z" fill="#002147"/>
<path d="M912.493 789.654L892.505 817.133L886.463 801.173L912.493 789.654Z" fill="#536D7F"/>
<path d="M630.115 881.029L640.392 905.495L572.742 931.396L563.347 907.642L630.115 881.029Z" fill="#536D7F"/>
<path d="M930.882 912.067L942.536 940.915L895.506 960.198L930.882 912.067Z" fill="#73ACE5"/>
<path d="M399.971 592.446L455.904 728.078L287.99 704.862L263.955 646.942L399.971 592.446Z" fill="#66553D"/>
<path d="M864.004 667.117L891.273 735.46L752.809 708.21L864.004 667.117Z" fill="#2E3E4C"/>
<path d="M752.809 708.21L647.128 746.302L656.073 772.418L724.087 743.359L752.809 708.21Z" fill="#66553D"/>
<path d="M907.986 776.75L818.725 808.469L868.072 938.058L930.882 912.067L886.463 801.173L912.493 789.654L907.986 776.75Z" fill="#3F3D56"/>
<path d="M752.809 708.21L699.655 697.656L646.867 720.47L640.669 778.885L656.073 772.418L647.128 746.302L752.809 708.21Z" fill="#AF8746"/>
<path d="M891.273 735.46L907.986 776.75L759.047 829.901L724.087 743.359L752.809 708.21L891.273 735.46Z" fill="#002147"/>
<path d="M942.536 940.915L895.506 960.198L849.937 1022.09L935.793 1237.66L1024.49 1135.16L942.536 940.915Z" fill="#002147"/>
<path d="M644.03 747.436L647.128 746.302L656.073 772.418L640.669 778.885L644.03 747.436Z" fill="#AF8746"/>
<path d="M682.337 331.527L642.197 383.082L580.477 407.046L619.842 355.774L682.337 331.527Z" fill="#002147"/>
<path d="M586.757 307.268L544.021 361.816L435.317 404.556L477.499 350.469L586.757 307.268Z" fill="#2E3E4C"/>
<path d="M749.263 402.801L734.612 420.959C734.612 420.959 625.064 465.198 627.017 462.777C627.106 462.667 643.354 442.527 643.354 442.527L749.263 402.801Z" fill="#002147"/>
<path d="M603.54 458.73L613.71 482.201L586.959 516.034L483.258 556.633L539.778 485.225L603.54 458.73Z" fill="#2E3E4C"/>
<path d="M643.354 442.527L586.959 516.034L622.258 501.82L603.54 458.73L643.354 442.527Z" fill="#536D7F"/>
<path d="M788.632 288.841L731.671 359.893L626.392 402.672L682.337 331.527L788.632 288.841Z" fill="#536D7F"/>
<path d="M787.852 210.44L766.496 237.361L788.632 288.841L808.879 262.844L787.852 210.44Z" fill="#3F3D56"/>
<path d="M595.337 293.477L619.842 355.774L580.477 407.046L554.664 345.693L595.337 293.477Z" fill="#73ACE5"/>
<path d="M511.954 362.103L536.794 423.761L522.097 442.428L497.304 380.262L511.954 362.103Z" fill="#002147"/>
<path d="M641.732 383.434L626.769 402.43L522.275 442.208L536.794 423.761L641.732 383.434Z" fill="#2E3E4C"/>
<path d="M766.496 237.361L788.632 288.841L682.337 331.527L667.796 294.534L683.956 274.504C683.956 274.504 709.183 264.882 709.716 264.221C710.249 263.561 714.755 257.749 714.755 257.749L766.496 237.361Z" fill="#73ACE5"/>
<path d="M660.695 278.082L673.051 264.796L631.491 170.2L436.216 246.285L477.499 350.469L583.748 308.292L595.38 293.875L598.442 302.706L660.695 278.082Z" fill="#002147"/>
<path d="M749.263 402.801L731.671 359.893L626.392 402.672L643.354 442.527L749.263 402.801Z" fill="#3F3D56"/>
<path d="M749.263 402.801L734.612 420.959L759.935 483.371L774.632 464.704L749.263 402.801Z" fill="#F29E30"/>
<path d="M497.304 380.262L539.71 485.534L483.258 556.633L417.544 393.665L429.119 389.014L435.317 404.556L497.304 380.262Z" fill="#536D7F"/>
<path d="M554.597 346.002L580.477 407.046L536.794 423.761L511.954 362.103L554.597 346.002Z" fill="#536D7F"/>
<path d="M643.354 442.527L626.392 402.672L586.272 417.901L603.54 458.73L643.354 442.527Z" fill="#73ACE5"/>
<path d="M734.612 420.959L759.935 483.371L716.984 499.404L691.302 438.339L734.612 420.959Z" fill="#FFC466"/>
<path d="M691.302 438.339L651.827 489.522L622.258 501.82L613.337 481.536L627.813 462.692L691.302 438.339Z" fill="#2E3E4C"/>
<path d="M657.942 269.319L682.337 331.527L619.842 355.774C619.842 355.774 594.957 294.624 595.38 293.875C595.802 293.126 657.942 269.319 657.942 269.319Z" fill="#3F3D56"/>
<path d="M788.632 288.841L864.74 480.187L856.262 490.244L836.352 440.74L774.632 464.704L731.671 359.893L788.632 288.841Z" fill="#2E3E4C"/>
<path d="M586.272 417.901C586.493 418.079 603.65 458.819 603.65 458.819L539.71 485.534L522.275 442.208L586.272 417.901Z" fill="#002147"/>
<path d="M691.302 438.339L717.072 499.294L676.666 551.18L651.827 489.522L691.302 438.339Z" fill="#F29E30"/>
<path d="M436.216 246.285L477.499 350.469L435.317 404.556L393.33 299.44L436.216 246.285Z" fill="#73ACE5"/>
<path d="M711.461 23.9553L758.478 137.492L711.051 156.818L699.412 129.981L721.318 122.221L700.906 70.8588L711.461 23.9553Z" fill="#2E3E4C"/>
<path d="M738.187 200.523C738.254 200.214 745.091 191.74 745.091 191.74L693.066 211.353L664.493 247.895L697.028 234.175L717.095 209.303L738.187 200.523Z" fill="#536D7F"/>
<path d="M621.399 180.227L642.295 232.342L613.527 268L585.867 197.887L590.886 191.216L621.399 180.227Z" fill="#536D7F"/>
<path d="M787.852 210.44L766.496 237.361L714.755 257.749L728.702 238.659L749.791 230.784L757.335 222.336L787.852 210.44Z" fill="#002147"/>
<path d="M721.94 121.45L611.691 163.851L590.687 191.237L631.468 176.541L698.762 151.08L721.94 121.45Z" fill="#002147"/>
<path d="M684.563 191.226L712.6 156.251L681.109 168.451L661.018 194.029L641.435 200.94L633.355 210.954L684.563 191.226Z" fill="#536D7F"/>
<path d="M705.734 49.3162L700.906 70.8588L696.411 60.8717L705.734 49.3162Z" fill="#002147"/>
<path d="M758.478 137.492L787.852 210.44L757.335 222.336L735.931 170.174L758.478 137.492Z" fill="#3F3D56"/>
<path d="M693.353 211.222L665.069 247.632C665.069 247.632 613.151 268.241 613.417 267.911C613.683 267.58 641.61 232.516 641.61 232.516L693.353 211.222Z" fill="#2E3E4C"/>
<path d="M679.212 241.602L689.816 267.241L667.796 294.534L661.139 277.532L673.051 264.796L665.268 247.611L679.212 241.602Z" fill="#536D7F"/>
<path d="M696.411 60.8717L700.906 70.8588L682.383 78.26L696.411 60.8717Z" fill="#002147"/>
<path d="M758.478 137.492L712.6 156.251L684.563 191.226L735.931 170.174L758.478 137.492Z" fill="#002147"/>
<path d="M667.672 137.981L647.871 162.523L661.018 194.029L681.109 168.451L667.672 137.981Z" fill="#002147"/>
<path d="M621.112 180.358L628.019 170.669L641.435 200.94L633.444 210.844L621.112 180.358Z" fill="#73ACE5"/>
<path d="M693.353 211.222L684.652 191.116L633.444 210.844L641.72 232.605L693.353 211.222Z" fill="#3F3D56"/>
<path d="M744.803 191.871L757.335 222.336L750.231 231.14L737.988 200.544L744.803 191.871Z" fill="#2E3E4C"/>
<path d="M696.829 234.196L709.361 264.661L729.253 239.104L717.23 208.685L696.829 234.196Z" fill="#73ACE5"/>
<path d="M590.032 114.936L700.906 70.8588L721.851 121.56L701.469 129.461L667.494 138.202L660.48 146.896L609.918 165.146L590.032 114.936Z" fill="#3F3D56"/>
<path d="M735.931 170.174L744.803 191.871L693.353 211.222L684.652 191.116L735.931 170.174Z" fill="#73ACE5"/>
<path d="M709.361 264.661C709.648 264.53 696.829 234.196 696.829 234.196L679.212 241.602L689.727 267.351L683.956 274.504L709.361 264.661Z" fill="#3F3D56"/>
<path d="M647.871 162.523L661.018 194.029L641.435 200.94L628.019 170.669L647.871 162.523Z" fill="#3F3D56"/>
<path d="M700.09 125.985L667.672 137.981L681.109 168.451L712.6 156.251L700.09 125.985Z" fill="#73ACE5"/>
<path d="M737.988 200.544L716.942 208.817L729.253 239.104L750.231 231.14L737.988 200.544Z" fill="#3F3D56"/>
<path d="M836.604 598.486L753.03 708.388L699.875 697.834L736.218 682.1L736.441 638.307L836.604 598.486Z" fill="#66553D"/>
<path d="M644.241 552.813L592.566 610.323L579.196 579.545L644.241 552.813Z" fill="#66553D"/>
<path d="M836.352 440.74L794.081 494.937C794.081 494.937 687.609 537.843 687.79 536.717C688.081 535.679 716.784 499.425 716.784 499.425L759.736 483.392L774.543 464.814L836.352 440.74Z" fill="#66553D"/>
<path d="M856.262 490.244L878.296 545.458L844.862 588.252L822.185 533.609L856.262 490.244Z" fill="#66553D"/>
<path d="M736.797 637.866L736.573 681.66L699.655 697.656L625.546 682.185L736.797 637.866Z" fill="#AF8746"/>
<path d="M417.544 393.665L483.258 556.633L586.959 516.034L602.655 551.596L579.196 579.545L570.623 560.634L442.135 611.211L423.429 564.497L386.671 560.453L349.095 470.163L257.605 457.746L417.544 393.665Z" fill="#66553D"/>
<path d="M651.827 489.522L676.666 551.18L629.373 569.888L644.241 552.813L622.258 501.82L651.827 489.522Z" fill="#AF8746"/>
<path d="M864.662 637.666L906.933 583.469C906.933 583.469 1013.41 540.564 1013.22 541.69C1012.93 542.727 984.229 578.981 984.229 578.981L941.189 595.124L926.382 613.702L864.662 637.666Z" fill="#2E3E4C"/>
<path d="M836.352 440.74L856.262 490.244L822.718 532.948L844.862 588.252L836.604 598.486L794.17 494.827L836.352 440.74Z" fill="#AF8746"/>
<path d="M622.258 501.82L644.241 552.813L579.196 579.545L602.655 551.596L586.959 516.034L622.258 501.82Z" fill="#F29E30"/>
<path d="M864.662 637.666L844.862 588.252L878.296 545.458L856.262 490.244L864.74 480.187L906.844 583.579L864.662 637.666Z" fill="#73ACE5"/>
<path d="M699.655 697.656L791.642 657.598L752.809 708.21L699.655 697.656Z" fill="#66553D"/>
<path d="M570.623 560.634L625.546 682.185L493.484 736.965L442.135 611.211L570.623 560.634Z" fill="#F29E30"/>
<path d="M912.493 789.654L836.16 599.037L844.862 588.252L864.662 637.666L926.382 613.702L969.453 718.602L912.493 789.654Z" fill="#536D7F"/>
<path d="M794.39 495.005L836.604 598.486L625.766 682.363L592.786 610.501L629.594 570.066L676.886 551.358L688.209 536.873L794.39 495.005Z" fill="#FFC466"/>
<path d="M906.844 583.579L864.74 480.187L1075.47 396.221L1108.56 468.172L1071.75 508.607L1024.35 527.226L1013.14 541.8L906.844 583.579Z" fill="#3F3D56"/>
<path d="M864.74 480.187L948.315 370.286L1001.47 380.839L964.551 396.835L964.218 440.54L864.74 480.187Z" fill="#151915"/>
<path d="M1314.25 518.063L1277.58 513.909L1207.64 341.53L1251.31 285.374L1296.92 328.726L1245.22 350.418L1314.25 518.063Z" fill="#151915"/>
<path d="M973.427 207.933L946.038 247.066L942.077 248.594L891.497 117.827L921.774 80.2991L973.427 207.933Z" fill="#151915"/>
<path d="M905.496 34.6361L851.276 56.2939L813.844 -37.3317L905.496 34.6361Z" fill="#151915"/>
<path d="M1001.47 380.839L1075.47 396.221L1176.73 266.431L1170.99 252.35L1060.35 299.522L1054.26 358.025L1001.47 380.839Z" fill="#151915"/>
<path d="M1170.99 252.35L1060.35 299.522L1071.1 197.356L1137.78 170.853L1170.99 252.35Z" fill="#424C42"/>
<path d="M942.077 248.594L973.427 207.933L1060.62 172.912L1071.1 197.356L942.077 248.594Z" fill="#424C42"/>
<path d="M964.218 440.54L964.551 396.835L1001.47 380.839L1075.47 396.221L964.218 440.54Z" fill="#424C42"/>
<path d="M833.052 140.437L891.497 117.827L921.774 80.2991L954.193 68.3027L916.694 30.2268L851.276 56.2939L805.707 118.187L872.521 91.0654L833.052 140.437Z" fill="#424C42"/>
<path d="M1283.47 684.741L1217.76 521.774L1114.05 562.372L1098.47 526.899L1121.93 498.95L1130.5 517.862L1258.88 467.196L1277.58 513.909L1314.34 517.953L1352.03 608.332L1443.52 620.75L1283.47 684.741Z" fill="#424C42"/>
<path d="M1075.47 396.221L1176.73 266.431L1207.64 341.53L1075.47 396.221Z" fill="#424C42"/>
<path d="M1045.05 306.077L942.077 248.594L1071.1 197.356L1060.35 299.522L1045.05 306.077Z" fill="#151915"/>
<path d="M837.01 411.289L948.315 370.286L864.74 480.187L837.01 411.289Z" fill="#222B22"/>
<path d="M1207.64 341.53L1170.99 252.35L1236.28 304.679L1207.64 341.53Z" fill="#222B22"/>
<path d="M976.927 335.048L942.077 248.594L1045.05 306.077L976.927 335.048Z" fill="#222B22"/>
<path d="M1342.34 363.746L1245.22 350.418L1324.17 317.279L1342.34 363.746Z" fill="#586658"/>
<path d="M833.052 140.437L882.378 269.827L942.077 248.594L891.497 117.827L833.052 140.437Z" fill="#222B22"/>
<path d="M1001.47 380.839L910.235 420.415L948.315 370.286L1001.47 380.839Z" fill="#222B22"/>
<path d="M1130.5 517.862L1075.47 396.221L1207.64 341.53L1258.88 467.196L1130.5 517.862Z" fill="#222B22"/>
<path d="M1352.03 608.332L1301.04 485.96L1437.17 431.553L1520.52 631.285L1352.03 608.332Z" fill="#222B22"/>
<path d="M770.132 166.339L805.707 118.187L872.521 91.0654L833.052 140.437L770.132 166.339Z" fill="#222B22"/>
<path d="M1060.62 172.912L973.427 207.933L921.774 80.2991L1008.27 48.1689L1060.62 172.912Z" fill="#222B22"/>
<path d="M1071.1 197.356L1060.62 172.912L1128.38 147.099L1137.78 170.853L1071.1 197.356Z" fill="#191919"/>
<path d="M770.132 166.339L758.478 137.492L805.707 118.187L770.132 166.339Z" fill="#191919"/>
<path d="M1301.04 485.96L1245.22 350.418L1413.02 373.545L1437.17 431.553L1301.04 485.96Z" fill="#191919"/>
<path d="M788.632 288.841L809.078 262.822L815.013 277.788L788.632 288.841Z" fill="#222B22"/>
<path d="M837.01 411.289L809.741 342.947L948.315 370.286L837.01 411.289Z" fill="#424C42"/>
<path d="M948.315 370.286L1054 332.193L1045.05 306.077L976.927 335.048L948.315 370.286Z" fill="#191919"/>
<path d="M793.138 301.745L882.378 269.827L833.052 140.437L770.132 166.339L815.013 277.788L788.632 288.841L793.138 301.745Z" fill="#191919"/>
<path d="M948.315 370.286L1001.47 380.839L1054.26 358.025L1060.35 299.522L1045.05 306.077L1054 332.193L948.315 370.286Z" fill="#2E4131"/>
<path d="M809.741 342.947L793.138 301.745L942.077 248.594L976.927 335.048L948.315 370.286L809.741 342.947Z" fill="#2E4131"/>
<path d="M758.478 137.492L805.707 118.187L851.276 56.2939L765.221 -159.25L678.195 -54.3154L758.478 137.492Z" fill="#2E4131"/>
<path d="M1057.09 331.059L1054 332.193L1045.05 306.077L1060.35 299.522L1057.09 331.059Z" fill="#222B22"/>
<path d="M1018.79 746.969L1058.82 695.324L1120.74 671.339L1081.17 722.632L1018.79 746.969Z" fill="#0F160F"/>
<path d="M1114.37 771.227L1156.99 716.59L1265.7 673.85L1223.62 728.026L1114.37 771.227Z" fill="#0F160F"/>
<path d="M951.751 675.605L966.402 657.447C966.402 657.447 1075.95 613.209 1074 615.63C1073.91 615.74 1057.66 635.879 1057.66 635.879L951.751 675.605Z" fill="#0F160F"/>
<path d="M1097.56 619.566L1087.41 596.294L1114.05 562.372L1217.76 521.774L1161.24 593.181L1097.56 619.566Z" fill="#0F160F"/>
<path d="M1057.77 635.968L1114.05 562.372L1078.95 576.565L1097.56 619.566L1057.77 635.968Z" fill="#354C35"/>
<path d="M912.493 789.654L969.453 718.602L1074.62 675.734L1018.79 746.969L912.493 789.654Z" fill="#354C35"/>
<path d="M913.272 868.055L934.628 841.134L912.493 789.654L892.245 815.651L913.272 868.055Z" fill="#354C35"/>
<path d="M1105.77 784.819L1081.17 722.632L1120.74 671.339L1146.46 732.802L1105.77 784.819Z" fill="#354C35"/>
<path d="M1189.06 716.303L1164.22 654.645L1179.03 636.067L1203.71 698.144L1189.06 716.303Z" fill="#354C35"/>
<path d="M864.662 637.666L906.933 583.469C906.933 583.469 1013.41 540.564 1013.22 541.69C1012.93 542.727 984.229 578.981 984.229 578.981L941.189 595.124L926.382 613.702L864.662 637.666Z" fill="#354C35"/>
<path d="M1056.88 525.682L1108.56 468.172L1121.93 498.95L1056.88 525.682Z" fill="#354C35"/>
<path d="M1059.28 694.973L1074.33 675.866L1178.85 636.288L1164.22 654.645L1059.28 694.973Z" fill="#2F4B4A"/>
<path d="M934.628 841.134L912.493 789.654L1018.79 746.969L1033.33 783.961L1017.17 803.991C1017.17 803.991 991.941 813.614 991.408 814.274C990.876 814.934 986.369 820.746 986.369 820.746L934.628 841.134Z" fill="#2F4B4A"/>
<path d="M1040.43 800.413L1027.96 813.611L1069.52 908.206L1265 832.1L1223.62 728.026L1117.27 770.114L1105.63 784.531L1102.68 775.789L1040.43 800.413Z" fill="#2F4B4A"/>
<path d="M951.751 675.605L969.453 718.602L1074.62 675.734L1057.77 635.968L951.751 675.605Z" fill="#2F4B4A"/>
<path d="M951.751 675.605L966.402 657.447L941.189 595.124L926.382 613.702L951.751 675.605Z" fill="#2F4B4A"/>
<path d="M1049.3 588.973L1024.35 527.226L1071.75 508.607L1056.88 525.682L1078.95 576.565L1049.3 588.973Z" fill="#2F4B4A"/>
<path d="M1203.71 698.144L1161.41 592.961L1217.76 521.774L1283.47 684.741L1272.01 689.481L1265.7 673.85L1203.71 698.144Z" fill="#2F4B4A"/>
<path d="M864.662 637.666L844.862 588.252L878.296 545.458L856.262 490.244L864.74 480.187L906.844 583.579L864.662 637.666Z" fill="#2F4B4A"/>
<path d="M1146.42 732.404L1120.74 671.339L1164.22 654.645L1189.06 716.303L1146.42 732.404Z" fill="#2E4131"/>
<path d="M1057.77 635.968L1074.62 675.734L1114.85 660.594L1097.56 619.566L1057.77 635.968Z" fill="#2E4131"/>
<path d="M966.402 657.447L941.189 595.124L984.141 579.091L1009.82 640.156L966.402 657.447Z" fill="#2E4131"/>
<path d="M1009.82 640.156L1049.3 588.973L1078.95 576.565L1087.68 596.87L1073.2 615.714L1009.82 640.156Z" fill="#2E4131"/>
<path d="M906.844 583.579L864.74 480.187L1075.47 396.221L1108.56 468.172L1071.75 508.607L1024.35 527.226L1013.14 541.8L906.844 583.579Z" fill="#2E4131"/>
<path d="M1043.27 809.066L1018.88 746.858L1081.26 722.522C1081.26 722.522 1106.15 783.672 1105.72 784.421C1105.3 785.17 1043.27 809.066 1043.27 809.066Z" fill="#44554A"/>
<path d="M912.493 789.654L836.16 599.037L844.862 588.252L864.662 637.666L926.382 613.702L969.453 718.602L912.493 789.654Z" fill="#44554A"/>
<path d="M1114.85 660.594C1114.63 660.416 1097.47 619.676 1097.47 619.676L1161.41 592.961L1178.85 636.288L1114.85 660.594Z" fill="#44554A"/>
<path d="M1009.82 640.156L984.052 579.201L1024.35 527.226L1049.3 588.973L1009.82 640.156Z" fill="#44554A"/>
<path d="M1078.95 576.565L1056.88 525.682L1121.93 498.95L1098.47 526.899L1114.05 562.372L1078.95 576.565Z" fill="#44554A"/>
<path d="M1265 832.1L1223.62 728.026L1265.7 673.85L1307.79 779.055L1265 832.1Z" fill="#44554A"/>
<path d="M989.664 1054.54L942.536 940.915L990.052 921.478L1001.8 948.404L979.806 956.275L1000.2 1007.44L989.664 1054.54Z" fill="#1F2C1F"/>
<path d="M962.827 877.884C962.76 878.193 955.923 886.667 955.923 886.667L1007.95 867.053L1036.52 830.511L1003.99 844.231L983.919 869.103L962.827 877.884Z" fill="#1F2C1F"/>
<path d="M1079.72 898.268L1058.72 846.064L1087.6 810.496L1115.26 880.608L1110.24 887.279L1079.72 898.268Z" fill="#1F2C1F"/>
<path d="M913.272 868.055L934.628 841.134L986.369 820.746L972.422 839.836L951.333 847.711L943.878 856.049L913.272 868.055Z" fill="#1F2C1F"/>
<path d="M979.184 957.045L1089.43 914.644L1110.33 887.169L1069.55 901.865L1002.36 927.415L979.184 957.045Z" fill="#141E14"/>
<path d="M1016.45 887.18L988.503 922.045L1020.02 910.044L1040.11 884.466L1059.69 877.556L1067.77 867.541L1016.45 887.18Z" fill="#141E14"/>
<path d="M995.28 1029.09L1000.2 1007.44L1004.6 1017.53L995.28 1029.09Z" fill="#141E14"/>
<path d="M942.536 940.915L913.272 868.055L943.878 856.049L965.282 908.211L942.536 940.915Z" fill="#141E14"/>
<path d="M1007.66 867.185L1035.95 830.774C1035.95 830.774 1087.86 810.166 1087.6 810.496C1087.33 810.826 1059.4 845.89 1059.4 845.89L1007.66 867.185Z" fill="#141E14"/>
<path d="M1021.8 836.804L1011.31 811.255L1033.33 783.961L1039.99 800.963L1027.96 813.611L1035.86 830.884L1021.8 836.804Z" fill="#141E14"/>
<path d="M1004.6 1017.53L1000.2 1007.44L1018.63 1000.15L1004.6 1017.53Z" fill="#2E4131"/>
<path d="M942.536 940.915L988.503 922.045L1016.45 887.18L965.282 908.211L942.536 940.915Z" fill="#2E4131"/>
<path d="M1033.45 940.514L1053.25 915.972L1040.11 884.466L1020.02 910.044L1033.45 940.514Z" fill="#2E4131"/>
<path d="M1080.01 898.137L1072.99 907.737L1059.69 877.556L1067.68 867.651L1080.01 898.137Z" fill="#2E4131"/>
<path d="M1007.66 867.185L1016.36 887.29L1067.68 867.651L1059.29 845.801L1007.66 867.185Z" fill="#2E4131"/>
<path d="M956.3 886.426L943.878 856.049L950.893 847.355L963.026 877.863L956.3 886.426Z" fill="#2E4131"/>
<path d="M1004.3 844.299L991.764 813.834L971.871 839.392L983.895 869.81L1004.3 844.299Z" fill="#2E4131"/>
<path d="M1110.98 963.47L1000.2 1007.44L979.362 956.825L999.545 948.946L1033.63 940.294L1040.64 931.599L1091.1 913.26L1110.98 963.47Z" fill="#2E4131"/>
<path d="M965.193 908.322L956.321 886.624L1007.66 867.185L1016.36 887.29L965.193 908.322Z" fill="#2E4131"/>
<path d="M991.764 813.834C991.476 813.965 1004.3 844.299 1004.3 844.299L1021.91 836.893L1011.4 811.144L1017.17 803.991L991.764 813.834Z" fill="#2E4131"/>
<path d="M1053.25 915.972L1040.11 884.466L1059.69 877.556L1072.99 907.737L1053.25 915.972Z" fill="#263238"/>
<path d="M1001.01 952.311L1033.45 940.514L1020.02 910.044L988.503 922.045L1001.01 952.311Z" fill="#263238"/>
<path d="M963.026 877.863L984.072 869.59L971.871 839.392L950.893 847.355L963.026 877.863Z" fill="#263238"/>
<path d="M836.604 598.486L753.03 708.388L699.875 697.834L736.218 682.1L736.441 638.307L836.604 598.486Z" fill="#151915"/>
<path d="M386.76 560.343L423.429 564.497L493.484 736.965L449.704 793.033L404.202 749.77L455.904 728.078L386.76 560.343Z" fill="#151915"/>
<path d="M727.698 870.562L755.086 831.429L759.047 829.901L809.627 960.668L779.35 998.196L727.698 870.562Z" fill="#151915"/>
<path d="M795.518 1043.77L849.937 1022.09L887.28 1115.83L795.518 1043.77Z" fill="#151915"/>
<path d="M699.655 697.656L625.546 682.185L524.287 811.976L530.026 826.057L640.669 778.885L646.867 720.47L699.655 697.656Z" fill="#151915"/>
<path d="M530.026 826.057L640.669 778.885L630.115 881.029L563.347 907.642L530.026 826.057Z" fill="#424C42"/>
<path d="M759.047 829.901L727.698 870.562L640.392 905.495L630.115 881.029L759.047 829.901Z" fill="#424C42"/>
<path d="M736.797 637.866L736.573 681.66L699.655 697.656L625.546 682.185L736.797 637.866Z" fill="#424C42"/>
<path d="M868.072 938.058L809.627 960.668L779.35 998.196L746.932 1010.19L784.519 1048.16L849.937 1022.09L895.506 960.198L828.493 987.341L868.072 938.058Z" fill="#424C42"/>
<path d="M417.544 393.665L483.258 556.633L586.959 516.034L602.655 551.596L579.196 579.545L570.623 560.634L442.135 611.211L423.429 564.497L386.671 560.453L349.095 470.163L257.605 457.746L417.544 393.665Z" fill="#424C42"/>
<path d="M625.546 682.185L524.287 811.976L493.484 736.965L625.546 682.185Z" fill="#424C42"/>
<path d="M656.073 772.418L759.047 829.901L630.115 881.029L640.669 778.885L656.073 772.418Z" fill="#151915"/>
<path d="M864.225 667.295L752.809 708.21L836.604 598.486L864.225 667.295Z" fill="#424C42"/>
<path d="M493.484 736.965L530.026 826.057L464.734 773.727L493.484 736.965Z" fill="#222B22"/>
<path d="M724.087 743.359L759.047 829.901L656.073 772.418L724.087 743.359Z" fill="#222B22"/>
<path d="M358.672 714.66L455.904 728.078L376.958 761.217L358.672 714.66Z" fill="#586658"/>
<path d="M868.072 938.058L818.725 808.469L759.047 829.901L809.627 960.668L868.072 938.058Z" fill="#222B22"/>
<path d="M699.655 697.656L791.642 657.598L752.809 708.21L699.655 697.656Z" fill="#222B22"/>
<path d="M570.623 560.634L625.546 682.185L493.484 736.965L442.135 611.211L570.623 560.634Z" fill="#222B22"/>
<path d="M349.095 470.163L399.971 592.446L263.955 646.942L180.605 447.21L349.095 470.163Z" fill="#222B22"/>
<path d="M930.882 912.067L895.506 960.198L828.493 987.341L868.072 938.058L930.882 912.067Z" fill="#222B22"/>
<path d="M640.392 905.495L727.698 870.562L779.35 998.196L692.739 1030.24L640.392 905.495Z" fill="#222B22"/>
<path d="M912.493 789.654L892.505 817.133L886.463 801.173L912.493 789.654Z" fill="#222B22"/>
<path d="M630.115 881.029L640.392 905.495L572.742 931.396L563.347 907.642L630.115 881.029Z" fill="#191919"/>
<path d="M930.882 912.067L942.536 940.915L895.506 960.198L930.882 912.067Z" fill="#191919"/>
<path d="M399.971 592.446L455.904 728.078L287.99 704.862L263.955 646.942L399.971 592.446Z" fill="#191919"/>
<path d="M864.004 667.117L891.273 735.46L752.809 708.21L864.004 667.117Z" fill="#191919"/>
<path d="M752.809 708.21L647.128 746.302L656.073 772.418L724.087 743.359L752.809 708.21Z" fill="#191919"/>
<path d="M907.986 776.75L818.725 808.469L868.072 938.058L930.882 912.067L886.463 801.173L912.493 789.654L907.986 776.75Z" fill="#191919"/>
<path d="M752.809 708.21L699.655 697.656L646.867 720.47L640.669 778.885L656.073 772.418L647.128 746.302L752.809 708.21Z" fill="#2E4131"/>
<path d="M891.273 735.46L907.986 776.75L759.047 829.901L724.087 743.359L752.809 708.21L891.273 735.46Z" fill="#2E4131"/>
<path d="M942.536 940.915L895.506 960.198L849.937 1022.09L935.793 1237.66L1024.49 1135.16L942.536 940.915Z" fill="#2E4131"/>
<path d="M644.03 747.436L647.128 746.302L656.073 772.418L640.669 778.885L644.03 747.436Z" fill="#222B22"/>
<path d="M682.337 331.527L642.197 383.082L580.477 407.046L619.842 355.774L682.337 331.527Z" fill="#0F160F"/>
<path d="M586.757 307.268L544.021 361.816L435.317 404.556L477.499 350.469L586.757 307.268Z" fill="#0F160F"/>
<path d="M749.263 402.801L734.612 420.959C734.612 420.959 625.064 465.198 627.017 462.777C627.106 462.667 643.354 442.527 643.354 442.527L749.263 402.801Z" fill="#0F160F"/>
<path d="M603.54 458.73L613.71 482.201L586.959 516.034L483.258 556.633L539.778 485.225L603.54 458.73Z" fill="#0F160F"/>
<path d="M643.354 442.527L586.959 516.034L622.258 501.82L603.54 458.73L643.354 442.527Z" fill="#354C35"/>
<path d="M788.632 288.841L731.671 359.893L626.392 402.672L682.337 331.527L788.632 288.841Z" fill="#354C35"/>
<path d="M787.852 210.44L766.496 237.361L788.632 288.841L808.879 262.844L787.852 210.44Z" fill="#354C35"/>
<path d="M595.337 293.477L619.842 355.774L580.477 407.046L554.664 345.693L595.337 293.477Z" fill="#354C35"/>
<path d="M511.954 362.103L536.794 423.761L522.097 442.428L497.304 380.262L511.954 362.103Z" fill="#354C35"/>
<path d="M836.352 440.74L794.081 494.937C794.081 494.937 687.609 537.843 687.79 536.717C688.081 535.679 716.784 499.425 716.784 499.425L759.736 483.392L774.543 464.814L836.352 440.74Z" fill="#354C35"/>
<path d="M644.241 552.813L592.566 610.323L579.196 579.545L644.241 552.813Z" fill="#354C35"/>
<path d="M641.732 383.434L626.769 402.43L522.275 442.208L536.794 423.761L641.732 383.434Z" fill="#2F4B4A"/>
<path d="M766.496 237.361L788.632 288.841L682.337 331.527L667.796 294.534L683.956 274.504C683.956 274.504 709.183 264.882 709.716 264.221C710.249 263.561 714.755 257.749 714.755 257.749L766.496 237.361Z" fill="#2F4B4A"/>
<path d="M660.695 278.082L673.051 264.796L631.491 170.2L436.216 246.285L477.499 350.469L583.748 308.292L595.38 293.875L598.442 302.706L660.695 278.082Z" fill="#2F4B4A"/>
<path d="M749.263 402.801L731.671 359.893L626.392 402.672L643.354 442.527L749.263 402.801Z" fill="#2F4B4A"/>
<path d="M749.263 402.801L734.612 420.959L759.935 483.371L774.632 464.704L749.263 402.801Z" fill="#2F4B4A"/>
<path d="M651.827 489.522L676.666 551.18L629.373 569.888L644.241 552.813L622.258 501.82L651.827 489.522Z" fill="#2F4B4A"/>
<path d="M497.304 380.262L539.71 485.534L483.258 556.633L417.544 393.665L429.119 389.014L435.317 404.556L497.304 380.262Z" fill="#2F4B4A"/>
<path d="M836.352 440.74L856.262 490.244L822.718 532.948L844.862 588.252L836.604 598.486L794.17 494.827L836.352 440.74Z" fill="#2F4B4A"/>
<path d="M554.597 346.002L580.477 407.046L536.794 423.761L511.954 362.103L554.597 346.002Z" fill="#2E4131"/>
<path d="M643.354 442.527L626.392 402.672L586.272 417.901L603.54 458.73L643.354 442.527Z" fill="#2E4131"/>
<path d="M734.612 420.959L759.935 483.371L716.984 499.404L691.302 438.339L734.612 420.959Z" fill="#2E4131"/>
<path d="M691.302 438.339L651.827 489.522L622.258 501.82L613.337 481.536L627.813 462.692L691.302 438.339Z" fill="#2E4131"/>
<path d="M794.39 495.005L836.604 598.486L625.766 682.363L592.786 610.501L629.594 570.066L676.886 551.358L688.209 536.873L794.39 495.005Z" fill="#2E4131"/>
<path d="M657.942 269.319L682.337 331.527L619.842 355.774C619.842 355.774 594.957 294.624 595.38 293.875C595.802 293.126 657.942 269.319 657.942 269.319Z" fill="#44554A"/>
<path d="M788.632 288.841L864.74 480.187L856.262 490.244L836.352 440.74L774.632 464.704L731.671 359.893L788.632 288.841Z" fill="#44554A"/>
<path d="M586.272 417.901C586.493 418.079 603.65 458.819 603.65 458.819L539.71 485.534L522.275 442.208L586.272 417.901Z" fill="#44554A"/>
<path d="M691.302 438.339L717.072 499.294L676.666 551.18L651.827 489.522L691.302 438.339Z" fill="#44554A"/>
<path d="M622.258 501.82L644.241 552.813L579.196 579.545L602.655 551.596L586.959 516.034L622.258 501.82Z" fill="#44554A"/>
<path d="M436.216 246.285L477.499 350.469L435.317 404.556L393.33 299.44L436.216 246.285Z" fill="#44554A"/>
<path d="M711.461 23.9553L758.478 137.492L711.051 156.818L699.412 129.981L721.318 122.221L700.906 70.8588L711.461 23.9553Z" fill="#1F2C1F"/>
<path d="M738.187 200.523C738.254 200.214 745.091 191.74 745.091 191.74L693.066 211.353L664.493 247.895L697.028 234.175L717.095 209.303L738.187 200.523Z" fill="#1F2C1F"/>
<path d="M621.399 180.227L642.295 232.342L613.527 268L585.867 197.887L590.886 191.216L621.399 180.227Z" fill="#1F2C1F"/>
<path d="M787.852 210.44L766.496 237.361L714.755 257.749L728.702 238.659L749.791 230.784L757.335 222.336L787.852 210.44Z" fill="#1F2C1F"/>
<path d="M721.94 121.45L611.691 163.851L590.687 191.237L631.468 176.541L698.762 151.08L721.94 121.45Z" fill="#141E14"/>
<path d="M684.563 191.226L712.6 156.251L681.109 168.451L661.018 194.029L641.435 200.94L633.355 210.954L684.563 191.226Z" fill="#141E14"/>
<path d="M705.734 49.3162L700.906 70.8588L696.411 60.8717L705.734 49.3162Z" fill="#141E14"/>
<path d="M758.478 137.492L787.852 210.44L757.335 222.336L735.931 170.174L758.478 137.492Z" fill="#141E14"/>
<path d="M693.353 211.222L665.069 247.632C665.069 247.632 613.151 268.241 613.417 267.911C613.683 267.58 641.61 232.516 641.61 232.516L693.353 211.222Z" fill="#141E14"/>
<path d="M679.212 241.602L689.816 267.241L667.796 294.534L661.139 277.532L673.051 264.796L665.268 247.611L679.212 241.602Z" fill="#141E14"/>
<path d="M696.411 60.8717L700.906 70.8588L682.383 78.26L696.411 60.8717Z" fill="#2E4131"/>
<path d="M758.478 137.492L712.6 156.251L684.563 191.226L735.931 170.174L758.478 137.492Z" fill="#2E4131"/>
<path d="M667.672 137.981L647.871 162.523L661.018 194.029L681.109 168.451L667.672 137.981Z" fill="#2E4131"/>
<path d="M621.112 180.358L628.019 170.669L641.435 200.94L633.444 210.844L621.112 180.358Z" fill="#2E4131"/>
<path d="M693.353 211.222L684.652 191.116L633.444 210.844L641.72 232.605L693.353 211.222Z" fill="#2E4131"/>
<path d="M744.803 191.871L757.335 222.336L750.231 231.14L737.988 200.544L744.803 191.871Z" fill="#2E4131"/>
<path d="M696.829 234.196L709.361 264.661L729.253 239.104L717.23 208.685L696.829 234.196Z" fill="#2E4131"/>
<path d="M590.032 114.936L700.906 70.8588L721.851 121.56L701.469 129.461L667.494 138.202L660.48 146.896L609.918 165.146L590.032 114.936Z" fill="#2E4131"/>
<path d="M735.931 170.174L744.803 191.871L693.353 211.222L684.652 191.116L735.931 170.174Z" fill="#2E4131"/>
<path d="M709.361 264.661C709.648 264.53 696.829 234.196 696.829 234.196L679.212 241.602L689.727 267.351L683.956 274.504L709.361 264.661Z" fill="#2E4131"/>
<path d="M647.871 162.523L661.018 194.029L641.435 200.94L628.019 170.669L647.871 162.523Z" fill="#263238"/>
<path d="M700.09 125.985L667.672 137.981L681.109 168.451L712.6 156.251L700.09 125.985Z" fill="#263238"/>
<path d="M737.988 200.544L716.942 208.817L729.253 239.104L750.231 231.14L737.988 200.544Z" fill="#263238"/>
<path d="M856.262 490.244L878.296 545.458L844.862 588.252L822.185 533.609L856.262 490.244Z" fill="#44554A"/>
</g>
<rect x="159" y="190" width="144" height="144" rx="17.3867" fill="#F1F3FB"/>
<path d="M303 351.28L266.52 317.68L303 320.56V351.28Z" fill="#F1F3FB"/>
<path d="M284.243 334L266.52 317.68L271.32 334H284.243Z" fill="#3D4B49"/>
<path d="M255.376 295.6C255.376 295.6 252.394 292.062 249.908 288.935C260.761 285.891 264.904 279.143 264.904 279.143C261.507 281.365 258.276 282.929 255.376 283.998C251.234 285.726 247.257 286.878 243.363 287.537C235.409 289.018 228.119 288.606 221.905 287.454C217.183 286.549 213.123 285.232 209.726 283.916C207.821 283.175 205.749 282.27 203.678 281.118C203.43 280.954 203.181 280.871 202.932 280.707C202.767 280.625 202.684 280.542 202.601 280.46C201.11 279.637 200.281 279.061 200.281 279.061C200.281 279.061 204.258 285.644 214.78 288.771C212.294 291.898 209.229 295.6 209.229 295.6C190.919 295.024 183.96 283.093 183.96 283.093C183.96 256.597 195.89 235.121 195.89 235.121C207.821 226.234 219.171 226.481 219.171 226.481L219.999 227.469C205.087 231.747 198.21 238.248 198.21 238.248C198.21 238.248 200.033 237.26 203.098 235.862C211.963 231.994 219.005 230.925 221.905 230.678C222.402 230.595 222.816 230.513 223.313 230.513C228.367 229.855 234.084 229.69 240.049 230.349C247.919 231.254 256.37 233.558 264.987 238.248C264.987 238.248 258.442 232.077 244.357 227.798L245.517 226.481C245.517 226.481 256.867 226.234 268.798 235.121C268.798 235.121 280.728 256.597 280.728 283.093C280.728 283.093 273.686 295.024 255.376 295.6ZM216.851 257.173C212.129 257.173 208.401 261.288 208.401 266.307C208.401 271.327 212.212 275.441 216.851 275.441C221.574 275.441 225.302 271.327 225.302 266.307C225.385 261.288 221.574 257.173 216.851 257.173ZM247.091 257.173C242.369 257.173 238.64 261.288 238.64 266.307C238.64 271.327 242.452 275.441 247.091 275.441C251.814 275.441 255.542 271.327 255.542 266.307C255.542 261.288 251.814 257.173 247.091 257.173Z" fill="#3D4B49"/>
<path d="M335.385 215C334.625 215 333.925 214.81 333.285 214.43C332.665 214.05 332.165 213.55 331.785 212.93C331.405 212.29 331.215 211.59 331.215 210.83V208.37H335.175V210.65C335.175 210.75 335.205 210.84 335.265 210.92C335.345 210.98 335.435 211.01 335.535 211.01H348.435C348.535 211.01 348.625 210.98 348.705 210.92C348.785 210.84 348.825 210.75 348.825 210.65V193.4H352.815V210.83C352.815 211.59 352.625 212.29 352.245 212.93C351.865 213.55 351.355 214.05 350.715 214.43C350.095 214.81 349.405 215 348.645 215H335.385ZM359.273 215C358.513 215 357.823 214.81 357.203 214.43C356.583 214.05 356.083 213.55 355.703 212.93C355.323 212.31 355.133 211.62 355.133 210.86V201.74C355.133 200.98 355.323 200.29 355.703 199.67C356.083 199.05 356.583 198.55 357.203 198.17C357.823 197.79 358.513 197.6 359.273 197.6H368.663C369.423 197.6 370.113 197.79 370.733 198.17C371.373 198.55 371.873 199.05 372.233 199.67C372.613 200.29 372.803 200.98 372.803 201.74V210.86C372.803 211.62 372.613 212.31 372.233 212.93C371.873 213.55 371.383 214.05 370.763 214.43C370.143 214.81 369.443 215 368.663 215H359.273ZM359.423 211.07H368.513C368.613 211.07 368.693 211.04 368.753 210.98C368.833 210.9 368.873 210.81 368.873 210.71V201.89C368.873 201.79 368.833 201.71 368.753 201.65C368.693 201.57 368.613 201.53 368.513 201.53H359.423C359.323 201.53 359.233 201.57 359.153 201.65C359.093 201.71 359.063 201.79 359.063 201.89V210.71C359.063 210.81 359.093 210.9 359.153 210.98C359.233 211.04 359.323 211.07 359.423 211.07ZM375.034 215V197.6H378.964V215H375.034ZM375.034 195.86V191.9H378.964V195.86H375.034ZM381.548 215V197.6H395.078C395.838 197.6 396.528 197.79 397.148 198.17C397.788 198.55 398.288 199.05 398.648 199.67C399.028 200.29 399.218 200.98 399.218 201.74V215H395.288V201.89C395.288 201.79 395.248 201.71 395.168 201.65C395.108 201.57 395.028 201.53 394.928 201.53H385.838C385.738 201.53 385.648 201.57 385.568 201.65C385.508 201.71 385.478 201.79 385.478 201.89V215H381.548ZM413.856 215C413.096 215 412.406 214.81 411.786 214.43C411.166 214.05 410.666 213.55 410.286 212.93C409.906 212.31 409.716 211.62 409.716 210.86V201.74C409.716 200.98 409.906 200.29 410.286 199.67C410.666 199.05 411.166 198.55 411.786 198.17C412.406 197.79 413.096 197.6 413.856 197.6H423.246C424.006 197.6 424.696 197.79 425.316 198.17C425.956 198.55 426.456 199.05 426.816 199.67C427.196 200.29 427.386 200.98 427.386 201.74V210.86C427.386 211.62 427.196 212.31 426.816 212.93C426.456 213.55 425.966 214.05 425.346 214.43C424.726 214.81 424.026 215 423.246 215H413.856ZM414.006 211.07H423.096C423.196 211.07 423.276 211.04 423.336 210.98C423.416 210.9 423.456 210.81 423.456 210.71V201.89C423.456 201.79 423.416 201.71 423.336 201.65C423.276 201.57 423.196 201.53 423.096 201.53H414.006C413.906 201.53 413.816 201.57 413.736 201.65C413.676 201.71 413.646 201.79 413.646 201.89V210.71C413.646 210.81 413.676 210.9 413.736 210.98C413.816 211.04 413.906 211.07 414.006 211.07ZM432.997 215C432.237 215 431.537 214.81 430.897 214.43C430.277 214.05 429.777 213.55 429.397 212.93C429.037 212.31 428.857 211.62 428.857 210.86V197.6H432.787V210.71C432.787 210.81 432.817 210.9 432.877 210.98C432.957 211.04 433.047 211.07 433.147 211.07H442.237C442.337 211.07 442.417 211.04 442.477 210.98C442.557 210.9 442.597 210.81 442.597 210.71V197.6H446.527V210.86C446.527 211.62 446.337 212.31 445.957 212.93C445.597 213.55 445.107 214.05 444.487 214.43C443.867 214.81 443.167 215 442.387 215H432.997ZM448.786 215V201.74C448.786 200.98 448.976 200.29 449.356 199.67C449.736 199.05 450.236 198.55 450.856 198.17C451.496 197.79 452.186 197.6 452.926 197.6H462.586V201.53H453.076C452.976 201.53 452.886 201.57 452.806 201.65C452.746 201.71 452.716 201.79 452.716 201.89V215H448.786Z" fill="white"/>
<path d="M332.508 332V313.28H349.746V316.738H335.966V320.898H347.042V324.382H335.966V332H332.508ZM353.923 332C353.264 332 352.666 331.835 352.129 331.506C351.592 331.177 351.158 330.743 350.829 330.206C350.5 329.669 350.335 329.071 350.335 328.412V320.508C350.335 319.849 350.5 319.251 350.829 318.714C351.158 318.177 351.592 317.743 352.129 317.414C352.666 317.085 353.264 316.92 353.923 316.92H362.061C362.72 316.92 363.318 317.085 363.855 317.414C364.41 317.743 364.843 318.177 365.155 318.714C365.484 319.251 365.649 319.849 365.649 320.508V328.412C365.649 329.071 365.484 329.669 365.155 330.206C364.843 330.743 364.418 331.177 363.881 331.506C363.344 331.835 362.737 332 362.061 332H353.923ZM354.053 328.594H361.931C362.018 328.594 362.087 328.568 362.139 328.516C362.208 328.447 362.243 328.369 362.243 328.282V320.638C362.243 320.551 362.208 320.482 362.139 320.43C362.087 320.361 362.018 320.326 361.931 320.326H354.053C353.966 320.326 353.888 320.361 353.819 320.43C353.767 320.482 353.741 320.551 353.741 320.638V328.282C353.741 328.369 353.767 328.447 353.819 328.516C353.888 328.568 353.966 328.594 354.053 328.594ZM367.024 332V320.508C367.024 319.849 367.189 319.251 367.518 318.714C367.848 318.177 368.281 317.743 368.818 317.414C369.373 317.085 369.971 316.92 370.612 316.92H378.984V320.326H370.742C370.656 320.326 370.578 320.361 370.508 320.43C370.456 320.482 370.43 320.551 370.43 320.638V332H367.024ZM398.098 337.98V332H389.752C389.076 332 388.469 331.835 387.932 331.506C387.394 331.177 386.961 330.743 386.632 330.206C386.32 329.669 386.164 329.071 386.164 328.412V320.508C386.164 319.849 386.32 319.251 386.632 318.714C386.961 318.177 387.394 317.743 387.932 317.414C388.469 317.085 389.076 316.92 389.752 316.92H401.504V337.98H398.098ZM389.908 328.594H397.786C397.872 328.594 397.942 328.568 397.994 328.516C398.063 328.447 398.098 328.369 398.098 328.282V320.638C398.098 320.551 398.063 320.482 397.994 320.43C397.942 320.361 397.872 320.326 397.786 320.326H389.908C389.821 320.326 389.743 320.361 389.674 320.43C389.622 320.482 389.596 320.551 389.596 320.638V328.282C389.596 328.369 389.622 328.447 389.674 328.516C389.743 328.568 389.821 328.594 389.908 328.594ZM406.587 332C405.929 332 405.322 331.835 404.767 331.506C404.23 331.177 403.797 330.743 403.467 330.206C403.155 329.669 402.999 329.071 402.999 328.412V316.92H406.405V328.282C406.405 328.369 406.431 328.447 406.483 328.516C406.553 328.568 406.631 328.594 406.717 328.594H414.595C414.682 328.594 414.751 328.568 414.803 328.516C414.873 328.447 414.907 328.369 414.907 328.282V316.92H418.313V328.412C418.313 329.071 418.149 329.669 417.819 330.206C417.507 330.743 417.083 331.177 416.545 331.506C416.008 331.835 415.401 332 414.725 332H406.587ZM423.275 332C422.616 332 422.018 331.835 421.481 331.506C420.944 331.177 420.51 330.743 420.181 330.206C419.852 329.669 419.687 329.071 419.687 328.412V320.508C419.687 319.849 419.852 319.251 420.181 318.714C420.51 318.177 420.944 317.743 421.481 317.414C422.018 317.085 422.616 316.92 423.275 316.92H431.413C432.072 316.92 432.67 317.085 433.207 317.414C433.762 317.743 434.195 318.177 434.507 318.714C434.836 319.251 435.001 319.849 435.001 320.508V326.176H423.093V328.282C423.093 328.369 423.119 328.447 423.171 328.516C423.24 328.568 423.318 328.594 423.405 328.594H435.001V332H423.275ZM423.093 323.108H431.595V320.638C431.595 320.551 431.56 320.482 431.491 320.43C431.439 320.361 431.37 320.326 431.283 320.326H423.405C423.318 320.326 423.24 320.361 423.171 320.43C423.119 320.482 423.093 320.551 423.093 320.638V323.108ZM436.783 332V320.508C436.783 319.849 436.947 319.251 437.277 318.714C437.606 318.177 438.039 317.743 438.577 317.414C439.131 317.085 439.729 316.92 440.371 316.92H448.743V320.326H440.501C440.414 320.326 440.336 320.361 440.267 320.43C440.215 320.482 440.189 320.551 440.189 320.638V332H436.783ZM449.942 332V316.92H453.348V332H449.942ZM449.942 315.412V311.98H453.348V315.412H449.942ZM458.665 332C458.007 332 457.409 331.835 456.871 331.506C456.334 331.177 455.901 330.743 455.571 330.206C455.242 329.669 455.077 329.071 455.077 328.412V320.508C455.077 319.849 455.242 319.251 455.571 318.714C455.901 318.177 456.334 317.743 456.871 317.414C457.409 317.085 458.007 316.92 458.665 316.92H466.803C467.462 316.92 468.06 317.085 468.597 317.414C469.152 317.743 469.585 318.177 469.897 318.714C470.227 319.251 470.391 319.849 470.391 320.508V326.176H458.483V328.282C458.483 328.369 458.509 328.447 458.561 328.516C458.631 328.568 458.709 328.594 458.795 328.594H470.391V332H458.665ZM458.483 323.108H466.985V320.638C466.985 320.551 466.951 320.482 466.881 320.43C466.829 320.361 466.76 320.326 466.673 320.326H458.795C458.709 320.326 458.631 320.361 458.561 320.43C458.509 320.482 458.483 320.551 458.483 320.638V323.108ZM475.632 332C474.973 332 474.375 331.835 473.838 331.506C473.3 331.177 472.867 330.743 472.538 330.206C472.208 329.669 472.044 329.071 472.044 328.412V327.84H475.45V328.282C475.45 328.369 475.476 328.447 475.528 328.516C475.597 328.568 475.675 328.594 475.762 328.594H483.64C483.726 328.594 483.796 328.568 483.848 328.516C483.917 328.447 483.952 328.369 483.952 328.282V326.488C483.952 326.401 483.917 326.332 483.848 326.28C483.796 326.211 483.726 326.176 483.64 326.176H475.632C474.973 326.176 474.375 326.011 473.838 325.682C473.3 325.353 472.867 324.919 472.538 324.382C472.208 323.845 472.044 323.247 472.044 322.588V320.508C472.044 319.849 472.208 319.251 472.538 318.714C472.867 318.177 473.3 317.743 473.838 317.414C474.375 317.085 474.973 316.92 475.632 316.92H483.77C484.446 316.92 485.052 317.085 485.59 317.414C486.127 317.743 486.56 318.177 486.89 318.714C487.219 319.251 487.384 319.849 487.384 320.508V321.08H483.952V320.638C483.952 320.551 483.917 320.482 483.848 320.43C483.796 320.361 483.726 320.326 483.64 320.326H475.762C475.675 320.326 475.597 320.361 475.528 320.43C475.476 320.482 475.45 320.551 475.45 320.638V322.432C475.45 322.519 475.476 322.597 475.528 322.666C475.597 322.718 475.675 322.744 475.762 322.744H483.77C484.446 322.744 485.052 322.909 485.59 323.238C486.127 323.567 486.56 324.001 486.89 324.538C487.219 325.075 487.384 325.673 487.384 326.332V328.412C487.384 329.071 487.219 329.669 486.89 330.206C486.56 330.743 486.127 331.177 485.59 331.506C485.052 331.835 484.446 332 483.77 332H475.632ZM499.947 332C499.289 332 498.682 331.835 498.127 331.506C497.59 331.177 497.157 330.743 496.827 330.206C496.515 329.669 496.359 329.071 496.359 328.412V322.744H508.267V320.638C508.267 320.551 508.233 320.482 508.163 320.43C508.111 320.361 508.042 320.326 507.955 320.326H496.359V316.92H508.085C508.744 316.92 509.342 317.085 509.879 317.414C510.434 317.743 510.867 318.177 511.179 318.714C511.509 319.251 511.673 319.849 511.673 320.508V332H499.947ZM500.077 328.594H508.267V325.812H499.765V328.282C499.765 328.369 499.791 328.447 499.843 328.516C499.913 328.568 499.991 328.594 500.077 328.594ZM513.405 332V316.92H525.131C525.789 316.92 526.387 317.085 526.925 317.414C527.479 317.743 527.913 318.177 528.225 318.714C528.554 319.251 528.719 319.849 528.719 320.508V332H525.313V320.638C525.313 320.551 525.278 320.482 525.209 320.43C525.157 320.361 525.087 320.326 525.001 320.326H517.123C517.036 320.326 516.958 320.361 516.889 320.43C516.837 320.482 516.811 320.551 516.811 320.638V332H513.405ZM533.51 332C532.834 332 532.227 331.835 531.69 331.506C531.153 331.177 530.719 330.743 530.39 330.206C530.078 329.669 529.922 329.071 529.922 328.412V320.508C529.922 319.849 530.078 319.251 530.39 318.714C530.719 318.177 531.153 317.743 531.69 317.414C532.227 317.085 532.834 316.92 533.51 316.92H541.856V311.98H545.262V332H533.51ZM533.666 328.594H541.544C541.631 328.594 541.7 328.568 541.752 328.516C541.821 328.447 541.856 328.369 541.856 328.282V320.638C541.856 320.551 541.821 320.482 541.752 320.43C541.7 320.361 541.631 320.326 541.544 320.326H533.666C533.579 320.326 533.501 320.361 533.432 320.43C533.38 320.482 533.354 320.551 533.354 320.638V328.282C533.354 328.369 533.38 328.447 533.432 328.516C533.501 328.568 533.579 328.594 533.666 328.594ZM557.993 332C557.335 332 556.737 331.835 556.199 331.506C555.662 331.177 555.229 330.743 554.899 330.206C554.57 329.669 554.405 329.071 554.405 328.412V311.954H557.837V328.282C557.837 328.369 557.863 328.447 557.915 328.516C557.985 328.568 558.063 328.594 558.149 328.594H561.035V332H557.993ZM565.821 332C565.162 332 564.555 331.835 564.001 331.506C563.463 331.177 563.03 330.743 562.701 330.206C562.389 329.669 562.233 329.071 562.233 328.412V322.744H574.141V320.638C574.141 320.551 574.106 320.482 574.037 320.43C573.985 320.361 573.915 320.326 573.829 320.326H562.233V316.92H573.959C574.617 316.92 575.215 317.085 575.753 317.414C576.307 317.743 576.741 318.177 577.053 318.714C577.382 319.251 577.547 319.849 577.547 320.508V332H565.821ZM565.951 328.594H574.141V325.812H565.639V328.282C565.639 328.369 565.665 328.447 565.717 328.516C565.786 328.568 565.864 328.594 565.951 328.594ZM583.119 332C582.461 332 581.863 331.835 581.325 331.506C580.788 331.177 580.355 330.743 580.025 330.206C579.696 329.669 579.531 329.071 579.531 328.412V312.292H582.937V316.92H588.813V320.326H582.937V328.282C582.937 328.369 582.963 328.447 583.015 328.516C583.085 328.568 583.163 328.594 583.249 328.594H588.813V332H583.119ZM593.688 332C593.029 332 592.431 331.835 591.894 331.506C591.356 331.177 590.923 330.743 590.594 330.206C590.264 329.669 590.1 329.071 590.1 328.412V320.508C590.1 319.849 590.264 319.251 590.594 318.714C590.923 318.177 591.356 317.743 591.894 317.414C592.431 317.085 593.029 316.92 593.688 316.92H601.826C602.484 316.92 603.082 317.085 603.62 317.414C604.174 317.743 604.608 318.177 604.92 318.714C605.249 319.251 605.414 319.849 605.414 320.508V326.176H593.506V328.282C593.506 328.369 593.532 328.447 593.584 328.516C593.653 328.568 593.731 328.594 593.818 328.594H605.414V332H593.688ZM593.506 323.108H602.008V320.638C602.008 320.551 601.973 320.482 601.904 320.43C601.852 320.361 601.782 320.326 601.696 320.326H593.818C593.731 320.326 593.653 320.361 593.584 320.43C593.532 320.482 593.506 320.551 593.506 320.638V323.108ZM610.654 332C609.995 332 609.397 331.835 608.86 331.506C608.323 331.177 607.889 330.743 607.56 330.206C607.231 329.669 607.066 329.071 607.066 328.412V327.84H610.472V328.282C610.472 328.369 610.498 328.447 610.55 328.516C610.619 328.568 610.697 328.594 610.784 328.594H618.662C618.749 328.594 618.818 328.568 618.87 328.516C618.939 328.447 618.974 328.369 618.974 328.282V326.488C618.974 326.401 618.939 326.332 618.87 326.28C618.818 326.211 618.749 326.176 618.662 326.176H610.654C609.995 326.176 609.397 326.011 608.86 325.682C608.323 325.353 607.889 324.919 607.56 324.382C607.231 323.845 607.066 323.247 607.066 322.588V320.508C607.066 319.849 607.231 319.251 607.56 318.714C607.889 318.177 608.323 317.743 608.86 317.414C609.397 317.085 609.995 316.92 610.654 316.92H618.792C619.468 316.92 620.075 317.085 620.612 317.414C621.149 317.743 621.583 318.177 621.912 318.714C622.241 319.251 622.406 319.849 622.406 320.508V321.08H618.974V320.638C618.974 320.551 618.939 320.482 618.87 320.43C618.818 320.361 618.749 320.326 618.662 320.326H610.784C610.697 320.326 610.619 320.361 610.55 320.43C610.498 320.482 610.472 320.551 610.472 320.638V322.432C610.472 322.519 610.498 322.597 610.55 322.666C610.619 322.718 610.697 322.744 610.784 322.744H618.792C619.468 322.744 620.075 322.909 620.612 323.238C621.149 323.567 621.583 324.001 621.912 324.538C622.241 325.075 622.406 325.673 622.406 326.332V328.412C622.406 329.071 622.241 329.669 621.912 330.206C621.583 330.743 621.149 331.177 620.612 331.506C620.075 331.835 619.468 332 618.792 332H610.654ZM627.828 332C627.17 332 626.572 331.835 626.034 331.506C625.497 331.177 625.064 330.743 624.734 330.206C624.405 329.669 624.24 329.071 624.24 328.412V312.292H627.646V316.92H633.522V320.326H627.646V328.282C627.646 328.369 627.672 328.447 627.724 328.516C627.794 328.568 627.872 328.594 627.958 328.594H633.522V332H627.828ZM645.616 332C644.957 332 644.351 331.835 643.796 331.506C643.259 331.177 642.825 330.743 642.496 330.206C642.184 329.669 642.028 329.071 642.028 328.412V316.92H645.434V328.282C645.434 328.369 645.46 328.447 645.512 328.516C645.581 328.568 645.659 328.594 645.746 328.594H653.624C653.711 328.594 653.78 328.568 653.832 328.516C653.901 328.447 653.936 328.369 653.936 328.282V316.92H657.342V328.412C657.342 329.071 657.177 329.669 656.848 330.206C656.536 330.743 656.111 331.177 655.574 331.506C655.037 331.835 654.43 332 653.754 332H645.616ZM658.768 337.98V316.92H670.494C671.153 316.92 671.751 317.085 672.288 317.414C672.843 317.743 673.276 318.177 673.588 318.714C673.917 319.251 674.082 319.849 674.082 320.508V328.412C674.082 329.071 673.917 329.669 673.588 330.206C673.276 330.743 672.843 331.177 672.288 331.506C671.751 331.835 671.153 332 670.494 332H662.174V337.98H658.768ZM662.486 328.594H670.364C670.451 328.594 670.52 328.568 670.572 328.516C670.641 328.447 670.676 328.369 670.676 328.282V320.638C670.676 320.551 670.641 320.482 670.572 320.43C670.52 320.361 670.451 320.326 670.364 320.326H662.486C662.399 320.326 662.321 320.361 662.252 320.43C662.2 320.482 662.174 320.551 662.174 320.638V328.282C662.174 328.369 662.2 328.447 662.252 328.516C662.321 328.568 662.399 328.594 662.486 328.594ZM678.239 332C677.563 332 676.956 331.835 676.419 331.506C675.881 331.177 675.448 330.743 675.119 330.206C674.807 329.669 674.651 329.071 674.651 328.412V320.508C674.651 319.849 674.807 319.251 675.119 318.714C675.448 318.177 675.881 317.743 676.419 317.414C676.956 317.085 677.563 316.92 678.239 316.92H686.585V311.98H689.991V332H678.239ZM678.395 328.594H686.273C686.359 328.594 686.429 328.568 686.481 328.516C686.55 328.447 686.585 328.369 686.585 328.282V320.638C686.585 320.551 686.55 320.482 686.481 320.43C686.429 320.361 686.359 320.326 686.273 320.326H678.395C678.308 320.326 678.23 320.361 678.161 320.43C678.109 320.482 678.083 320.551 678.083 320.638V328.282C678.083 328.369 678.109 328.447 678.161 328.516C678.23 328.568 678.308 328.594 678.395 328.594ZM695.555 332C694.896 332 694.289 331.835 693.735 331.506C693.197 331.177 692.764 330.743 692.435 330.206C692.123 329.669 691.967 329.071 691.967 328.412V322.744H703.875V320.638C703.875 320.551 703.84 320.482 703.771 320.43C703.719 320.361 703.649 320.326 703.563 320.326H691.967V316.92H703.693C704.351 316.92 704.949 317.085 705.487 317.414C706.041 317.743 706.475 318.177 706.787 318.714C707.116 319.251 707.281 319.849 707.281 320.508V332H695.555ZM695.685 328.594H703.875V325.812H695.373V328.282C695.373 328.369 695.399 328.447 695.451 328.516C695.52 328.568 695.598 328.594 695.685 328.594ZM712.853 332C712.195 332 711.597 331.835 711.059 331.506C710.522 331.177 710.089 330.743 709.759 330.206C709.43 329.669 709.265 329.071 709.265 328.412V312.292H712.671V316.92H718.547V320.326H712.671V328.282C712.671 328.369 712.697 328.447 712.749 328.516C712.819 328.568 712.897 328.594 712.983 328.594H718.547V332H712.853ZM723.422 332C722.763 332 722.165 331.835 721.628 331.506C721.09 331.177 720.657 330.743 720.328 330.206C719.998 329.669 719.834 329.071 719.834 328.412V320.508C719.834 319.849 719.998 319.251 720.328 318.714C720.657 318.177 721.09 317.743 721.628 317.414C722.165 317.085 722.763 316.92 723.422 316.92H731.56C732.218 316.92 732.816 317.085 733.354 317.414C733.908 317.743 734.342 318.177 734.654 318.714C734.983 319.251 735.148 319.849 735.148 320.508V326.176H723.24V328.282C723.24 328.369 723.266 328.447 723.318 328.516C723.387 328.568 723.465 328.594 723.552 328.594H735.148V332H723.422ZM723.24 323.108H731.742V320.638C731.742 320.551 731.707 320.482 731.638 320.43C731.586 320.361 731.516 320.326 731.43 320.326H723.552C723.465 320.326 723.387 320.361 723.318 320.43C723.266 320.482 723.24 320.551 723.24 320.638V323.108Z" fill="white"/>
<path d="M330.967 227.281H362.514C368.733 227.281 373.749 228.125 377.561 229.812C381.405 231.5 384.577 233.922 387.077 237.078C389.577 240.234 391.389 243.906 392.514 248.094C393.639 252.281 394.202 256.719 394.202 261.406C394.202 268.75 393.358 274.453 391.671 278.516C390.014 282.547 387.702 285.938 384.733 288.688C381.764 291.406 378.577 293.219 375.171 294.125C370.514 295.375 366.296 296 362.514 296H330.967V227.281ZM352.202 242.844V280.391H357.405C361.842 280.391 364.999 279.906 366.874 278.938C368.749 277.938 370.217 276.219 371.28 273.781C372.342 271.312 372.874 267.328 372.874 261.828C372.874 254.547 371.686 249.562 369.311 246.875C366.936 244.188 362.999 242.844 357.499 242.844H352.202ZM403.369 227.281H424.65V296H403.369V227.281ZM433.348 273.266L453.551 272C453.989 275.281 454.879 277.781 456.223 279.5C458.411 282.281 461.536 283.672 465.598 283.672C468.629 283.672 470.957 282.969 472.582 281.562C474.239 280.125 475.067 278.469 475.067 276.594C475.067 274.812 474.286 273.219 472.723 271.812C471.161 270.406 467.536 269.078 461.848 267.828C452.536 265.734 445.895 262.953 441.926 259.484C437.926 256.016 435.926 251.594 435.926 246.219C435.926 242.688 436.942 239.359 438.973 236.234C441.036 233.078 444.114 230.609 448.207 228.828C452.332 227.016 457.973 226.109 465.129 226.109C473.911 226.109 480.598 227.75 485.192 231.031C489.817 234.281 492.567 239.469 493.442 246.594L473.426 247.766C472.895 244.672 471.77 242.422 470.051 241.016C468.364 239.609 466.02 238.906 463.02 238.906C460.551 238.906 458.692 239.438 457.442 240.5C456.192 241.531 455.567 242.797 455.567 244.297C455.567 245.391 456.082 246.375 457.114 247.25C458.114 248.156 460.489 249 464.239 249.781C473.52 251.781 480.161 253.812 484.161 255.875C488.192 257.906 491.114 260.438 492.926 263.469C494.77 266.5 495.692 269.891 495.692 273.641C495.692 278.047 494.473 282.109 492.036 285.828C489.598 289.547 486.192 292.375 481.817 294.312C477.442 296.219 471.926 297.172 465.27 297.172C453.582 297.172 445.489 294.922 440.989 290.422C436.489 285.922 433.942 280.203 433.348 273.266ZM549.296 267.922L567.906 273.547C566.656 278.766 564.687 283.125 561.999 286.625C559.312 290.125 555.968 292.766 551.968 294.547C547.999 296.328 542.937 297.219 536.781 297.219C529.312 297.219 523.202 296.141 518.452 293.984C513.734 291.797 509.656 287.969 506.218 282.5C502.781 277.031 501.062 270.031 501.062 261.5C501.062 250.125 504.077 241.391 510.109 235.297C516.171 229.172 524.734 226.109 535.796 226.109C544.452 226.109 551.249 227.859 556.187 231.359C561.156 234.859 564.843 240.234 567.249 247.484L548.499 251.656C547.843 249.562 547.156 248.031 546.437 247.062C545.249 245.438 543.796 244.188 542.077 243.312C540.359 242.438 538.437 242 536.312 242C531.499 242 527.812 243.938 525.249 247.812C523.312 250.688 522.343 255.203 522.343 261.359C522.343 268.984 523.499 274.219 525.812 277.062C528.124 279.875 531.374 281.281 535.562 281.281C539.624 281.281 542.687 280.141 544.749 277.859C546.843 275.578 548.359 272.266 549.296 267.922ZM572.713 261.688C572.713 250.469 575.838 241.734 582.088 235.484C588.338 229.234 597.041 226.109 608.197 226.109C619.635 226.109 628.447 229.188 634.635 235.344C640.822 241.469 643.916 250.062 643.916 261.125C643.916 269.156 642.557 275.75 639.838 280.906C637.151 286.031 633.244 290.031 628.119 292.906C623.026 295.75 616.666 297.172 609.041 297.172C601.291 297.172 594.869 295.938 589.776 293.469C584.713 291 580.604 287.094 577.447 281.75C574.291 276.406 572.713 269.719 572.713 261.688ZM593.947 261.781C593.947 268.719 595.229 273.703 597.791 276.734C600.385 279.766 603.901 281.281 608.338 281.281C612.901 281.281 616.432 279.797 618.932 276.828C621.432 273.859 622.682 268.531 622.682 260.844C622.682 254.375 621.369 249.656 618.744 246.688C616.151 243.688 612.619 242.188 608.151 242.188C603.869 242.188 600.432 243.703 597.838 246.734C595.244 249.766 593.947 254.781 593.947 261.781ZM652.755 296V227.281H688.146C694.708 227.281 699.724 227.844 703.193 228.969C706.661 230.094 709.458 232.188 711.583 235.25C713.708 238.281 714.771 241.984 714.771 246.359C714.771 250.172 713.958 253.469 712.333 256.25C710.708 259 708.474 261.234 705.63 262.953C703.818 264.047 701.333 264.953 698.177 265.672C700.708 266.516 702.552 267.359 703.708 268.203C704.489 268.766 705.614 269.969 707.083 271.812C708.583 273.656 709.583 275.078 710.083 276.078L720.349 296H696.349L685.005 275C683.568 272.281 682.286 270.516 681.161 269.703C679.63 268.641 677.896 268.109 675.958 268.109H674.083V296H652.755ZM674.083 255.125H683.036C684.005 255.125 685.88 254.812 688.661 254.188C690.068 253.906 691.208 253.188 692.083 252.031C692.989 250.875 693.443 249.547 693.443 248.047C693.443 245.828 692.739 244.125 691.333 242.938C689.927 241.75 687.286 241.156 683.411 241.156H674.083V255.125ZM724.594 227.281H756.141C762.359 227.281 767.375 228.125 771.188 229.812C775.031 231.5 778.203 233.922 780.703 237.078C783.203 240.234 785.016 243.906 786.141 248.094C787.266 252.281 787.828 256.719 787.828 261.406C787.828 268.75 786.984 274.453 785.297 278.516C783.641 282.547 781.328 285.938 778.359 288.688C775.391 291.406 772.203 293.219 768.797 294.125C764.141 295.375 759.922 296 756.141 296H724.594V227.281ZM745.828 242.844V280.391H751.031C755.469 280.391 758.625 279.906 760.5 278.938C762.375 277.938 763.844 276.219 764.906 273.781C765.969 271.312 766.5 267.328 766.5 261.828C766.5 254.547 765.312 249.562 762.938 246.875C760.562 244.188 756.625 242.844 751.125 242.844H745.828Z" fill="#F1F3FB"/>
<path d="M330.972 280.392H352.202V272.497L330.972 262.445L330.972 280.392Z" fill="#3D4B49"/>
<path d="M724.593 280.392H745.832V272.497L724.593 262.445L724.593 280.392Z" fill="#344B4A"/>
</g>
<defs>
<clipPath id="clip0_1148_101">
<rect width="950" height="534" rx="100" fill="white"/>
</clipPath>
</defs>
</svg>
