<svg width="1044" height="174" viewBox="0 0 1044 174" fill="none" xmlns="http://www.w3.org/2000/svg">
<path d="M97.1634 90.86L95.7642 92.289L95.7642 92.289L97.1634 90.86ZM105.803 111.38H103.803V113.38H105.803V111.38ZM114.443 111.38H116.443V109.38H114.443V111.38ZM103.103 138.02L101.712 136.583L101.706 136.589L101.701 136.594L103.103 138.02ZM17.0634 149H15.0634V151H17.0634V149ZM17.0634 122.36V120.36H15.0634V122.36H17.0634ZM84.0234 103.82L82.6092 105.234L82.6294 105.254L82.6502 105.274L84.0234 103.82ZM19.9434 89.6L18.5292 91.0142L18.5406 91.0256L18.5522 91.0368L19.9434 89.6ZM8.78344 62.96V60.96H6.78344V62.96H8.78344ZM26.6034 62.96L28.6013 62.8671L28.5126 60.96H26.6034V62.96ZM34.8834 76.64L33.6834 78.24L33.7037 78.2552L33.7244 78.2699L34.8834 76.64ZM42.9834 73.94L41.9545 75.655L41.9943 75.6789L42.0352 75.7009L42.9834 73.94ZM35.7834 66.92L34.0384 67.8972L34.0619 67.9392L34.0874 67.98L35.7834 66.92ZM33.2634 57.02H35.2634V55.02H33.2634V57.02ZM14.7234 57.02H12.7234V59.02H14.7234V57.02ZM25.8834 30.56L24.4922 29.1232L24.4865 29.1287L24.4808 29.1343L25.8834 30.56ZM119.483 19.58L120.898 20.9942L124.312 17.58H119.483V19.58ZM92.8434 46.22V48.22H93.6719L94.2577 47.6342L92.8434 46.22ZM45.1434 49.46L46.5167 50.914L46.5375 50.8944L46.5577 50.8742L45.1434 49.46ZM47.3034 66.56L46.3112 68.2965L46.3365 68.311L46.3623 68.3247L47.3034 66.56ZM95.0034 71.06L94.1684 72.8773L94.1977 72.8908L94.2273 72.9033L95.0034 71.06ZM107.603 78.98L108.954 77.5048L108.937 77.4896L108.92 77.4748L107.603 78.98ZM120.383 105.62V107.62H122.383V105.62H120.383ZM112.283 105.62L110.286 105.715L110.376 107.62H112.283V105.62ZM102.023 85.46L100.651 86.9148L100.665 86.9281L100.679 86.9411L102.023 85.46ZM76.2834 84.4C83.9275 84.4 90.3831 87.02 95.7642 92.289L98.5627 89.431C92.4238 83.42 84.9594 80.4 76.2834 80.4V84.4ZM95.7642 92.289C101.141 97.5539 103.803 103.879 103.803 111.38H107.803C107.803 102.801 104.706 95.4461 98.5627 89.431L95.7642 92.289ZM105.803 113.38H114.443V109.38H105.803V113.38ZM112.443 111.38C112.443 121.274 108.887 129.637 101.712 136.583L104.495 139.457C112.44 131.763 116.443 122.366 116.443 111.38H112.443ZM101.701 136.594C94.635 143.546 86.1988 147 76.2834 147V151C87.2481 151 96.6919 147.134 104.506 139.446L101.701 136.594ZM76.2834 147H17.0634V151H76.2834V147ZM19.0634 149V122.36H15.0634V149H19.0634ZM17.0634 124.36H76.2834V120.36H17.0634V124.36ZM76.2834 124.36C79.8246 124.36 82.9103 123.062 85.4377 120.534L82.6092 117.706C80.8166 119.498 78.7423 120.36 76.2834 120.36V124.36ZM85.4377 120.534C87.9651 118.007 89.2634 114.921 89.2634 111.38H85.2634C85.2634 113.839 84.4018 115.913 82.6092 117.706L85.4377 120.534ZM89.2634 111.38C89.2634 107.836 87.9611 104.788 85.3967 102.366L82.6502 105.274C84.4058 106.932 85.2634 108.924 85.2634 111.38H89.2634ZM85.4377 102.406C82.9103 99.8784 79.8246 98.58 76.2834 98.58V102.58C78.7423 102.58 80.8166 103.442 82.6092 105.234L85.4377 102.406ZM76.2834 98.58H46.9434V102.58H76.2834V98.58ZM46.9434 98.58C37.0273 98.58 28.5249 95.1252 21.3347 88.1632L18.5522 91.0368C26.4819 98.7148 35.9796 102.58 46.9434 102.58V98.58ZM21.3577 88.1858C14.2845 81.1126 10.7834 72.738 10.7834 62.96H6.78344C6.78344 73.8219 10.7224 83.2074 18.5292 91.0142L21.3577 88.1858ZM8.78344 64.96H26.6034V60.96H8.78344V64.96ZM24.6056 63.0529C24.8807 68.9678 28.0694 74.0295 33.6834 78.24L36.0834 75.04C31.1374 71.3305 28.8062 67.2722 28.6013 62.8671L24.6056 63.0529ZM33.7244 78.2699C39.3849 82.2952 45.1816 84.4 51.0834 84.4V80.4C46.1853 80.4 41.182 78.6648 36.0425 75.0101L33.7244 78.2699ZM51.0834 84.4H76.2834V80.4H51.0834V84.4ZM52.8834 74.46C49.7407 74.46 46.7658 73.7051 43.9316 72.1791L42.0352 75.7009C45.4411 77.5349 49.0662 78.46 52.8834 78.46V74.46ZM44.0124 72.225C41.2749 70.5825 39.1068 68.4638 37.4794 65.86L34.0874 67.98C36.0601 71.1362 38.6919 73.6975 41.9545 75.655L44.0124 72.225ZM37.5285 65.9428C36.0236 63.2556 35.2634 60.2945 35.2634 57.02H31.2634C31.2634 60.9455 32.1833 64.5844 34.0384 67.8972L37.5285 65.9428ZM33.2634 55.02H14.7234V59.02H33.2634V55.02ZM16.7234 57.02C16.7234 47.2429 20.2233 38.9345 27.2861 31.9857L24.4808 29.1343C16.6635 36.8255 12.7234 46.1571 12.7234 57.02H16.7234ZM27.2747 31.9968C34.4649 25.0348 42.9673 21.58 52.8834 21.58V17.58C41.9196 17.58 32.4219 21.4452 24.4922 29.1232L27.2747 31.9968ZM52.8834 21.58H119.483V17.58H52.8834V21.58ZM118.069 18.1658L91.4292 44.8058L94.2577 47.6342L120.898 20.9942L118.069 18.1658ZM92.8434 44.22H52.8834V48.22H92.8434V44.22ZM52.8834 44.22C49.3423 44.22 46.2566 45.5184 43.7292 48.0458L46.5577 50.8742C48.3503 49.0816 50.4246 48.22 52.8834 48.22V44.22ZM43.7702 48.006C41.2057 50.4279 39.9034 53.4758 39.9034 57.02H43.9034C43.9034 54.5642 44.7611 52.572 46.5167 50.914L43.7702 48.006ZM39.9034 57.02C39.9034 59.3884 40.4648 61.5935 41.607 63.5923L45.0799 61.6077C44.3021 60.2465 43.9034 58.7316 43.9034 57.02H39.9034ZM41.607 63.5923C42.7441 65.5823 44.3211 67.1593 46.3112 68.2965L48.2957 64.8235C46.9258 64.0407 45.8627 62.9777 45.0799 61.6077L41.607 63.5923ZM46.3623 68.3247C48.4333 69.4292 50.6146 70 52.8834 70V66C51.3122 66 49.7736 65.6108 48.2446 64.7953L46.3623 68.3247ZM52.8834 70H82.2234V66H52.8834V70ZM82.2234 70C85.9639 70 89.9394 70.9343 94.1684 72.8773L95.8384 69.2426C91.1875 67.1057 86.643 66 82.2234 66V70ZM94.2273 72.9033C98.584 74.7376 102.602 77.2616 106.286 80.4851L108.92 77.4748C104.924 73.9784 100.543 71.2224 95.7796 69.2167L94.2273 72.9033ZM106.253 80.4552C114.432 87.9427 118.383 96.3124 118.383 105.62H122.383C122.383 95.0076 117.815 85.6173 108.954 77.5048L106.253 80.4552ZM120.383 103.62H112.283V107.62H120.383V103.62ZM114.281 105.525C113.892 97.351 110.174 90.1554 103.367 83.9789L100.679 86.9411C106.833 92.5246 109.955 98.769 110.286 105.715L114.281 105.525ZM103.396 84.0052C96.772 77.7563 89.7043 74.46 82.2234 74.46V78.46C88.4226 78.46 94.5548 81.1637 100.651 86.9148L103.396 84.0052ZM82.2234 74.46H52.8834V78.46H82.2234V74.46ZM143.556 97.34L145.453 96.7075L144.88 94.9895L143.114 95.3894L143.556 97.34ZM134.016 99.5L132.088 100.032L132.595 101.872L134.457 101.451L134.016 99.5ZM132.036 77.18L130.044 76.9989L130.042 77.0139L130.041 77.0289L132.036 77.18ZM137.976 55.58L136.187 54.6856L136.187 54.6856L137.976 55.58ZM141.216 50L142.88 51.1094L142.888 51.0977L142.895 51.0858L141.216 50ZM173.076 25.52L173.698 27.4207L173.708 27.4174L173.076 25.52ZM219.156 28.94L220.062 27.1572L220.062 27.1569L219.156 28.94ZM237.516 43.34L235.999 44.6441L235.999 44.6441L237.516 43.34ZM249.216 63.68L249.638 65.6348L251.85 65.1567L251.104 63.0206L249.216 63.68ZM242.556 65.12L240.677 65.8072L241.276 67.4429L242.978 67.0748L242.556 65.12ZM234.996 51.26L233.391 52.454L233.396 52.46L234.996 51.26ZM220.956 38.3L219.869 39.9791L219.879 39.9856L219.889 39.9918L220.956 38.3ZM217.896 36.32L218.982 34.6409L217.305 33.5558L216.218 35.2313L217.896 36.32ZM206.916 53.24L206.011 55.0237L207.614 55.8371L208.593 54.3287L206.916 53.24ZM181.356 51.26L180.731 49.36L180.723 49.3626L181.356 51.26ZM162.096 68L160.312 67.0952L160.307 67.1056L162.096 68ZM160.296 93.2L162.2 92.5891L162.197 92.5783L162.193 92.5675L160.296 93.2ZM171.276 109.04L172.952 110.131L173.944 108.607L172.521 107.475L171.276 109.04ZM161.196 124.52L159.987 126.113L161.699 127.412L162.872 125.611L161.196 124.52ZM152.016 115.34L150.421 116.547L150.422 116.549L152.016 115.34ZM144.636 100.58L146.557 100.025L146.546 99.986L146.533 99.9475L144.636 100.58ZM247.776 71.6L249.712 71.0992L249.232 69.2426L247.357 69.6444L247.776 71.6ZM249.216 93.74L247.227 93.5259L247.226 93.541L247.224 93.5562L249.216 93.74ZM243.276 115.16L241.487 114.266L241.487 114.266L243.276 115.16ZM228.696 133.88L230 135.396L230.002 135.394L228.696 133.88ZM208.356 145.4L208.971 147.303L208.98 147.3L208.988 147.297L208.356 145.4ZM162.096 141.8L161.189 143.583L161.19 143.583L162.096 141.8ZM143.736 127.58L142.217 128.882L142.225 128.89L142.232 128.899L143.736 127.58ZM132.216 107.42L131.823 105.459L129.57 105.91L130.327 108.079L132.216 107.42ZM138.516 106.16L140.379 105.433L139.769 103.87L138.123 104.199L138.516 106.16ZM146.256 119.84L147.86 118.646L147.85 118.632L147.839 118.618L146.256 119.84ZM160.116 132.8L161.225 131.136L161.212 131.127L161.199 131.119L160.116 132.8ZM163.356 134.96L162.246 136.624L163.947 137.758L165.044 136.033L163.356 134.96ZM174.336 117.68L175.22 115.886L173.61 115.093L172.648 116.607L174.336 117.68ZM199.716 119.48L199.11 117.574L199.097 117.578L199.083 117.583L199.716 119.48ZM217.356 105.98L219.043 107.054L219.047 107.047L219.052 107.04L217.356 105.98ZM219.156 102.92L220.904 103.891L220.925 103.853L220.944 103.814L219.156 102.92ZM220.956 77.54L219.055 78.1615L219.056 78.1646L220.956 77.54ZM210.156 61.88L208.476 60.7935L207.502 62.2991L208.893 63.4311L210.156 61.88ZM220.056 46.58L221.264 44.9866L219.547 43.684L218.376 45.4935L220.056 46.58ZM229.056 55.76L227.436 56.933L227.458 56.9638L227.482 56.9938L229.056 55.76ZM236.616 70.52L234.694 71.0751L234.705 71.114L234.718 71.1525L236.616 70.52ZM237.696 73.76L235.798 74.3925L236.364 76.0907L238.115 75.7156L237.696 73.76ZM143.114 95.3894L133.574 97.5494L134.457 101.451L143.997 99.2906L143.114 95.3894ZM135.944 98.9681C134.091 92.2514 133.446 85.0442 134.03 77.3311L130.041 77.0289C129.426 85.1557 130.101 92.8286 132.088 100.032L135.944 98.9681ZM134.027 77.3611C134.727 69.6651 136.646 62.7105 139.764 56.4744L136.187 54.6856C132.825 61.4095 130.784 68.8549 130.044 76.9989L134.027 77.3611ZM139.764 56.4744C140.687 54.6292 141.725 52.8409 142.88 51.1094L139.552 48.8906C138.306 50.7591 137.184 52.6908 136.187 54.6856L139.764 56.4744ZM142.895 51.0858C150.324 39.5941 160.569 31.7195 173.698 27.4207L172.453 23.6193C158.462 28.2005 147.467 36.6459 139.536 48.9142L142.895 51.0858ZM173.708 27.4174C189.041 22.3064 203.847 23.4054 218.25 30.7231L220.062 27.1569C204.704 19.3545 188.79 18.1736 172.443 23.6226L173.708 27.4174ZM218.249 30.7228C225.097 34.205 231.01 38.8426 235.999 44.6441L239.032 42.0359C233.701 35.8374 227.374 30.875 220.062 27.1572L218.249 30.7228ZM235.999 44.6441C240.994 50.452 244.769 57.0128 247.327 64.3394L251.104 63.0206C248.382 55.2272 244.357 48.228 239.032 42.0359L235.999 44.6441ZM248.793 61.7252L242.133 63.1652L242.978 67.0748L249.638 65.6348L248.793 61.7252ZM244.434 64.4328C242.565 59.3236 239.949 54.5316 236.596 50.06L233.396 52.46C236.522 56.6284 238.947 61.0764 240.677 65.8072L244.434 64.4328ZM236.6 50.066C232.611 44.7054 227.748 40.2176 222.022 36.6081L219.889 39.9918C225.204 43.3424 229.7 47.4946 233.391 52.454L236.6 50.066ZM222.042 36.6209L218.982 34.6409L216.809 37.9991L219.869 39.9791L222.042 36.6209ZM216.218 35.2313L205.238 52.1513L208.593 54.3287L219.573 37.4087L216.218 35.2313ZM207.82 51.4563C199.07 47.0177 190 46.3127 180.731 49.36L181.98 53.1599C190.231 50.4472 198.201 51.0623 206.011 55.0237L207.82 51.4563ZM180.723 49.3626C171.573 52.4127 164.745 58.356 160.312 67.0952L163.879 68.9047C167.846 61.084 173.858 55.8673 181.988 53.1574L180.723 49.3626ZM160.307 67.1056C155.99 75.7391 155.35 84.6883 158.398 93.8325L162.193 92.5675C159.481 84.4317 160.041 76.5809 163.884 68.8944L160.307 67.1056ZM158.391 93.8109C160.553 100.551 164.445 106.162 170.031 110.605L172.521 107.475C167.547 103.518 164.118 98.5688 162.2 92.5891L158.391 93.8109ZM169.6 107.949L159.52 123.429L162.872 125.611L172.952 110.131L169.6 107.949ZM162.404 122.927C159.07 120.397 156.139 117.466 153.609 114.131L150.422 116.549C153.172 120.174 156.362 123.363 159.987 126.113L162.404 122.927ZM153.61 114.133C150.4 109.89 148.05 105.192 146.557 100.025L142.714 101.135C144.342 106.768 146.911 111.91 150.421 116.547L153.61 114.133ZM146.533 99.9475L145.453 96.7075L141.658 97.9725L142.738 101.212L146.533 99.9475ZM245.839 72.1008C247.574 78.8071 248.044 85.9435 247.227 93.5259L251.204 93.9541C252.068 85.9365 251.578 78.3129 249.712 71.0992L245.839 72.1008ZM247.224 93.5562C246.525 101.129 244.607 108.025 241.487 114.266L245.064 116.054C248.424 109.335 250.466 101.951 251.207 93.9238L247.224 93.5562ZM241.487 114.266C238.006 121.228 233.31 127.258 227.389 132.366L230.002 135.394C236.321 129.942 241.346 123.492 245.064 116.054L241.487 114.266ZM227.392 132.364C221.59 137.353 215.038 141.064 207.723 143.503L208.988 147.297C216.793 144.696 223.801 140.727 230 135.396L227.392 132.364ZM207.74 143.497C192.281 148.495 177.408 147.336 163.002 140.017L161.19 143.583C176.544 151.384 192.511 152.625 208.971 147.303L207.74 143.497ZM163.002 140.017C156.145 136.531 150.229 131.947 145.239 126.261L142.232 128.899C147.563 134.973 153.886 139.869 161.189 143.583L163.002 140.017ZM145.254 126.278C140.382 120.594 136.665 114.094 134.104 106.761L130.327 108.079C133.047 115.866 137.009 122.806 142.217 128.882L145.254 126.278ZM132.608 109.381L138.908 108.121L138.123 104.199L131.823 105.459L132.608 109.381ZM136.652 106.887C138.642 111.985 141.316 116.712 144.672 121.062L147.839 118.618C144.715 114.568 142.229 110.175 140.379 105.433L136.652 106.887ZM144.651 121.034C148.634 126.386 153.43 130.871 159.032 134.481L161.199 131.119C156.001 127.769 151.557 123.614 147.86 118.646L144.651 121.034ZM159.006 134.464L162.246 136.624L164.465 133.296L161.225 131.136L159.006 134.464ZM165.044 136.033L176.024 118.753L172.648 116.607L161.668 133.887L165.044 136.033ZM173.452 119.474C182.197 123.783 191.201 124.426 200.348 121.377L199.083 117.583C190.95 120.294 183.035 119.737 175.22 115.886L173.452 119.474ZM200.321 121.386C208.321 118.846 214.587 114.056 219.043 107.054L215.668 104.906C211.724 111.104 206.23 115.314 199.11 117.574L200.321 121.386ZM219.052 107.04C219.671 106.048 220.289 104.999 220.904 103.891L217.407 101.949C216.822 103.001 216.24 103.992 215.66 104.92L219.052 107.04ZM220.944 103.814C225.263 95.1769 225.898 86.1705 222.856 76.9154L219.056 78.1646C221.773 86.4295 221.208 94.3431 217.367 102.026L220.944 103.814ZM222.857 76.9185C220.696 70.3086 216.872 64.7676 211.418 60.3289L208.893 63.4311C213.76 67.3924 217.136 72.2913 219.055 78.1615L222.857 76.9185ZM211.835 62.9665L221.735 47.6665L218.376 45.4935L208.476 60.7935L211.835 62.9665ZM218.847 48.1734C222.173 50.6963 225.033 53.6153 227.436 56.933L230.676 54.587C228.038 50.9447 224.899 47.7437 221.264 44.9866L218.847 48.1734ZM227.482 56.9938C230.804 61.2326 233.206 65.9224 234.694 71.0751L238.537 69.9649C236.906 64.3176 234.267 59.1673 230.63 54.5262L227.482 56.9938ZM234.718 71.1525L235.798 74.3925L239.593 73.1275L238.513 69.8875L234.718 71.1525ZM238.115 75.7156L248.195 73.5556L247.357 69.6444L237.277 71.8044L238.115 75.7156ZM315.54 114.44H317.54V112.44H315.54V114.44ZM315.54 126.86V128.86H317.54V126.86H315.54ZM266.22 126.86H264.22V128.86H266.22V126.86ZM266.22 23.9L267.015 22.0649L264.22 20.8536V23.9H266.22ZM293.22 35.6H295.22V34.287L294.015 33.7649L293.22 35.6ZM293.22 114.44H291.22V116.44H293.22V114.44ZM322.92 121.82V119.82H320.92V121.82H322.92ZM354.96 121.82H356.96V119.82H354.96V121.82ZM354.96 149V151H356.96V149H354.96ZM273.6 149H271.6V151H273.6V149ZM273.6 134.24V132.24H271.6V134.24H273.6ZM322.92 134.24V136.24H324.92V134.24H322.92ZM313.54 114.44V126.86H317.54V114.44H313.54ZM315.54 124.86H266.22V128.86H315.54V124.86ZM268.22 126.86V23.9H264.22V126.86H268.22ZM265.425 25.7351L292.425 37.4351L294.015 33.7649L267.015 22.0649L265.425 25.7351ZM291.22 35.6V114.44H295.22V35.6H291.22ZM293.22 116.44H315.54V112.44H293.22V116.44ZM322.92 123.82H354.96V119.82H322.92V123.82ZM352.96 121.82V149H356.96V121.82H352.96ZM354.96 147H273.6V151H354.96V147ZM275.6 149V134.24H271.6V149H275.6ZM273.6 136.24H322.92V132.24H273.6V136.24ZM324.92 134.24V121.82H320.92V134.24H324.92ZM452.618 25.16V23.16H450.618V25.16H452.618ZM477.278 25.16H479.278V23.16H477.278V25.16ZM473.858 111.92L475.727 112.632L475.73 112.625L475.733 112.618L473.858 111.92ZM465.938 125.6L464.587 127.074L466.142 128.499L467.482 126.871L465.938 125.6ZM452.978 113.72L454.33 112.246L452.869 110.906L451.516 112.355L452.978 113.72ZM450.458 116.42L448.996 115.055L448.981 115.072L448.967 115.088L450.458 116.42ZM427.958 127.94L425.959 127.891L425.903 130.171L428.171 129.929L427.958 127.94ZM428.138 120.56L427.871 118.578L426.181 118.806L426.139 120.511L428.138 120.56ZM440.378 115.7L441.536 117.331L441.536 117.331L440.378 115.7ZM449.198 105.62L447.453 104.644L447.441 104.664L447.431 104.684L449.198 105.62ZM453.338 124.16L454.679 122.676L453.321 121.449L451.979 122.693L453.338 124.16ZM464.498 134.24L465.889 135.677L467.426 134.19L465.839 132.756L464.498 134.24ZM395.558 142.7L394.554 144.429L395.558 142.7ZM374.498 121.64L376.228 120.635L376.228 120.635L374.498 121.64ZM366.758 25.16L367.557 23.3263L364.758 22.1079V25.16H366.758ZM393.218 36.68L395.218 36.6864L395.223 35.3712L394.017 34.8463L393.218 36.68ZM393.038 92.84L391.038 92.8336V92.84H393.038ZM400.418 113.36L398.885 114.643L398.892 114.653L398.9 114.662L400.418 113.36ZM419.318 123.98L419.005 125.955L419.02 125.958L419.036 125.96L419.318 123.98ZM420.578 124.16L422.578 124.128L422.551 122.422L420.861 122.18L420.578 124.16ZM420.758 135.5L418.759 135.532L418.79 137.5H420.758V135.5ZM452.618 27.16H477.278V23.16H452.618V27.16ZM475.278 25.16V92.84H479.278V25.16H475.278ZM475.278 92.84C475.278 99.2042 474.18 105.328 471.984 111.222L475.733 112.618C478.097 106.272 479.278 99.6758 479.278 92.84H475.278ZM471.989 111.208C470.145 116.049 467.614 120.42 464.395 124.329L467.482 126.871C470.983 122.62 473.732 117.871 475.727 112.632L471.989 111.208ZM467.29 124.126L454.33 112.246L451.627 115.194L464.587 127.074L467.29 124.126ZM451.516 112.355L448.996 115.055L451.921 117.785L454.441 115.085L451.516 112.355ZM448.967 115.088C443.299 121.436 436.256 125.044 427.746 125.951L428.171 129.929C437.661 128.916 445.618 124.844 451.95 117.752L448.967 115.088ZM429.958 127.989L430.138 120.609L426.139 120.511L425.959 127.891L429.958 127.989ZM428.406 122.542C433.173 121.898 437.557 120.155 441.536 117.331L439.221 114.069C435.76 116.525 431.984 118.022 427.871 118.578L428.406 122.542ZM441.536 117.331C445.514 114.508 448.662 110.909 450.966 106.556L447.431 104.684C445.415 108.491 442.683 111.612 439.221 114.069L441.536 117.331ZM450.944 106.596C453.387 102.225 454.618 97.5704 454.618 92.66H450.618C450.618 96.8696 449.57 100.855 447.453 104.644L450.944 106.596ZM454.618 92.66V25.16H450.618V92.66H454.618ZM424.538 137.5C436.087 137.5 446.171 133.527 454.698 125.627L451.979 122.693C444.186 129.913 435.07 133.5 424.538 133.5V137.5ZM451.998 125.644L463.158 135.724L465.839 132.756L454.679 122.676L451.998 125.644ZM463.108 132.803C452.319 143.243 439.497 148.44 424.538 148.44V152.44C440.539 152.44 454.358 146.837 465.889 135.677L463.108 132.803ZM424.538 148.44C414.445 148.44 405.133 145.95 396.563 140.971L394.554 144.429C403.744 149.77 413.752 152.44 424.538 152.44V148.44ZM396.563 140.971C387.984 135.985 381.213 129.215 376.228 120.635L372.769 122.645C378.104 131.825 385.373 139.095 394.554 144.429L396.563 140.971ZM376.228 120.635C371.248 112.066 368.758 102.753 368.758 92.66H364.758C364.758 103.447 367.429 113.454 372.769 122.645L376.228 120.635ZM368.758 92.66V25.16H364.758V92.66H368.758ZM365.96 26.9937L392.42 38.5137L394.017 34.8463L367.557 23.3263L365.96 26.9937ZM391.218 36.6736L391.038 92.8336L395.038 92.8464L395.218 36.6864L391.218 36.6736ZM391.038 92.84C391.038 101.1 393.658 108.397 398.885 114.643L401.952 112.077C397.339 106.563 395.038 100.18 395.038 92.84H391.038ZM398.9 114.662C404.245 120.897 410.97 124.68 419.005 125.955L419.632 122.005C412.547 120.88 406.672 117.583 401.937 112.058L398.9 114.662ZM419.036 125.96L420.296 126.14L420.861 122.18L419.601 122L419.036 125.96ZM418.579 124.192L418.759 135.532L422.758 135.468L422.578 124.128L418.579 124.192ZM420.758 137.5H424.538V133.5H420.758V137.5ZM546.173 39.02H548.173V37.02H546.173V39.02ZM546.173 79.52H544.173V81.52H546.173V79.52ZM555.713 79.52H557.713V77.52H555.713V79.52ZM555.713 148.1V150.1H557.713V148.1H555.713ZM528.533 148.1H526.533V150.1H528.533V148.1ZM528.533 56.84H530.533V54.84H528.533V56.84ZM489.473 56.84H487.473V58.84H489.473V56.84ZM489.473 29.66V27.66H487.473V29.66H489.473ZM516.473 29.66H518.473V27.66H516.473V29.66ZM516.473 39.02H514.473V41.02H516.473V39.02ZM523.853 22.28V20.28H521.853V22.28H523.853ZM601.973 22.28L603.832 23.0185L604.92 20.28H601.973V22.28ZM591.173 49.46V51.46H592.531L593.032 50.1985L591.173 49.46ZM563.093 49.46V47.46H561.093V49.46H563.093ZM563.093 71.96V73.96H565.093V71.96H563.093ZM553.553 71.96H551.553V73.96H553.553V71.96ZM553.553 31.64H555.553V29.64H553.553V31.64ZM523.853 31.64H521.853V33.64H523.853V31.64ZM544.173 39.02V79.52H548.173V39.02H544.173ZM546.173 81.52H555.713V77.52H546.173V81.52ZM553.713 79.52V148.1H557.713V79.52H553.713ZM555.713 146.1H528.533V150.1H555.713V146.1ZM530.533 148.1V56.84H526.533V148.1H530.533ZM528.533 54.84H489.473V58.84H528.533V54.84ZM491.473 56.84V29.66H487.473V56.84H491.473ZM489.473 31.66H516.473V27.66H489.473V31.66ZM514.473 29.66V39.02H518.473V29.66H514.473ZM516.473 41.02H546.173V37.02H516.473V41.02ZM523.853 24.28H601.973V20.28H523.853V24.28ZM600.115 21.5415L589.315 48.7215L593.032 50.1985L603.832 23.0185L600.115 21.5415ZM591.173 47.46H563.093V51.46H591.173V47.46ZM561.093 49.46V71.96H565.093V49.46H561.093ZM563.093 69.96H553.553V73.96H563.093V69.96ZM555.553 71.96V31.64H551.553V71.96H555.553ZM553.553 29.64H523.853V33.64H553.553V29.64ZM525.853 31.64V22.28H521.853V31.64H525.853ZM619.73 23.18V21.18H617.73V23.18H619.73ZM646.91 23.18H648.91V21.18H646.91V23.18ZM646.91 79.88V81.88H648.91V79.88H646.91ZM639.53 79.88H637.53V81.88H639.53V79.88ZM639.53 45.5H641.53V43.5H639.53V45.5ZM619.73 45.5H617.73V47.5H619.73V45.5ZM632.15 52.88H634.15V50.88H632.15V52.88ZM632.15 87.44H630.15V89.44H632.15V87.44ZM639.53 87.44H641.53V85.44H639.53V87.44ZM639.53 148.82L638.739 150.657L641.53 151.858V148.82H639.53ZM612.35 137.12H610.35V138.437L611.559 138.957L612.35 137.12ZM612.35 52.88V50.88H610.35V52.88H612.35ZM619.73 25.18H646.91V21.18H619.73V25.18ZM644.91 23.18V79.88H648.91V23.18H644.91ZM646.91 77.88H639.53V81.88H646.91V77.88ZM641.53 79.88V45.5H637.53V79.88H641.53ZM639.53 43.5H619.73V47.5H639.53V43.5ZM621.73 45.5V23.18H617.73V45.5H621.73ZM630.15 52.88V87.44H634.15V52.88H630.15ZM632.15 89.44H639.53V85.44H632.15V89.44ZM637.53 87.44V148.82H641.53V87.44H637.53ZM640.321 146.983L613.141 135.283L611.559 138.957L638.739 150.657L640.321 146.983ZM614.35 137.12V52.88H610.35V137.12H614.35ZM612.35 54.88H632.15V50.88H612.35V54.88ZM674.415 97.34L676.312 96.7075L675.74 94.9895L673.973 95.3894L674.415 97.34ZM664.875 99.5L662.947 100.032L663.455 101.872L665.317 101.451L664.875 99.5ZM662.895 77.18L660.903 76.9989L660.902 77.0139L660.901 77.0289L662.895 77.18ZM668.835 55.58L667.046 54.6856L667.046 54.6856L668.835 55.58ZM672.075 50L673.739 51.1094L673.747 51.0977L673.755 51.0858L672.075 50ZM703.935 25.52L704.557 27.4207L704.567 27.4174L703.935 25.52ZM750.015 28.94L750.921 27.1572L750.921 27.1569L750.015 28.94ZM768.375 43.34L766.859 44.6441L766.859 44.6441L768.375 43.34ZM780.075 63.68L780.498 65.6348L782.709 65.1567L781.963 63.0206L780.075 63.68ZM773.415 65.12L771.537 65.8072L772.135 67.4429L773.838 67.0748L773.415 65.12ZM765.855 51.26L764.251 52.454L764.255 52.46L765.855 51.26ZM751.815 38.3L750.729 39.9791L750.738 39.9856L750.748 39.9918L751.815 38.3ZM748.755 36.32L749.842 34.6409L748.165 33.5558L747.077 35.2313L748.755 36.32ZM737.775 53.24L736.87 55.0237L738.474 55.8371L739.453 54.3287L737.775 53.24ZM712.215 51.26L711.59 49.36L711.583 49.3626L712.215 51.26ZM692.955 68L691.171 67.0952L691.166 67.1056L692.955 68ZM691.155 93.2L693.059 92.5891L693.056 92.5783L693.052 92.5675L691.155 93.2ZM702.135 109.04L703.811 110.131L704.804 108.607L703.38 107.475L702.135 109.04ZM692.055 124.52L690.846 126.113L692.558 127.412L693.731 125.611L692.055 124.52ZM682.875 115.34L681.28 116.547L681.282 116.549L682.875 115.34ZM675.495 100.58L677.416 100.025L677.405 99.986L677.392 99.9475L675.495 100.58ZM778.635 71.6L780.571 71.0992L780.091 69.2426L778.216 69.6444L778.635 71.6ZM780.075 93.74L778.087 93.5259L778.085 93.541L778.083 93.5562L780.075 93.74ZM774.135 115.16L772.346 114.266L772.346 114.266L774.135 115.16ZM759.555 133.88L760.859 135.396L760.861 135.394L759.555 133.88ZM739.215 145.4L739.83 147.303L739.839 147.3L739.847 147.297L739.215 145.4ZM692.955 141.8L692.049 143.583L692.049 143.583L692.955 141.8ZM674.595 127.58L673.076 128.882L673.084 128.89L673.092 128.899L674.595 127.58ZM663.075 107.42L662.683 105.459L660.429 105.91L661.187 108.079L663.075 107.42ZM669.375 106.16L671.238 105.433L670.628 103.87L668.983 104.199L669.375 106.16ZM677.115 119.84L678.719 118.646L678.709 118.632L678.699 118.618L677.115 119.84ZM690.975 132.8L692.084 131.136L692.071 131.127L692.058 131.119L690.975 132.8ZM694.215 134.96L693.106 136.624L694.807 137.758L695.903 136.033L694.215 134.96ZM705.195 117.68L706.079 115.886L704.469 115.093L703.507 116.607L705.195 117.68ZM730.575 119.48L729.97 117.574L729.956 117.578L729.943 117.583L730.575 119.48ZM748.215 105.98L749.902 107.054L749.907 107.047L749.911 107.04L748.215 105.98ZM750.015 102.92L751.763 103.891L751.784 103.853L751.804 103.814L750.015 102.92ZM751.815 77.54L749.914 78.1615L749.915 78.1646L751.815 77.54ZM741.015 61.88L739.336 60.7935L738.362 62.2991L739.752 63.4311L741.015 61.88ZM750.915 46.58L752.124 44.9866L750.407 43.684L749.236 45.4935L750.915 46.58ZM759.915 55.76L758.295 56.933L758.317 56.9638L758.341 56.9938L759.915 55.76ZM767.475 70.52L765.554 71.0751L765.565 71.114L765.578 71.1525L767.475 70.52ZM768.555 73.76L766.658 74.3925L767.224 76.0907L768.974 75.7156L768.555 73.76ZM673.973 95.3894L664.433 97.5494L665.317 101.451L674.857 99.2906L673.973 95.3894ZM666.803 98.9681C664.95 92.2514 664.305 85.0442 664.889 77.3311L660.901 77.0289C660.285 85.1557 660.96 92.8286 662.947 100.032L666.803 98.9681ZM664.887 77.3611C665.586 69.6651 667.506 62.7105 670.624 56.4744L667.046 54.6856C663.684 61.4095 661.644 68.8549 660.903 76.9989L664.887 77.3611ZM670.624 56.4744C671.546 54.6292 672.585 52.8409 673.739 51.1094L670.411 48.8906C669.165 50.7591 668.044 52.6908 667.046 54.6856L670.624 56.4744ZM673.755 51.0858C681.184 39.5941 691.429 31.7195 704.557 27.4207L703.313 23.6193C689.321 28.2005 678.326 36.6459 670.395 48.9142L673.755 51.0858ZM704.567 27.4174C719.9 22.3064 734.706 23.4054 749.109 30.7231L750.921 27.1569C735.564 19.3545 719.65 18.1736 703.303 23.6226L704.567 27.4174ZM749.109 30.7228C755.957 34.205 761.869 38.8426 766.859 44.6441L769.891 42.0359C764.561 35.8374 758.233 30.875 750.921 27.1572L749.109 30.7228ZM766.859 44.6441C771.853 50.452 775.628 57.0128 778.187 64.3394L781.963 63.0206C779.242 55.2272 775.217 48.228 769.891 42.0359L766.859 44.6441ZM779.652 61.7252L772.992 63.1652L773.838 67.0748L780.498 65.6348L779.652 61.7252ZM775.293 64.4328C773.424 59.3236 770.809 54.5316 767.455 50.06L764.255 52.46C767.381 56.6284 769.806 61.0764 771.537 65.8072L775.293 64.4328ZM767.459 50.066C763.47 44.7054 758.607 40.2176 752.882 36.6081L750.748 39.9918C756.063 43.3424 760.56 47.4946 764.251 52.454L767.459 50.066ZM752.902 36.6209L749.842 34.6409L747.669 37.9991L750.729 39.9791L752.902 36.6209ZM747.077 35.2313L736.097 52.1513L739.453 54.3287L750.433 37.4087L747.077 35.2313ZM738.68 51.4563C729.929 47.0177 720.859 46.3127 711.59 49.36L712.84 53.1599C721.091 50.4472 729.061 51.0623 736.87 55.0237L738.68 51.4563ZM711.583 49.3626C702.432 52.4127 695.604 58.356 691.171 67.0952L694.739 68.9047C698.706 61.084 704.718 55.8673 712.847 53.1574L711.583 49.3626ZM691.166 67.1056C686.849 75.7391 686.21 84.6883 689.258 93.8325L693.052 92.5675C690.34 84.4317 690.901 76.5809 694.744 68.8944L691.166 67.1056ZM689.251 93.8109C691.413 100.551 695.304 106.162 700.89 110.605L703.38 107.475C698.406 103.518 694.977 98.5688 693.059 92.5891L689.251 93.8109ZM700.459 107.949L690.379 123.429L693.731 125.611L703.811 110.131L700.459 107.949ZM693.264 122.927C689.929 120.397 686.998 117.466 684.468 114.131L681.282 116.549C684.032 120.174 687.221 123.363 690.846 126.113L693.264 122.927ZM684.47 114.133C681.259 109.89 678.909 105.192 677.416 100.025L673.574 101.135C675.201 106.768 677.771 111.91 681.28 116.547L684.47 114.133ZM677.392 99.9475L676.312 96.7075L672.518 97.9725L673.598 101.212L677.392 99.9475ZM776.699 72.1008C778.433 78.8071 778.903 85.9435 778.087 93.5259L782.064 93.9541C782.927 85.9365 782.437 78.3129 780.571 71.0992L776.699 72.1008ZM778.083 93.5562C777.384 101.129 775.466 108.025 772.346 114.266L775.924 116.054C779.284 109.335 781.326 101.951 782.067 93.9238L778.083 93.5562ZM772.346 114.266C768.865 121.228 764.169 127.258 758.249 132.366L760.861 135.394C767.181 129.942 772.205 123.492 775.924 116.054L772.346 114.266ZM758.251 132.364C752.449 137.353 745.898 141.064 738.583 143.503L739.847 147.297C747.652 144.696 754.661 140.727 760.859 135.396L758.251 132.364ZM738.6 143.497C723.14 148.495 708.267 147.336 693.861 140.017L692.049 143.583C707.403 151.384 723.37 152.625 739.83 147.303L738.6 143.497ZM693.861 140.017C687.005 136.531 681.088 131.947 676.098 126.261L673.092 128.899C678.422 134.973 684.745 139.869 692.049 143.583L693.861 140.017ZM676.114 126.278C671.241 120.594 667.524 114.094 664.963 106.761L661.187 108.079C663.906 115.866 667.869 122.806 673.076 128.882L676.114 126.278ZM663.467 109.381L669.767 108.121L668.983 104.199L662.683 105.459L663.467 109.381ZM667.512 106.887C669.501 111.985 672.176 116.712 675.531 121.062L678.699 118.618C675.574 114.568 673.089 110.175 671.238 105.433L667.512 106.887ZM675.511 121.034C679.493 126.386 684.29 130.871 689.892 134.481L692.058 131.119C686.86 127.769 682.417 123.614 678.719 118.646L675.511 121.034ZM689.866 134.464L693.106 136.624L695.324 133.296L692.084 131.136L689.866 134.464ZM695.903 136.033L706.883 118.753L703.507 116.607L692.527 133.887L695.903 136.033ZM704.311 119.474C713.056 123.783 722.061 124.426 731.207 121.377L729.943 117.583C721.809 120.294 713.894 119.737 706.079 115.886L704.311 119.474ZM731.18 121.386C739.181 118.846 745.447 114.056 749.902 107.054L746.528 104.906C742.583 111.104 737.089 115.314 729.97 117.574L731.18 121.386ZM749.911 107.04C750.531 106.048 751.148 104.999 751.763 103.891L748.267 101.949C747.682 103.001 747.099 103.992 746.519 104.92L749.911 107.04ZM751.804 103.814C756.123 95.1769 756.758 86.1705 753.715 76.9154L749.915 78.1646C752.632 86.4295 752.067 94.3431 748.226 102.026L751.804 103.814ZM753.716 76.9185C751.555 70.3086 747.731 64.7676 742.278 60.3289L739.752 63.4311C744.619 67.3924 747.995 72.2913 749.914 78.1615L753.716 76.9185ZM742.694 62.9665L752.594 47.6665L749.236 45.4935L739.336 60.7935L742.694 62.9665ZM749.706 48.1734C753.032 50.6963 755.893 53.6153 758.295 56.933L761.535 54.587C758.897 50.9447 755.758 47.7437 752.124 44.9866L749.706 48.1734ZM758.341 56.9938C761.663 61.2326 764.065 65.9224 765.554 71.0751L769.396 69.9649C767.765 64.3176 765.127 59.1673 761.489 54.5262L758.341 56.9938ZM765.578 71.1525L766.658 74.3925L770.452 73.1275L769.372 69.8875L765.578 71.1525ZM768.974 75.7156L779.054 73.5556L778.216 69.6444L768.136 71.8044L768.974 75.7156ZM880.779 35.06L879.989 33.223L878.779 33.7435V35.06H880.779ZM907.959 23.36H909.959V20.3216L907.169 21.523L907.959 23.36ZM907.959 149L906.641 150.504L909.959 153.413V149H907.959ZM868.539 114.44H866.539V115.346L867.221 115.944L868.539 114.44ZM868.539 102.92H870.539V102.01L869.854 101.412L868.539 102.92ZM805.359 47.84H803.359V48.7497L804.045 49.3475L805.359 47.84ZM805.359 23.18L806.677 21.6755L803.359 18.7695V23.18H805.359ZM880.779 89.24L879.462 90.7445L882.779 93.6505V89.24H880.779ZM797.979 149H795.979V151H797.979V149ZM797.979 55.22L799.294 53.7124L795.979 50.8231V55.22H797.979ZM861.159 110.3H863.159V109.39L862.474 108.792L861.159 110.3ZM861.159 121.82L859.842 123.325L863.159 126.228V121.82H861.159ZM825.159 90.32L826.476 88.8148L823.159 85.9125V90.32H825.159ZM825.159 149V151H827.159V149H825.159ZM881.57 36.897L908.75 25.197L907.169 21.523L879.989 33.223L881.57 36.897ZM905.959 23.36V149H909.959V23.36H905.959ZM909.278 147.496L869.858 112.936L867.221 115.944L906.641 150.504L909.278 147.496ZM870.539 114.44V102.92H866.539V114.44H870.539ZM869.854 101.412L806.674 46.3324L804.045 49.3475L867.225 104.428L869.854 101.412ZM807.359 47.84V23.18H803.359V47.84H807.359ZM804.042 24.6845L879.462 90.7445L882.097 87.7355L806.677 21.6755L804.042 24.6845ZM882.779 89.24V35.06H878.779V89.24H882.779ZM799.979 149V55.22H795.979V149H799.979ZM796.665 56.7275L859.845 111.808L862.474 108.792L799.294 53.7124L796.665 56.7275ZM859.159 110.3V121.82H863.159V110.3H859.159ZM862.476 120.315L826.476 88.8148L823.842 91.8252L859.842 123.325L862.476 120.315ZM823.159 90.32V149H827.159V90.32H823.159ZM825.159 147H797.979V151H825.159V147ZM1014.21 90.86L1012.81 92.289L1012.81 92.289L1014.21 90.86ZM1022.85 111.38H1020.85V113.38H1022.85V111.38ZM1031.49 111.38H1033.49V109.38H1031.49V111.38ZM1020.15 138.02L1018.76 136.583L1018.76 136.589L1018.75 136.594L1020.15 138.02ZM934.114 149H932.114V151H934.114V149ZM934.114 122.36V120.36H932.114V122.36H934.114ZM1001.07 103.82L999.66 105.234L999.68 105.254L999.701 105.274L1001.07 103.82ZM936.994 89.6L935.58 91.0142L935.591 91.0256L935.603 91.0368L936.994 89.6ZM925.834 62.96V60.96H923.834V62.96H925.834ZM943.654 62.96L945.652 62.8671L945.563 60.96H943.654V62.96ZM951.934 76.64L950.734 78.24L950.755 78.2552L950.775 78.2699L951.934 76.64ZM960.034 73.94L959.005 75.655L959.045 75.6789L959.086 75.7009L960.034 73.94ZM952.834 66.92L951.089 67.8972L951.113 67.9392L951.138 67.98L952.834 66.92ZM950.314 57.02H952.314V55.02H950.314V57.02ZM931.774 57.02H929.774V59.02H931.774V57.02ZM942.934 30.56L941.543 29.1232L941.537 29.1287L941.532 29.1343L942.934 30.56ZM1036.53 19.58L1037.95 20.9942L1041.36 17.58H1036.53V19.58ZM1009.89 46.22V48.22H1010.72L1011.31 47.6342L1009.89 46.22ZM962.194 49.46L963.567 50.914L963.588 50.8944L963.608 50.8742L962.194 49.46ZM964.354 66.56L963.362 68.2965L963.387 68.311L963.413 68.3247L964.354 66.56ZM1012.05 71.06L1011.22 72.8773L1011.25 72.8908L1011.28 72.9033L1012.05 71.06ZM1024.65 78.98L1026 77.5048L1025.99 77.4896L1025.97 77.4748L1024.65 78.98ZM1037.43 105.62V107.62H1039.43V105.62H1037.43ZM1029.33 105.62L1027.34 105.715L1027.43 107.62H1029.33V105.62ZM1019.07 85.46L1017.7 86.9148L1017.72 86.9281L1017.73 86.9411L1019.07 85.46ZM993.334 84.4C1000.98 84.4 1007.43 87.02 1012.81 92.289L1015.61 89.431C1009.47 83.42 1002.01 80.4 993.334 80.4V84.4ZM1012.81 92.289C1018.19 97.5539 1020.85 103.879 1020.85 111.38H1024.85C1024.85 102.801 1021.76 95.4461 1015.61 89.431L1012.81 92.289ZM1022.85 113.38H1031.49V109.38H1022.85V113.38ZM1029.49 111.38C1029.49 121.274 1025.94 129.637 1018.76 136.583L1021.55 139.457C1029.49 131.763 1033.49 122.366 1033.49 111.38H1029.49ZM1018.75 136.594C1011.69 143.546 1003.25 147 993.334 147V151C1004.3 151 1013.74 147.134 1021.56 139.446L1018.75 136.594ZM993.334 147H934.114V151H993.334V147ZM936.114 149V122.36H932.114V149H936.114ZM934.114 124.36H993.334V120.36H934.114V124.36ZM993.334 124.36C996.875 124.36 999.961 123.062 1002.49 120.534L999.66 117.706C997.867 119.498 995.793 120.36 993.334 120.36V124.36ZM1002.49 120.534C1005.02 118.007 1006.31 114.921 1006.31 111.38H1002.31C1002.31 113.839 1001.45 115.913 999.66 117.706L1002.49 120.534ZM1006.31 111.38C1006.31 107.836 1005.01 104.788 1002.45 102.366L999.701 105.274C1001.46 106.932 1002.31 108.924 1002.31 111.38H1006.31ZM1002.49 102.406C999.961 99.8784 996.875 98.58 993.334 98.58V102.58C995.793 102.58 997.867 103.442 999.66 105.234L1002.49 102.406ZM993.334 98.58H963.994V102.58H993.334V98.58ZM963.994 98.58C954.078 98.58 945.576 95.1252 938.385 88.1632L935.603 91.0368C943.533 98.7148 953.03 102.58 963.994 102.58V98.58ZM938.408 88.1858C931.335 81.1126 927.834 72.738 927.834 62.96H923.834C923.834 73.8219 927.773 83.2074 935.58 91.0142L938.408 88.1858ZM925.834 64.96H943.654V60.96H925.834V64.96ZM941.656 63.0529C941.931 68.9678 945.12 74.0295 950.734 78.24L953.134 75.04C948.188 71.3305 945.857 67.2722 945.652 62.8671L941.656 63.0529ZM950.775 78.2699C956.436 82.2952 962.232 84.4 968.134 84.4V80.4C963.236 80.4 958.233 78.6648 953.093 75.0101L950.775 78.2699ZM968.134 84.4H993.334V80.4H968.134V84.4ZM969.934 74.46C966.791 74.46 963.817 73.7051 960.982 72.1791L959.086 75.7009C962.492 77.5349 966.117 78.46 969.934 78.46V74.46ZM961.063 72.225C958.326 70.5825 956.158 68.4638 954.53 65.86L951.138 67.98C953.111 71.1362 955.743 73.6975 959.005 75.655L961.063 72.225ZM954.579 65.9428C953.074 63.2556 952.314 60.2945 952.314 57.02H948.314C948.314 60.9455 949.234 64.5844 951.089 67.8972L954.579 65.9428ZM950.314 55.02H931.774V59.02H950.314V55.02ZM933.774 57.02C933.774 47.2429 937.274 38.9345 944.337 31.9857L941.532 29.1343C933.714 36.8255 929.774 46.1571 929.774 57.02H933.774ZM944.325 31.9968C951.516 25.0348 960.018 21.58 969.934 21.58V17.58C958.97 17.58 949.473 21.4452 941.543 29.1232L944.325 31.9968ZM969.934 21.58H1036.53V17.58H969.934V21.58ZM1035.12 18.1658L1008.48 44.8058L1011.31 47.6342L1037.95 20.9942L1035.12 18.1658ZM1009.89 44.22H969.934V48.22H1009.89V44.22ZM969.934 44.22C966.393 44.22 963.307 45.5184 960.78 48.0458L963.608 50.8742C965.401 49.0816 967.475 48.22 969.934 48.22V44.22ZM960.821 48.006C958.257 50.4279 956.954 53.4758 956.954 57.02H960.954C960.954 54.5642 961.812 52.572 963.567 50.914L960.821 48.006ZM956.954 57.02C956.954 59.3884 957.516 61.5935 958.658 63.5923L962.131 61.6077C961.353 60.2465 960.954 58.7316 960.954 57.02H956.954ZM958.658 63.5923C959.795 65.5823 961.372 67.1593 963.362 68.2965L965.346 64.8235C963.977 64.0407 962.914 62.9777 962.131 61.6077L958.658 63.5923ZM963.413 68.3247C965.484 69.4292 967.665 70 969.934 70V66C968.363 66 966.824 65.6108 965.295 64.7953L963.413 68.3247ZM969.934 70H999.274V66H969.934V70ZM999.274 70C1003.01 70 1006.99 70.9343 1011.22 72.8773L1012.89 69.2426C1008.24 67.1057 1003.69 66 999.274 66V70ZM1011.28 72.9033C1015.63 74.7376 1019.65 77.2616 1023.34 80.4851L1025.97 77.4748C1021.98 73.9784 1017.59 71.2224 1012.83 69.2167L1011.28 72.9033ZM1023.3 80.4552C1031.48 87.9427 1035.43 96.3124 1035.43 105.62H1039.43C1039.43 95.0076 1034.87 85.6173 1026 77.5048L1023.3 80.4552ZM1037.43 103.62H1029.33V107.62H1037.43V103.62ZM1031.33 105.525C1030.94 97.351 1027.22 90.1554 1020.42 83.9789L1017.73 86.9411C1023.88 92.5246 1027.01 98.769 1027.34 105.715L1031.33 105.525ZM1020.45 84.0052C1013.82 77.7563 1006.76 74.46 999.274 74.46V78.46C1005.47 78.46 1011.61 81.1637 1017.7 86.9148L1020.45 84.0052ZM999.274 74.46H969.934V78.46H999.274V74.46Z" fill="#9A9A9A"/>
<path d="M73.26 76.4C81.42 76.4 88.38 79.22 94.14 84.86C99.9 90.5 102.78 97.34 102.78 105.38H111.42C111.42 115.82 107.64 124.7 100.08 132.02C92.64 139.34 83.7 143 73.26 143H14.04V116.36H73.26C76.26 116.36 78.84 115.28 81 113.12C83.16 110.96 84.24 108.38 84.24 105.38C84.24 102.38 83.16 99.86 81 97.82C78.84 95.66 76.26 94.58 73.26 94.58H43.92C33.48 94.58 24.48 90.92 16.92 83.6C9.48 76.16 5.76 67.28 5.76 56.96H23.58C23.82 62.12 26.58 66.68 31.86 70.64C37.26 74.48 42.66 76.4 48.06 76.4H73.26ZM49.86 70.46C46.38 70.46 43.08 69.62 39.96 67.94C36.96 66.14 34.56 63.8 32.76 60.92C31.08 57.92 30.24 54.62 30.24 51.02H11.7C11.7 40.7 15.42 31.88 22.86 24.56C30.42 17.24 39.42 13.58 49.86 13.58H116.46L89.82 40.22H49.86C46.86 40.22 44.28 41.3 42.12 43.46C39.96 45.5 38.88 48.02 38.88 51.02C38.88 53.06 39.36 54.92 40.32 56.6C41.28 58.28 42.6 59.6 44.28 60.56C46.08 61.52 47.94 62 49.86 62H79.2C83.28 62 87.54 63.02 91.98 65.06C96.54 66.98 100.74 69.62 104.58 72.98C113.1 80.78 117.36 89.66 117.36 99.62H109.26C108.9 92.06 105.48 85.34 99 79.46C92.64 73.46 86.04 70.46 79.2 70.46H49.86ZM140.532 91.34L130.992 93.5C129.072 86.54 128.412 79.1 129.012 71.18C129.732 63.26 131.712 56.06 134.952 49.58C135.912 47.66 136.992 45.8 138.192 44C145.872 32.12 156.492 23.96 170.052 19.52C185.892 14.24 201.252 15.38 216.132 22.94C223.212 26.54 229.332 31.34 234.492 37.34C239.652 43.34 243.552 50.12 246.192 57.68L239.532 59.12C237.732 54.2 235.212 49.58 231.972 45.26C228.132 40.1 223.452 35.78 217.932 32.3L214.872 30.32L203.892 47.24C195.612 43.04 187.092 42.38 178.332 45.26C169.692 48.14 163.272 53.72 159.072 62C154.992 70.16 154.392 78.56 157.272 87.2C159.312 93.56 162.972 98.84 168.252 103.04L158.172 118.52C154.692 115.88 151.632 112.82 148.992 109.34C145.632 104.9 143.172 99.98 141.612 94.58L140.532 91.34ZM244.752 65.6C246.552 72.56 247.032 79.94 246.192 87.74C245.472 95.54 243.492 102.68 240.252 109.16C236.652 116.36 231.792 122.6 225.672 127.88C219.672 133.04 212.892 136.88 205.332 139.4C189.372 144.56 173.952 143.36 159.072 135.8C151.992 132.2 145.872 127.46 140.712 121.58C135.672 115.7 131.832 108.98 129.192 101.42L135.492 100.16C137.412 105.08 139.992 109.64 143.232 113.84C147.072 119 151.692 123.32 157.092 126.8L160.332 128.96L171.312 111.68C179.592 115.76 188.052 116.36 196.692 113.48C204.252 111.08 210.132 106.58 214.332 99.98C214.932 99.02 215.532 98 216.132 96.92C220.212 88.76 220.812 80.3 217.932 71.54C215.892 65.3 212.292 60.08 207.132 55.88L217.032 40.58C220.512 43.22 223.512 46.28 226.032 49.76C229.512 54.2 232.032 59.12 233.592 64.52L234.672 67.76L244.752 65.6ZM312.517 108.44V120.86H263.197V17.9L290.197 29.6V108.44H312.517ZM319.897 115.82H351.937V143H270.577V128.24H319.897V115.82ZM449.595 19.16H474.255V86.84C474.255 93.44 473.115 99.8 470.835 105.92C468.915 110.96 466.275 115.52 462.915 119.6L449.955 107.72L447.435 110.42C441.435 117.14 433.935 120.98 424.935 121.94L425.115 114.56C429.555 113.96 433.635 112.34 437.355 109.7C441.075 107.06 444.015 103.7 446.175 99.62C448.455 95.54 449.595 91.22 449.595 86.66V19.16ZM421.515 129.5C432.555 129.5 442.155 125.72 450.315 118.16L461.475 128.24C450.315 139.04 436.995 144.44 421.515 144.44C411.075 144.44 401.415 141.86 392.535 136.7C383.655 131.54 376.635 124.52 371.475 115.64C366.315 106.76 363.735 97.1 363.735 86.66V19.16L390.195 30.68L390.015 86.84C390.015 94.64 392.475 101.48 397.395 107.36C402.435 113.24 408.735 116.78 416.295 117.98L417.555 118.16L417.735 129.5H421.515ZM543.15 33.02V73.52H552.69V142.1H525.51V50.84H486.45V23.66H513.45V33.02H543.15ZM520.83 16.28H598.95L588.15 43.46H560.07V65.96H550.53V25.64H520.83V16.28ZM616.707 17.18H643.887V73.88H636.507V39.5H616.707V17.18ZM629.127 46.88V81.44H636.507V142.82L609.327 131.12V46.88H629.127ZM671.392 91.34L661.852 93.5C659.932 86.54 659.272 79.1 659.872 71.18C660.592 63.26 662.572 56.06 665.812 49.58C666.772 47.66 667.852 45.8 669.052 44C676.732 32.12 687.352 23.96 700.912 19.52C716.752 14.24 732.112 15.38 746.992 22.94C754.072 26.54 760.192 31.34 765.352 37.34C770.512 43.34 774.412 50.12 777.052 57.68L770.392 59.12C768.592 54.2 766.072 49.58 762.832 45.26C758.992 40.1 754.312 35.78 748.792 32.3L745.732 30.32L734.752 47.24C726.472 43.04 717.952 42.38 709.192 45.26C700.552 48.14 694.132 53.72 689.932 62C685.852 70.16 685.252 78.56 688.132 87.2C690.172 93.56 693.832 98.84 699.112 103.04L689.032 118.52C685.552 115.88 682.492 112.82 679.852 109.34C676.492 104.9 674.032 99.98 672.472 94.58L671.392 91.34ZM775.612 65.6C777.412 72.56 777.892 79.94 777.052 87.74C776.332 95.54 774.352 102.68 771.112 109.16C767.512 116.36 762.652 122.6 756.532 127.88C750.532 133.04 743.752 136.88 736.192 139.4C720.232 144.56 704.812 143.36 689.932 135.8C682.852 132.2 676.732 127.46 671.572 121.58C666.532 115.7 662.692 108.98 660.052 101.42L666.352 100.16C668.272 105.08 670.852 109.64 674.092 113.84C677.932 119 682.552 123.32 687.952 126.8L691.192 128.96L702.172 111.68C710.452 115.76 718.912 116.36 727.552 113.48C735.112 111.08 740.992 106.58 745.192 99.98C745.792 99.02 746.392 98 746.992 96.92C751.072 88.76 751.672 80.3 748.792 71.54C746.752 65.3 743.152 60.08 737.992 55.88L747.892 40.58C751.372 43.22 754.372 46.28 756.892 49.76C760.372 54.2 762.892 59.12 764.452 64.52L765.532 67.76L775.612 65.6ZM877.756 29.06L904.936 17.36V143L865.516 108.44V96.92L802.336 41.84V17.18L877.756 83.24V29.06ZM794.956 143V49.22L858.136 104.3V115.82L822.136 84.32V143H794.956ZM990.311 76.4C998.471 76.4 1005.43 79.22 1011.19 84.86C1016.95 90.5 1019.83 97.34 1019.83 105.38H1028.47C1028.47 115.82 1024.69 124.7 1017.13 132.02C1009.69 139.34 1000.75 143 990.311 143H931.091V116.36H990.311C993.311 116.36 995.891 115.28 998.051 113.12C1000.21 110.96 1001.29 108.38 1001.29 105.38C1001.29 102.38 1000.21 99.86 998.051 97.82C995.891 95.66 993.311 94.58 990.311 94.58H960.971C950.531 94.58 941.531 90.92 933.971 83.6C926.531 76.16 922.811 67.28 922.811 56.96H940.631C940.871 62.12 943.631 66.68 948.911 70.64C954.311 74.48 959.711 76.4 965.111 76.4H990.311ZM966.911 70.46C963.431 70.46 960.131 69.62 957.011 67.94C954.011 66.14 951.611 63.8 949.811 60.92C948.131 57.92 947.291 54.62 947.291 51.02H928.751C928.751 40.7 932.471 31.88 939.911 24.56C947.471 17.24 956.471 13.58 966.911 13.58H1033.51L1006.87 40.22H966.911C963.911 40.22 961.331 41.3 959.171 43.46C957.011 45.5 955.931 48.02 955.931 51.02C955.931 53.06 956.411 54.92 957.371 56.6C958.331 58.28 959.651 59.6 961.331 60.56C963.131 61.52 964.991 62 966.911 62H996.251C1000.33 62 1004.59 63.02 1009.03 65.06C1013.59 66.98 1017.79 69.62 1021.63 72.98C1030.15 80.78 1034.41 89.66 1034.41 99.62H1026.31C1025.95 92.06 1022.53 85.34 1016.05 79.46C1009.69 73.46 1003.09 70.46 996.251 70.46H966.911Z" fill="url(#paint0_linear_1134_34)"/>
<defs>
<linearGradient id="paint0_linear_1134_34" x1="2.90573e-06" y1="83.9998" x2="1040" y2="83.9998" gradientUnits="userSpaceOnUse">
<stop stop-color="#65CFB3"/>
<stop offset="1" stop-color="#5BA6CC"/>
</linearGradient>
</defs>
</svg>
