<svg width="278" height="130" viewBox="0 0 278 130" fill="none" xmlns="http://www.w3.org/2000/svg">
<g filter="url(#filter0_d_49_76)">
<path d="M65.5216 8.52539H254.547L269 98.8951H63.6553L19.1318 54.6378L65.5216 8.52539Z" fill="#5190AE" fill-opacity="0.3" shape-rendering="crispEdges"/>
</g>
<g filter="url(#filter1_d_49_76)">
<path d="M234.457 15.0713H53.4723L6.99991 59.9239L53.4723 104.264H182.046L198.053 119.642H273.184M234.457 15.0713L246.5 104.008H204.249L197.537 98.1127H58.8941M234.457 15.0713H234.198M122.406 15.0713L135.057 2H254.853" stroke="url(#paint0_linear_49_76)" stroke-width="3"/>
</g>
<path d="M86.048 71C83.96 71 82.04 70.64 80.288 69.92C78.56 69.176 77.072 68.168 75.824 66.896C74.6 65.6 73.64 64.076 72.944 62.324C72.248 60.572 71.9 58.688 71.9 56.672C71.9 54.632 72.236 52.772 72.908 51.092C73.604 49.412 74.564 47.972 75.788 46.772C77.036 45.548 78.524 44.6 80.252 43.928C82.004 43.256 83.936 42.92 86.048 42.92H90.152V47.816H86.048C84.704 47.816 83.456 48.056 82.304 48.536C81.176 48.992 80.192 49.628 79.352 50.444C78.536 51.26 77.888 52.244 77.408 53.396C76.952 54.524 76.724 55.748 76.724 57.068C76.724 58.388 76.952 59.6 77.408 60.704C77.864 61.808 78.5 62.768 79.316 63.584C80.132 64.376 81.116 65 82.268 65.456C83.42 65.888 84.68 66.104 86.048 66.104H90.152V71H86.048ZM106.022 71C103.958 71 102.05 70.64 100.298 69.92C98.5698 69.176 97.0818 68.156 95.8338 66.86C94.5858 65.564 93.6138 64.052 92.9178 62.324C92.2218 60.572 91.8738 58.688 91.8738 56.672C91.8738 54.656 92.2098 52.808 92.8818 51.128C93.5778 49.448 94.5378 47.996 95.7618 46.772C97.0098 45.548 98.4978 44.6 100.226 43.928C101.978 43.256 103.91 42.92 106.022 42.92H106.85C108.986 42.92 110.918 43.268 112.646 43.964C114.398 44.636 115.886 45.584 117.11 46.808C118.358 48.032 119.318 49.484 119.99 51.164C120.662 52.844 120.998 54.68 120.998 56.672C120.998 58.688 120.65 60.572 119.954 62.324C119.258 64.052 118.274 65.564 117.002 66.86C115.754 68.156 114.266 69.176 112.538 69.92C110.81 70.64 108.914 71 106.85 71H106.022ZM106.022 47.816C104.678 47.816 103.442 48.044 102.314 48.5C101.186 48.956 100.202 49.592 99.3618 50.408C98.5458 51.224 97.8978 52.196 97.4178 53.324C96.9618 54.452 96.7338 55.7 96.7338 57.068C96.7338 58.388 96.9618 59.6 97.4178 60.704C97.8738 61.808 98.5098 62.768 99.3258 63.584C100.142 64.376 101.114 65 102.242 65.456C103.394 65.888 104.654 66.104 106.022 66.104H106.85C108.242 66.104 109.502 65.876 110.63 65.42C111.782 64.964 112.766 64.34 113.582 63.548C114.398 62.732 115.022 61.772 115.454 60.668C115.91 59.564 116.138 58.364 116.138 57.068C116.138 55.724 115.91 54.488 115.454 53.36C114.998 52.232 114.35 51.26 113.51 50.444C112.694 49.604 111.71 48.956 110.558 48.5C109.43 48.044 108.194 47.816 106.85 47.816H106.022ZM123.665 71V42.92H131.729C133.817 42.92 135.725 43.256 137.453 43.928C139.181 44.6 140.669 45.548 141.917 46.772C143.165 47.972 144.137 49.412 144.833 51.092C145.529 52.772 145.877 54.632 145.877 56.672C145.877 58.688 145.517 60.572 144.797 62.324C144.101 64.076 143.129 65.6 141.881 66.896C140.633 68.168 139.133 69.176 137.381 69.92C135.653 70.64 133.769 71 131.729 71H123.665ZM128.561 47.816V66.104H131.729C133.121 66.104 134.381 65.876 135.509 65.42C136.637 64.964 137.609 64.34 138.425 63.548C139.241 62.732 139.865 61.772 140.297 60.668C140.753 59.564 140.981 58.364 140.981 57.068C140.981 55.748 140.753 54.524 140.297 53.396C139.841 52.244 139.205 51.26 138.389 50.444C137.573 49.628 136.589 48.992 135.437 48.536C134.309 48.056 133.073 47.816 131.729 47.816H128.561ZM148.45 71V42.92H153.346V71H148.45ZM161.252 51.524V71H156.536V45.368C156.536 44.624 156.74 44.036 157.148 43.604C157.556 43.148 158.144 42.92 158.912 42.92C159.392 42.92 159.836 43.028 160.244 43.244C160.676 43.436 161.108 43.808 161.54 44.36L175.256 62.396V42.92H179.936V68.588C179.936 70.388 179.324 71.288 178.1 71.288C177.5 71.288 176.972 71.156 176.516 70.892C176.06 70.604 175.556 70.172 175.004 69.596L161.252 51.524ZM202.699 54.332V71H196.615C194.527 71 192.619 70.64 190.891 69.92C189.163 69.176 187.675 68.168 186.427 66.896C185.179 65.6 184.207 64.076 183.511 62.324C182.815 60.572 182.467 58.688 182.467 56.672C182.467 54.632 182.803 52.772 183.475 51.092C184.171 49.412 185.131 47.972 186.355 46.772C187.603 45.548 189.091 44.6 190.819 43.928C192.571 43.256 194.503 42.92 196.615 42.92H200.719V47.816H196.615C195.271 47.816 194.035 48.056 192.907 48.536C191.779 48.992 190.795 49.628 189.955 50.444C189.139 51.26 188.491 52.244 188.011 53.396C187.555 54.524 187.327 55.748 187.327 57.068C187.327 58.388 187.555 59.6 188.011 60.704C188.467 61.808 189.103 62.768 189.919 63.584C190.735 64.376 191.707 65 192.835 65.456C193.987 65.888 195.247 66.104 196.615 66.104H198.091V59.192H191.539V54.332H202.699Z" fill="#CACACA"/>
<defs>
<filter id="filter0_d_49_76" x="15.1309" y="8.52539" width="257.869" height="98.3701" filterUnits="userSpaceOnUse" color-interpolation-filters="sRGB">
<feFlood flood-opacity="0" result="BackgroundImageFix"/>
<feColorMatrix in="SourceAlpha" type="matrix" values="0 0 0 0 0 0 0 0 0 0 0 0 0 0 0 0 0 0 127 0" result="hardAlpha"/>
<feOffset dy="4"/>
<feGaussianBlur stdDeviation="2"/>
<feComposite in2="hardAlpha" operator="out"/>
<feColorMatrix type="matrix" values="0 0 0 0 0 0 0 0 0 0 0 0 0 0 0 0 0 0 0.25 0"/>
<feBlend mode="normal" in2="BackgroundImageFix" result="effect1_dropShadow_49_76"/>
<feBlend mode="normal" in="SourceGraphic" in2="effect1_dropShadow_49_76" result="shape"/>
</filter>
<filter id="filter1_d_49_76" x="0.833984" y="0.5" width="276.35" height="128.642" filterUnits="userSpaceOnUse" color-interpolation-filters="sRGB">
<feFlood flood-opacity="0" result="BackgroundImageFix"/>
<feColorMatrix in="SourceAlpha" type="matrix" values="0 0 0 0 0 0 0 0 0 0 0 0 0 0 0 0 0 0 127 0" result="hardAlpha"/>
<feOffset dy="4"/>
<feGaussianBlur stdDeviation="2"/>
<feComposite in2="hardAlpha" operator="out"/>
<feColorMatrix type="matrix" values="0 0 0 0 0 0 0 0 0 0 0 0 0 0 0 0 0 0 0.25 0"/>
<feBlend mode="normal" in2="BackgroundImageFix" result="effect1_dropShadow_49_76"/>
<feBlend mode="normal" in="SourceGraphic" in2="effect1_dropShadow_49_76" result="shape"/>
</filter>
<linearGradient id="paint0_linear_49_76" x1="278.125" y1="63.1976" x2="51.2905" y2="63.1976" gradientUnits="userSpaceOnUse">
<stop stop-color="#65CFB4"/>
<stop offset="1" stop-color="#5CA8CC"/>
</linearGradient>
</defs>
</svg>
