<svg width="599" height="257" viewBox="0 0 599 257" fill="none" xmlns="http://www.w3.org/2000/svg">
<g filter="url(#filter0_d_818_2731)">
<path d="M474.396 16H97.8921L4.96094 107.848L93.6438 196H478.113L566.796 107.848L474.396 16Z" fill="#5190AE" fill-opacity="0.3" shape-rendering="crispEdges"/>
</g>
<g filter="url(#filter1_d_818_2731)">
<path d="M137.908 29.0357H498.396L590.961 118.374L498.396 206.691H242.301L210.417 237.321H60.7711M60.7711 237.321V225.58H40.2012V246H60.7711V237.321ZM487.597 194.439H211.446L198.075 206.181H135.851L46.8864 117.863L138.423 29.0357M361.092 29.0357L335.894 3H97.2827L46.8864 53.0294" stroke="url(#paint0_linear_818_2731)" stroke-width="5" shape-rendering="crispEdges"/>
</g>
<path d="M220.573 136C217.441 136 214.561 135.46 211.933 134.38C209.341 133.264 207.109 131.752 205.237 129.844C203.401 127.9 201.961 125.614 200.917 122.986C199.873 120.358 199.351 117.532 199.351 114.508C199.351 111.448 199.855 108.658 200.863 106.138C201.907 103.618 203.347 101.458 205.183 99.658C207.055 97.822 209.287 96.4 211.879 95.392C214.507 94.384 217.405 93.88 220.573 93.88H226.729V101.224H220.573C218.557 101.224 216.685 101.584 214.957 102.304C213.265 102.988 211.789 103.942 210.529 105.166C209.305 106.39 208.333 107.866 207.613 109.594C206.929 111.286 206.587 113.122 206.587 115.102C206.587 117.082 206.929 118.9 207.613 120.556C208.297 122.212 209.251 123.652 210.475 124.876C211.699 126.064 213.175 127 214.903 127.684C216.631 128.332 218.521 128.656 220.573 128.656H226.729V136H220.573ZM250.533 136C247.437 136 244.575 135.46 241.947 134.38C239.355 133.264 237.123 131.734 235.251 129.79C233.379 127.846 231.921 125.578 230.877 122.986C229.833 120.358 229.311 117.532 229.311 114.508C229.311 111.484 229.815 108.712 230.823 106.192C231.867 103.672 233.307 101.494 235.143 99.658C237.015 97.822 239.247 96.4 241.839 95.392C244.467 94.384 247.365 93.88 250.533 93.88H251.775C254.979 93.88 257.877 94.402 260.469 95.446C263.097 96.454 265.329 97.876 267.165 99.712C269.037 101.548 270.477 103.726 271.485 106.246C272.493 108.766 272.997 111.52 272.997 114.508C272.997 117.532 272.475 120.358 271.431 122.986C270.387 125.578 268.911 127.846 267.003 129.79C265.131 131.734 262.899 133.264 260.307 134.38C257.715 135.46 254.871 136 251.775 136H250.533ZM250.533 101.224C248.517 101.224 246.663 101.566 244.971 102.25C243.279 102.934 241.803 103.888 240.543 105.112C239.319 106.336 238.347 107.794 237.627 109.486C236.943 111.178 236.601 113.05 236.601 115.102C236.601 117.082 236.943 118.9 237.627 120.556C238.311 122.212 239.265 123.652 240.489 124.876C241.713 126.064 243.171 127 244.863 127.684C246.591 128.332 248.481 128.656 250.533 128.656H251.775C253.863 128.656 255.753 128.314 257.445 127.63C259.173 126.946 260.649 126.01 261.873 124.822C263.097 123.598 264.033 122.158 264.681 120.502C265.365 118.846 265.707 117.046 265.707 115.102C265.707 113.086 265.365 111.232 264.681 109.54C263.997 107.848 263.025 106.39 261.765 105.166C260.541 103.906 259.065 102.934 257.337 102.25C255.645 101.566 253.791 101.224 251.775 101.224H250.533ZM276.999 136V93.88H289.095C292.227 93.88 295.089 94.384 297.681 95.392C300.273 96.4 302.505 97.822 304.377 99.658C306.249 101.458 307.707 103.618 308.751 106.138C309.795 108.658 310.317 111.448 310.317 114.508C310.317 117.532 309.777 120.358 308.697 122.986C307.653 125.614 306.195 127.9 304.323 129.844C302.451 131.752 300.201 133.264 297.573 134.38C294.981 135.46 292.155 136 289.095 136H276.999ZM284.343 101.224V128.656H289.095C291.183 128.656 293.073 128.314 294.765 127.63C296.457 126.946 297.915 126.01 299.139 124.822C300.363 123.598 301.299 122.158 301.947 120.502C302.631 118.846 302.973 117.046 302.973 115.102C302.973 113.122 302.631 111.286 301.947 109.594C301.263 107.866 300.309 106.39 299.085 105.166C297.861 103.942 296.385 102.988 294.657 102.304C292.965 101.584 291.111 101.224 289.095 101.224H284.343ZM314.176 136V93.88H321.52V136H314.176ZM333.379 106.786V136H326.305V97.552C326.305 96.436 326.611 95.554 327.223 94.906C327.835 94.222 328.717 93.88 329.869 93.88C330.589 93.88 331.255 94.042 331.867 94.366C332.515 94.654 333.163 95.212 333.811 96.04L354.385 123.094V93.88H361.405V132.382C361.405 135.082 360.487 136.432 358.651 136.432C357.751 136.432 356.959 136.234 356.275 135.838C355.591 135.406 354.835 134.758 354.007 133.894L333.379 106.786ZM395.55 110.998V136H386.424C383.292 136 380.43 135.46 377.838 134.38C375.246 133.264 373.014 131.752 371.142 129.844C369.27 127.9 367.812 125.614 366.768 122.986C365.724 120.358 365.202 117.532 365.202 114.508C365.202 111.448 365.706 108.658 366.714 106.138C367.758 103.618 369.198 101.458 371.034 99.658C372.906 97.822 375.138 96.4 377.73 95.392C380.358 94.384 383.256 93.88 386.424 93.88H392.58V101.224H386.424C384.408 101.224 382.554 101.584 380.862 102.304C379.17 102.988 377.694 103.942 376.434 105.166C375.21 106.39 374.238 107.866 373.518 109.594C372.834 111.286 372.492 113.122 372.492 115.102C372.492 117.082 372.834 118.9 373.518 120.556C374.202 122.212 375.156 123.652 376.38 124.876C377.604 126.064 379.062 127 380.754 127.684C382.482 128.332 384.372 128.656 386.424 128.656H388.638V118.288H378.81V110.998H395.55Z" fill="#CACACA"/>
<defs>
<filter id="filter0_d_818_2731" x="0.960938" y="16" width="569.835" height="188" filterUnits="userSpaceOnUse" color-interpolation-filters="sRGB">
<feFlood flood-opacity="0" result="BackgroundImageFix"/>
<feColorMatrix in="SourceAlpha" type="matrix" values="0 0 0 0 0 0 0 0 0 0 0 0 0 0 0 0 0 0 127 0" result="hardAlpha"/>
<feOffset dy="4"/>
<feGaussianBlur stdDeviation="2"/>
<feComposite in2="hardAlpha" operator="out"/>
<feColorMatrix type="matrix" values="0 0 0 0 0 0 0 0 0 0 0 0 0 0 0 0 0 0 0.25 0"/>
<feBlend mode="normal" in2="BackgroundImageFix" result="effect1_dropShadow_818_2731"/>
<feBlend mode="normal" in="SourceGraphic" in2="effect1_dropShadow_818_2731" result="shape"/>
</filter>
<filter id="filter1_d_818_2731" x="33.7012" y="0.5" width="564.87" height="256" filterUnits="userSpaceOnUse" color-interpolation-filters="sRGB">
<feFlood flood-opacity="0" result="BackgroundImageFix"/>
<feColorMatrix in="SourceAlpha" type="matrix" values="0 0 0 0 0 0 0 0 0 0 0 0 0 0 0 0 0 0 127 0" result="hardAlpha"/>
<feOffset dy="4"/>
<feGaussianBlur stdDeviation="2"/>
<feComposite in2="hardAlpha" operator="out"/>
<feColorMatrix type="matrix" values="0 0 0 0 0 0 0 0 0 0 0 0 0 0 0 0 0 0 0.25 0"/>
<feBlend mode="normal" in2="BackgroundImageFix" result="effect1_dropShadow_818_2731"/>
<feBlend mode="normal" in="SourceGraphic" in2="effect1_dropShadow_818_2731" result="shape"/>
</filter>
<linearGradient id="paint0_linear_818_2731" x1="50.9302" y1="124.894" x2="502.744" y2="124.894" gradientUnits="userSpaceOnUse">
<stop stop-color="#65CFB4"/>
<stop offset="1" stop-color="#5CA8CC"/>
</linearGradient>
</defs>
</svg>
