<svg width="312" height="98" viewBox="0 0 312 98" fill="none" xmlns="http://www.w3.org/2000/svg">
<path d="M9.51181 73C8.45581 73 7.63981 72.736 7.06381 72.208C6.53581 71.632 6.27181 70.816 6.27181 69.76V25.48C6.27181 24.424 6.53581 23.632 7.06381 23.104C7.63981 22.528 8.45581 22.24 9.51181 22.24H36.2958C37.1118 22.24 37.7358 22.456 38.1678 22.888C38.5998 23.32 38.8158 23.92 38.8158 24.688C38.8158 25.504 38.5998 26.128 38.1678 26.56C37.7358 26.992 37.1118 27.208 36.2958 27.208H12.0318V44.776H34.7838C35.5998 44.776 36.2238 44.992 36.6558 45.424C37.0878 45.808 37.3038 46.408 37.3038 47.224C37.3038 48.04 37.0878 48.664 36.6558 49.096C36.2238 49.528 35.5998 49.744 34.7838 49.744H12.0318V68.032H36.2958C37.1118 68.032 37.7358 68.248 38.1678 68.68C38.5998 69.112 38.8158 69.712 38.8158 70.48C38.8158 71.296 38.5998 71.92 38.1678 72.352C37.7358 72.784 37.1118 73 36.2958 73H9.51181ZM59.8556 73.504C59.0396 73.504 58.3196 73.288 57.6956 72.856C57.0716 72.376 56.5436 71.656 56.1116 70.696L43.6556 41.608C43.3196 40.888 43.1996 40.216 43.2956 39.592C43.3916 38.968 43.6796 38.464 44.1596 38.08C44.6396 37.696 45.3116 37.504 46.1756 37.504C46.9436 37.504 47.5436 37.672 47.9756 38.008C48.4076 38.344 48.7916 38.944 49.1276 39.808L60.9356 68.68H58.9916L71.0156 39.808C71.3516 38.944 71.7356 38.344 72.1676 38.008C72.5996 37.672 73.2236 37.504 74.0396 37.504C74.8076 37.504 75.3836 37.696 75.7676 38.08C76.1996 38.464 76.4396 38.968 76.4876 39.592C76.5836 40.168 76.4876 40.816 76.1996 41.536L63.5996 70.696C63.2636 71.656 62.7596 72.376 62.0876 72.856C61.4636 73.288 60.7196 73.504 59.8556 73.504ZM99.1541 73.648C95.4581 73.648 92.2661 72.928 89.5781 71.488C86.9381 70 84.8741 67.912 83.3861 65.224C81.9461 62.536 81.2261 59.32 81.2261 55.576C81.2261 51.928 81.9461 48.76 83.3861 46.072C84.8261 43.336 86.7941 41.2 89.2901 39.664C91.8341 38.128 94.7621 37.36 98.0741 37.36C100.426 37.36 102.538 37.768 104.41 38.584C106.282 39.352 107.866 40.48 109.162 41.968C110.506 43.456 111.514 45.256 112.186 47.368C112.906 49.48 113.266 51.856 113.266 54.496C113.266 55.264 113.05 55.84 112.618 56.224C112.186 56.56 111.562 56.728 110.746 56.728H85.6901V52.912H109.378L108.226 53.848C108.226 51.256 107.842 49.072 107.074 47.296C106.306 45.472 105.178 44.08 103.69 43.12C102.25 42.16 100.426 41.68 98.2181 41.68C95.7701 41.68 93.6821 42.256 91.9541 43.408C90.2741 44.512 89.0021 46.072 88.1381 48.088C87.2741 50.056 86.8421 52.36 86.8421 55V55.432C86.8421 59.848 87.8981 63.208 90.0101 65.512C92.1701 67.816 95.2181 68.968 99.1541 68.968C100.786 68.968 102.394 68.752 103.978 68.32C105.61 67.888 107.194 67.168 108.73 66.16C109.402 65.728 110.002 65.536 110.53 65.584C111.106 65.584 111.562 65.752 111.898 66.088C112.234 66.376 112.45 66.76 112.546 67.24C112.69 67.672 112.642 68.152 112.402 68.68C112.21 69.208 111.802 69.664 111.178 70.048C109.594 71.2 107.722 72.088 105.562 72.712C103.402 73.336 101.266 73.648 99.1541 73.648ZM124.586 73.504C123.626 73.504 122.906 73.24 122.426 72.712C121.946 72.184 121.706 71.44 121.706 70.48V40.456C121.706 39.496 121.946 38.776 122.426 38.296C122.906 37.768 123.602 37.504 124.514 37.504C125.426 37.504 126.122 37.768 126.602 38.296C127.13 38.776 127.394 39.496 127.394 40.456V46.648L126.602 45.784C127.61 43 129.242 40.912 131.498 39.52C133.802 38.08 136.442 37.36 139.418 37.36C142.202 37.36 144.506 37.864 146.33 38.872C148.202 39.88 149.594 41.416 150.506 43.48C151.418 45.496 151.874 48.064 151.874 51.184V70.48C151.874 71.44 151.61 72.184 151.082 72.712C150.602 73.24 149.906 73.504 148.994 73.504C148.034 73.504 147.29 73.24 146.762 72.712C146.282 72.184 146.042 71.44 146.042 70.48V51.544C146.042 48.28 145.394 45.904 144.098 44.416C142.85 42.88 140.834 42.112 138.05 42.112C134.834 42.112 132.266 43.12 130.346 45.136C128.474 47.104 127.538 49.744 127.538 53.056V70.48C127.538 72.496 126.554 73.504 124.586 73.504ZM176.668 73.648C173.932 73.648 171.628 73.168 169.756 72.208C167.932 71.2 166.564 69.76 165.652 67.888C164.74 65.968 164.284 63.64 164.284 60.904V42.544H159.46C158.644 42.544 158.02 42.352 157.588 41.968C157.156 41.536 156.94 40.96 156.94 40.24C156.94 39.52 157.156 38.968 157.588 38.584C158.02 38.2 158.644 38.008 159.46 38.008H164.284V29.728C164.284 28.768 164.548 28.048 165.076 27.568C165.604 27.04 166.324 26.776 167.236 26.776C168.148 26.776 168.844 27.04 169.324 27.568C169.852 28.048 170.116 28.768 170.116 29.728V38.008H179.188C180.004 38.008 180.628 38.2 181.06 38.584C181.492 38.968 181.708 39.52 181.708 40.24C181.708 40.96 181.492 41.536 181.06 41.968C180.628 42.352 180.004 42.544 179.188 42.544H170.116V60.328C170.116 63.064 170.692 65.152 171.844 66.592C172.996 67.984 174.868 68.68 177.46 68.68C178.372 68.68 179.14 68.584 179.764 68.392C180.436 68.2 180.988 68.104 181.42 68.104C181.852 68.056 182.212 68.2 182.5 68.536C182.788 68.872 182.932 69.448 182.932 70.264C182.932 70.84 182.812 71.368 182.572 71.848C182.38 72.328 182.02 72.664 181.492 72.856C180.916 73.048 180.148 73.216 179.188 73.36C178.276 73.552 177.436 73.648 176.668 73.648ZM199.608 73.648C197.448 73.648 195.264 73.384 193.056 72.856C190.896 72.328 188.88 71.416 187.008 70.12C186.528 69.784 186.192 69.4 186 68.968C185.808 68.488 185.736 68.032 185.784 67.6C185.88 67.12 186.072 66.712 186.36 66.376C186.696 66.04 187.08 65.848 187.512 65.8C187.992 65.704 188.52 65.8 189.096 66.088C190.968 67.24 192.768 68.056 194.496 68.536C196.272 68.968 198.024 69.184 199.752 69.184C202.488 69.184 204.552 68.68 205.944 67.672C207.336 66.664 208.032 65.296 208.032 63.568C208.032 62.224 207.576 61.168 206.664 60.4C205.752 59.584 204.312 58.96 202.344 58.528L195.792 57.088C192.768 56.464 190.512 55.384 189.024 53.848C187.584 52.312 186.864 50.32 186.864 47.872C186.864 45.712 187.416 43.864 188.52 42.328C189.672 40.744 191.28 39.52 193.344 38.656C195.408 37.792 197.808 37.36 200.544 37.36C202.656 37.36 204.648 37.648 206.52 38.224C208.44 38.752 210.168 39.616 211.704 40.816C212.184 41.152 212.496 41.56 212.64 42.04C212.832 42.472 212.856 42.928 212.712 43.408C212.616 43.84 212.4 44.224 212.064 44.56C211.728 44.848 211.32 45.016 210.84 45.064C210.36 45.112 209.856 44.968 209.328 44.632C207.888 43.672 206.424 42.976 204.936 42.544C203.448 42.064 201.984 41.824 200.544 41.824C197.856 41.824 195.816 42.352 194.424 43.408C193.032 44.464 192.336 45.856 192.336 47.584C192.336 48.928 192.768 50.032 193.632 50.896C194.496 51.76 195.84 52.384 197.664 52.768L204.216 54.136C207.336 54.808 209.664 55.888 211.2 57.376C212.784 58.816 213.576 60.784 213.576 63.28C213.576 66.448 212.304 68.968 209.76 70.84C207.216 72.712 203.832 73.648 199.608 73.648Z" fill="white"/>
<path d="M233.028 37.7295L233 62.5887L255.843 50.1721L233.028 37.7295Z" fill="#65CEB4"/>
<path d="M264.451 23L264.41 76.4013L312.001 49.7403L264.451 23ZM271.88 35.5448L297.101 49.727L271.867 63.8697L271.88 35.5448Z" fill="#5CA8CC"/>
</svg>
