<svg width="591" height="249" viewBox="0 0 591 249" fill="none" xmlns="http://www.w3.org/2000/svg">
<path d="M498.245 15H120.449L27.1995 106.848L116.187 195H501.975L590.962 106.848L498.245 15Z" fill="#5190AE" fill-opacity="0.3"/>
<path d="M458.568 29.0357H96.8439L3.96173 118.374L96.8439 206.691H353.818L385.811 237.321H535.97M535.97 237.321V225.58H556.611V246H535.97V237.321ZM107.68 194.439H384.779L398.195 206.181H460.632L549.902 117.863L458.052 29.0357M234.619 29.0357L259.904 3H499.333L549.902 53.0294" stroke="url(#paint0_linear_818_2706)" stroke-width="5"/>
<path d="M220.753 110.998V136H211.627C208.495 136 205.633 135.46 203.041 134.38C200.449 133.264 198.217 131.752 196.345 129.844C194.473 127.9 193.015 125.614 191.971 122.986C190.927 120.358 190.405 117.532 190.405 114.508C190.405 111.448 190.909 108.658 191.917 106.138C192.961 103.618 194.401 101.458 196.237 99.658C198.109 97.822 200.341 96.4 202.933 95.392C205.561 94.384 208.459 93.88 211.627 93.88H217.783V101.224H211.627C209.611 101.224 207.757 101.584 206.065 102.304C204.373 102.988 202.897 103.942 201.637 105.166C200.413 106.39 199.441 107.866 198.721 109.594C198.037 111.286 197.695 113.122 197.695 115.102C197.695 117.082 198.037 118.9 198.721 120.556C199.405 122.212 200.359 123.652 201.583 124.876C202.807 126.064 204.265 127 205.957 127.684C207.685 128.332 209.575 128.656 211.627 128.656H213.841V118.288H204.013V110.998H220.753ZM248.939 95.77C249.443 94.978 250.055 94.42 250.775 94.096C251.531 93.736 252.323 93.556 253.151 93.556C254.087 93.556 254.825 93.898 255.365 94.582C255.941 95.23 256.229 96.112 256.229 97.228V136H248.939V107.542L230.903 136H222.155L248.939 95.77ZM284.909 95.77C285.413 94.978 286.043 94.42 286.799 94.096C287.555 93.736 288.329 93.556 289.121 93.556C290.057 93.556 290.813 93.898 291.389 94.582C291.965 95.23 292.253 96.112 292.253 97.228V122.878L310.289 95.77C310.793 94.978 311.405 94.42 312.125 94.096C312.881 93.736 313.673 93.556 314.501 93.556C315.437 93.556 316.193 93.898 316.769 94.582C317.345 95.23 317.633 96.112 317.633 97.228V136H310.289V107.542L293.873 133.462C293.261 134.434 292.595 135.1 291.875 135.46C291.155 135.82 290.417 136 289.661 136C289.013 136 288.401 135.892 287.825 135.676C287.249 135.424 286.745 135.082 286.313 134.65C285.881 134.218 285.539 133.714 285.287 133.138C285.035 132.562 284.909 131.914 284.909 131.194V107.542L266.873 136H258.125L284.909 95.77ZM322.263 136V93.88H329.607V136H322.263ZM341.466 106.786V136H334.392V97.552C334.392 96.436 334.698 95.554 335.31 94.906C335.922 94.222 336.804 93.88 337.956 93.88C338.676 93.88 339.342 94.042 339.954 94.366C340.602 94.654 341.25 95.212 341.898 96.04L362.472 123.094V93.88H369.492V132.382C369.492 135.082 368.574 136.432 366.738 136.432C365.838 136.432 365.046 136.234 364.362 135.838C363.678 135.406 362.922 134.758 362.094 133.894L341.466 106.786ZM403.636 110.998V136H394.51C391.378 136 388.516 135.46 385.924 134.38C383.332 133.264 381.1 131.752 379.228 129.844C377.356 127.9 375.898 125.614 374.854 122.986C373.81 120.358 373.288 117.532 373.288 114.508C373.288 111.448 373.792 108.658 374.8 106.138C375.844 103.618 377.284 101.458 379.12 99.658C380.992 97.822 383.224 96.4 385.816 95.392C388.444 94.384 391.342 93.88 394.51 93.88H400.666V101.224H394.51C392.494 101.224 390.64 101.584 388.948 102.304C387.256 102.988 385.78 103.942 384.52 105.166C383.296 106.39 382.324 107.866 381.604 109.594C380.92 111.286 380.578 113.122 380.578 115.102C380.578 117.082 380.92 118.9 381.604 120.556C382.288 122.212 383.242 123.652 384.466 124.876C385.69 126.064 387.148 127 388.84 127.684C390.568 128.332 392.458 128.656 394.51 128.656H396.724V118.288H386.896V110.998H403.636Z" fill="#CACACA"/>
<defs>
<linearGradient id="paint0_linear_818_2706" x1="545.845" y1="124.894" x2="92.4813" y2="124.894" gradientUnits="userSpaceOnUse">
<stop stop-color="#65CFB4"/>
<stop offset="1" stop-color="#5CA8CC"/>
</linearGradient>
</defs>
</svg>
