<svg width="592" height="249" viewBox="0 0 592 249" fill="none" xmlns="http://www.w3.org/2000/svg">
<path d="M457.003 29.0357H96.5233L3.96081 118.374L96.5233 206.691H352.613L384.495 237.321H534.138M534.138 237.321V225.58H554.707V246H534.138V237.321ZM107.322 194.439H383.467L396.837 206.181H459.06L548.022 117.863L456.488 29.0357M233.824 29.0357L259.022 3H497.627L548.022 53.0294" stroke="url(#paint0_linear_818_2726)" stroke-width="5"/>
<path d="M499.563 12H123.068L30.139 103.848L118.82 192H503.28L591.961 103.848L499.563 12Z" fill="#5190AE" fill-opacity="0.3"/>
<path d="M127.455 107.71C127.847 107.094 128.337 106.66 128.925 106.408C129.513 106.128 130.115 105.988 130.731 105.988C131.459 105.988 132.047 106.254 132.495 106.786C132.943 107.29 133.167 107.976 133.167 108.844V128.794L147.195 107.71C147.587 107.094 148.063 106.66 148.623 106.408C149.211 106.128 149.827 105.988 150.471 105.988C151.199 105.988 151.787 106.254 152.235 106.786C152.683 107.29 152.907 107.976 152.907 108.844V139H147.195V116.866L134.427 137.026C133.951 137.782 133.433 138.3 132.873 138.58C132.313 138.86 131.739 139 131.151 139C130.647 139 130.171 138.916 129.723 138.748C129.275 138.552 128.883 138.286 128.547 137.95C128.211 137.614 127.945 137.222 127.749 136.774C127.553 136.326 127.455 135.822 127.455 135.262V116.866L113.427 139H106.623L127.455 107.71ZM174.988 107.71C175.38 107.094 175.856 106.66 176.416 106.408C177.004 106.128 177.62 105.988 178.264 105.988C178.992 105.988 179.566 106.254 179.986 106.786C180.434 107.29 180.658 107.976 180.658 108.844V139H174.988V116.866L160.96 139H154.156L174.988 107.71ZM200.067 139C197.631 139 195.391 138.58 193.347 137.74C191.331 136.872 189.595 135.696 188.139 134.212C186.711 132.7 185.591 130.922 184.779 128.878C183.967 126.834 183.561 124.636 183.561 122.284C183.561 119.904 183.953 117.734 184.737 115.774C185.549 113.814 186.669 112.134 188.097 110.734C189.553 109.306 191.289 108.2 193.305 107.416C195.349 106.632 197.603 106.24 200.067 106.24H204.855V111.952H200.067C198.499 111.952 197.043 112.232 195.699 112.792C194.383 113.324 193.235 114.066 192.255 115.018C191.303 115.97 190.547 117.118 189.987 118.462C189.455 119.778 189.189 121.206 189.189 122.746C189.189 124.286 189.455 125.7 189.987 126.988C190.519 128.276 191.261 129.396 192.213 130.348C193.165 131.272 194.313 132 195.657 132.532C197.001 133.036 198.471 133.288 200.067 133.288H204.855V139H200.067ZM213.08 139H207.368V106.24H213.08V119.554H222.782V106.24H228.494V139H222.782V125.266H213.08V139ZM232.141 139V106.24H237.853V139H232.141ZM247.077 116.278V139H241.575V109.096C241.575 108.228 241.813 107.542 242.289 107.038C242.765 106.506 243.451 106.24 244.347 106.24C244.907 106.24 245.425 106.366 245.901 106.618C246.405 106.842 246.909 107.276 247.413 107.92L263.415 128.962V106.24H268.875V136.186C268.875 138.286 268.161 139.336 266.733 139.336C266.033 139.336 265.417 139.182 264.885 138.874C264.353 138.538 263.765 138.034 263.121 137.362L247.077 116.278ZM288.795 139H272.541V106.24H288.543V111.952H278.253V119.554H287.115V125.224H278.253V133.288H288.795V139ZM301.327 139V106.24H306.997V133.288H315.901V139H301.327ZM334.446 139H318.192V106.24H334.194V111.952H323.904V119.554H332.766V125.224H323.904V133.288H334.446V139ZM355.621 107.71C356.013 107.094 356.489 106.66 357.049 106.408C357.637 106.128 358.253 105.988 358.897 105.988C359.625 105.988 360.199 106.254 360.619 106.786C361.067 107.29 361.291 107.976 361.291 108.844V139H355.621V116.866L341.593 139H334.789L355.621 107.71ZM389.352 139H381.372L372.678 129.802C372.174 129.27 371.782 128.766 371.502 128.29C371.25 127.814 371.124 127.338 371.124 126.862C371.124 125.07 372.258 124.09 374.526 123.922C377.578 123.698 379.832 123.096 381.288 122.116C382.772 121.108 383.514 119.596 383.514 117.58C383.514 115.704 382.94 114.304 381.792 113.38C380.672 112.428 379.062 111.952 376.962 111.952H370.662V139H364.95V106.24H377.088C378.796 106.24 380.406 106.492 381.918 106.996C383.43 107.472 384.732 108.186 385.824 109.138C386.944 110.062 387.826 111.224 388.47 112.624C389.114 114.024 389.436 115.634 389.436 117.454C389.436 118.546 389.268 119.666 388.932 120.814C388.596 121.962 388.036 123.04 387.252 124.048C386.468 125.056 385.432 125.952 384.144 126.736C382.856 127.492 381.246 128.024 379.314 128.332L389.352 139ZM398.014 116.278V139H392.512V109.096C392.512 108.228 392.75 107.542 393.226 107.038C393.702 106.506 394.388 106.24 395.284 106.24C395.844 106.24 396.362 106.366 396.838 106.618C397.342 106.842 397.846 107.276 398.35 107.92L414.352 128.962V106.24H419.812V136.186C419.812 138.286 419.098 139.336 417.67 139.336C416.97 139.336 416.354 139.182 415.822 138.874C415.29 138.538 414.702 138.034 414.058 137.362L398.014 116.278ZM423.479 139V106.24H429.191V139H423.479ZM438.414 116.278V139H432.912V109.096C432.912 108.228 433.15 107.542 433.626 107.038C434.102 106.506 434.788 106.24 435.684 106.24C436.244 106.24 436.762 106.366 437.238 106.618C437.742 106.842 438.246 107.276 438.75 107.92L454.752 128.962V106.24H460.212V136.186C460.212 138.286 459.498 139.336 458.07 139.336C457.37 139.336 456.754 139.182 456.222 138.874C455.69 138.538 455.102 138.034 454.458 137.362L438.414 116.278ZM486.769 119.554V139H479.671C477.235 139 475.009 138.58 472.993 137.74C470.977 136.872 469.241 135.696 467.785 134.212C466.329 132.7 465.195 130.922 464.383 128.878C463.571 126.834 463.165 124.636 463.165 122.284C463.165 119.904 463.557 117.734 464.341 115.774C465.153 113.814 466.273 112.134 467.701 110.734C469.157 109.306 470.893 108.2 472.909 107.416C474.953 106.632 477.207 106.24 479.671 106.24H484.459V111.952H479.671C478.103 111.952 476.661 112.232 475.345 112.792C474.029 113.324 472.881 114.066 471.901 115.018C470.949 115.97 470.193 117.118 469.633 118.462C469.101 119.778 468.835 121.206 468.835 122.746C468.835 124.286 469.101 125.7 469.633 126.988C470.165 128.276 470.907 129.396 471.859 130.348C472.811 131.272 473.945 132 475.261 132.532C476.605 133.036 478.075 133.288 479.671 133.288H481.393V125.224H473.749V119.554H486.769Z" fill="#CACACA"/>
<defs>
<linearGradient id="paint0_linear_818_2726" x1="543.979" y1="124.894" x2="92.1756" y2="124.894" gradientUnits="userSpaceOnUse">
<stop stop-color="#65CFB4"/>
<stop offset="1" stop-color="#5CA8CC"/>
</linearGradient>
</defs>
</svg>
