<svg width="252" height="134" viewBox="0 0 252 134" fill="none" xmlns="http://www.w3.org/2000/svg">
<g filter="url(#filter0_d_49_66)">
<path d="M220.002 9H36.1328L52 99.3697H235.502L220.002 9Z" fill="#5190AE" fill-opacity="0.3" shape-rendering="crispEdges"/>
</g>
<g filter="url(#filter1_d_49_66)">
<path d="M16.3272 119.642V113.747H6V123.999H16.3272V119.642ZM16.3272 119.642H91.4576L107.465 104.264H246.002L230.617 15.0713H44.502L59.5 104.008H85.2613L91.974 98.1127H230.617M167.104 15.0713L154.454 2H34.658" stroke="url(#paint0_linear_49_66)" stroke-width="3" shape-rendering="crispEdges"/>
</g>
<path d="M108.264 72C106.2 72 104.292 71.64 102.54 70.92C100.812 70.176 99.324 69.156 98.076 67.86C96.828 66.564 95.856 65.052 95.16 63.324C94.464 61.572 94.116 59.688 94.116 57.672C94.116 55.656 94.452 53.808 95.124 52.128C95.82 50.448 96.78 48.996 98.004 47.772C99.252 46.548 100.74 45.6 102.468 44.928C104.22 44.256 106.152 43.92 108.264 43.92H109.092C111.228 43.92 113.16 44.268 114.888 44.964C116.64 45.636 118.128 46.584 119.352 47.808C120.6 49.032 121.56 50.484 122.232 52.164C122.904 53.844 123.24 55.68 123.24 57.672C123.24 59.688 122.892 61.572 122.196 63.324C121.5 65.052 120.516 66.564 119.244 67.86C117.996 69.156 116.508 70.176 114.78 70.92C113.052 71.64 111.156 72 109.092 72H108.264ZM108.264 48.816C106.92 48.816 105.684 49.044 104.556 49.5C103.428 49.956 102.444 50.592 101.604 51.408C100.788 52.224 100.14 53.196 99.66 54.324C99.204 55.452 98.976 56.7 98.976 58.068C98.976 59.388 99.204 60.6 99.66 61.704C100.116 62.808 100.752 63.768 101.568 64.584C102.384 65.376 103.356 66 104.484 66.456C105.636 66.888 106.896 67.104 108.264 67.104H109.092C110.484 67.104 111.744 66.876 112.872 66.42C114.024 65.964 115.008 65.34 115.824 64.548C116.64 63.732 117.264 62.772 117.696 61.668C118.152 60.564 118.38 59.364 118.38 58.068C118.38 56.724 118.152 55.488 117.696 54.36C117.24 53.232 116.592 52.26 115.752 51.444C114.936 50.604 113.952 49.956 112.8 49.5C111.672 49.044 110.436 48.816 109.092 48.816H108.264ZM135.087 59.22C135.951 59.22 136.731 59.088 137.427 58.824C138.147 58.56 138.759 58.2 139.263 57.744C139.767 57.264 140.151 56.712 140.415 56.088C140.703 55.44 140.847 54.744 140.847 54C140.847 53.256 140.703 52.572 140.415 51.948C140.151 51.3 139.767 50.748 139.263 50.292C138.759 49.812 138.147 49.452 137.427 49.212C136.731 48.948 135.951 48.816 135.087 48.816H130.803V59.22H135.087ZM130.803 64.116V72H125.907V43.92H135.231C136.839 43.92 138.279 44.184 139.551 44.712C140.823 45.216 141.903 45.924 142.791 46.836C143.679 47.724 144.363 48.792 144.843 50.04C145.323 51.264 145.563 52.596 145.563 54.036C145.563 55.476 145.323 56.82 144.843 58.068C144.363 59.292 143.667 60.36 142.755 61.272C141.867 62.16 140.787 62.856 139.515 63.36C138.243 63.864 136.815 64.116 135.231 64.116H130.803ZM161.46 72H147.528V43.92H161.244V48.816H152.424V55.332H160.02V60.192H152.424V67.104H161.46V72ZM168.487 52.524V72H163.771V46.368C163.771 45.624 163.975 45.036 164.383 44.604C164.791 44.148 165.379 43.92 166.147 43.92C166.627 43.92 167.071 44.028 167.479 44.244C167.911 44.436 168.343 44.808 168.775 45.36L182.491 63.396V43.92H187.171V69.588C187.171 71.388 186.559 72.288 185.335 72.288C184.735 72.288 184.207 72.156 183.751 71.892C183.295 71.604 182.791 71.172 182.239 70.596L168.487 52.524Z" fill="#CACACA"/>
<defs>
<filter id="filter0_d_49_66" x="32.1328" y="9" width="207.367" height="98.3701" filterUnits="userSpaceOnUse" color-interpolation-filters="sRGB">
<feFlood flood-opacity="0" result="BackgroundImageFix"/>
<feColorMatrix in="SourceAlpha" type="matrix" values="0 0 0 0 0 0 0 0 0 0 0 0 0 0 0 0 0 0 127 0" result="hardAlpha"/>
<feOffset dy="4"/>
<feGaussianBlur stdDeviation="2"/>
<feComposite in2="hardAlpha" operator="out"/>
<feColorMatrix type="matrix" values="0 0 0 0 0 0 0 0 0 0 0 0 0 0 0 0 0 0 0.25 0"/>
<feBlend mode="normal" in2="BackgroundImageFix" result="effect1_dropShadow_49_66"/>
<feBlend mode="normal" in="SourceGraphic" in2="effect1_dropShadow_49_66" result="shape"/>
</filter>
<filter id="filter1_d_49_66" x="0.5" y="0.5" width="251.281" height="132.999" filterUnits="userSpaceOnUse" color-interpolation-filters="sRGB">
<feFlood flood-opacity="0" result="BackgroundImageFix"/>
<feColorMatrix in="SourceAlpha" type="matrix" values="0 0 0 0 0 0 0 0 0 0 0 0 0 0 0 0 0 0 127 0" result="hardAlpha"/>
<feOffset dy="4"/>
<feGaussianBlur stdDeviation="2"/>
<feComposite in2="hardAlpha" operator="out"/>
<feColorMatrix type="matrix" values="0 0 0 0 0 0 0 0 0 0 0 0 0 0 0 0 0 0 0.25 0"/>
<feBlend mode="normal" in2="BackgroundImageFix" result="effect1_dropShadow_49_66"/>
<feBlend mode="normal" in="SourceGraphic" in2="effect1_dropShadow_49_66" result="shape"/>
</filter>
<linearGradient id="paint0_linear_49_66" x1="11.3866" y1="63.1976" x2="238.221" y2="63.1976" gradientUnits="userSpaceOnUse">
<stop stop-color="#65CFB4"/>
<stop offset="1" stop-color="#5CA8CC"/>
</linearGradient>
</defs>
</svg>
