<svg width="592" height="249" viewBox="0 0 592 249" fill="none" xmlns="http://www.w3.org/2000/svg">
<path d="M499.245 11H121.456L28.2079 102.848L117.193 191H502.975L591.96 102.848L499.245 11Z" fill="#5190AE" fill-opacity="0.3"/>
<path d="M458.56 29.0357H96.8415L3.96092 118.374L96.8415 206.691H353.811L385.803 237.321H535.96M535.96 237.321V225.58H556.6V246H535.96V237.321ZM107.678 194.439H384.771L398.187 206.181H460.624L549.892 117.863L458.044 29.0357M234.614 29.0357L259.898 3H499.324L549.892 53.0294" stroke="url(#paint0_linear_818_2721)" stroke-width="5"/>
<path d="M130.896 136C127.8 136 124.938 135.46 122.31 134.38C119.718 133.264 117.486 131.734 115.614 129.79C113.742 127.846 112.284 125.578 111.24 122.986C110.196 120.358 109.674 117.532 109.674 114.508C109.674 111.484 110.178 108.712 111.186 106.192C112.23 103.672 113.67 101.494 115.506 99.658C117.378 97.822 119.61 96.4 122.202 95.392C124.83 94.384 127.728 93.88 130.896 93.88H132.138C135.342 93.88 138.24 94.402 140.832 95.446C143.46 96.454 145.692 97.876 147.528 99.712C149.4 101.548 150.84 103.726 151.848 106.246C152.856 108.766 153.36 111.52 153.36 114.508C153.36 117.532 152.838 120.358 151.794 122.986C150.75 125.578 149.274 127.846 147.366 129.79C145.494 131.734 143.262 133.264 140.67 134.38C138.078 135.46 135.234 136 132.138 136H130.896ZM130.896 101.224C128.88 101.224 127.026 101.566 125.334 102.25C123.642 102.934 122.166 103.888 120.906 105.112C119.682 106.336 118.71 107.794 117.99 109.486C117.306 111.178 116.964 113.05 116.964 115.102C116.964 117.082 117.306 118.9 117.99 120.556C118.674 122.212 119.628 123.652 120.852 124.876C122.076 126.064 123.534 127 125.226 127.684C126.954 128.332 128.844 128.656 130.896 128.656H132.138C134.226 128.656 136.116 128.314 137.808 127.63C139.536 126.946 141.012 126.01 142.236 124.822C143.46 123.598 144.396 122.158 145.044 120.502C145.728 118.846 146.07 117.046 146.07 115.102C146.07 113.086 145.728 111.232 145.044 109.54C144.36 107.848 143.388 106.39 142.128 105.166C140.904 103.906 139.428 102.934 137.7 102.25C136.008 101.566 134.154 101.224 132.138 101.224H130.896ZM171.131 116.83C172.427 116.83 173.597 116.632 174.641 116.236C175.721 115.84 176.639 115.3 177.395 114.616C178.151 113.896 178.727 113.068 179.123 112.132C179.555 111.16 179.771 110.116 179.771 109C179.771 107.884 179.555 106.858 179.123 105.922C178.727 104.95 178.151 104.122 177.395 103.438C176.639 102.718 175.721 102.178 174.641 101.818C173.597 101.422 172.427 101.224 171.131 101.224H164.705V116.83H171.131ZM164.705 124.174V136H157.361V93.88H171.347C173.759 93.88 175.919 94.276 177.827 95.068C179.735 95.824 181.355 96.886 182.687 98.254C184.019 99.586 185.045 101.188 185.765 103.06C186.485 104.896 186.845 106.894 186.845 109.054C186.845 111.214 186.485 113.23 185.765 115.102C185.045 116.938 184.001 118.54 182.633 119.908C181.301 121.24 179.681 122.284 177.773 123.04C175.865 123.796 173.723 124.174 171.347 124.174H164.705ZM210.691 136H189.793V93.88H210.367V101.224H197.137V110.998H208.531V118.288H197.137V128.656H210.691V136ZM221.23 106.786V136H214.156V97.552C214.156 96.436 214.462 95.554 215.074 94.906C215.686 94.222 216.568 93.88 217.72 93.88C218.44 93.88 219.106 94.042 219.718 94.366C220.366 94.654 221.014 95.212 221.662 96.04L242.236 123.094V93.88H249.256V132.382C249.256 135.082 248.338 136.432 246.502 136.432C245.602 136.432 244.81 136.234 244.126 135.838C243.442 135.406 242.686 134.758 241.858 133.894L221.23 106.786ZM287.894 136H266.996V93.88H287.57V101.224H274.34V110.998H285.734V118.288H274.34V128.656H287.894V136ZM288.227 93.88H296.921L315.011 122.338V93.88H322.301V132.652C322.301 133.768 322.013 134.65 321.437 135.298C320.897 135.946 320.159 136.27 319.223 136.27C318.395 136.27 317.603 136.108 316.847 135.784C316.127 135.46 315.515 134.902 315.011 134.11L288.227 93.88ZM347.906 136H327.008V93.88H347.582V101.224H334.352V110.998H345.746V118.288H334.352V128.656H347.906V136ZM358.445 106.786V136H351.371V97.552C351.371 96.436 351.677 95.554 352.289 94.906C352.901 94.222 353.783 93.88 354.935 93.88C355.655 93.88 356.321 94.042 356.933 94.366C357.581 94.654 358.229 95.212 358.877 96.04L379.451 123.094V93.88H386.471V132.382C386.471 135.082 385.553 136.432 383.717 136.432C382.817 136.432 382.025 136.234 381.341 135.838C380.657 135.406 379.901 134.758 379.073 133.894L358.445 106.786ZM407.439 101.224V136H400.095V101.224H389.349V93.88H418.185V101.224H407.439ZM421.251 136V128.656H435.993C438.261 128.656 440.133 128.116 441.609 127.036C443.085 125.956 443.823 124.552 443.823 122.824C443.823 121.96 443.625 121.168 443.229 120.448C442.833 119.728 442.293 119.116 441.609 118.612C440.925 118.072 440.097 117.658 439.125 117.37C438.153 117.082 437.109 116.938 435.993 116.938H432.645C430.917 116.938 429.315 116.668 427.839 116.128C426.363 115.552 425.085 114.76 424.005 113.752C422.925 112.708 422.079 111.502 421.467 110.134C420.855 108.73 420.549 107.182 420.549 105.49C420.549 103.834 420.855 102.304 421.467 100.9C422.115 99.496 423.015 98.272 424.167 97.228C425.319 96.184 426.705 95.374 428.325 94.798C429.945 94.186 431.727 93.88 433.671 93.88H447.657V101.224H433.293C431.745 101.224 430.521 101.656 429.621 102.52C428.721 103.348 428.271 104.356 428.271 105.544C428.271 106.84 428.721 107.92 429.621 108.784C430.557 109.648 431.781 110.08 433.293 110.08H437.451C439.323 110.08 441.051 110.404 442.635 111.052C444.219 111.664 445.587 112.546 446.739 113.698C447.891 114.85 448.791 116.218 449.439 117.802C450.087 119.386 450.411 121.114 450.411 122.986C450.411 124.894 450.069 126.64 449.385 128.224C448.701 129.808 447.711 131.176 446.415 132.328C445.155 133.48 443.643 134.38 441.879 135.028C440.115 135.676 438.153 136 435.993 136H421.251Z" fill="#CACACA"/>
<defs>
<linearGradient id="paint0_linear_818_2721" x1="545.834" y1="124.894" x2="92.4789" y2="124.894" gradientUnits="userSpaceOnUse">
<stop stop-color="#65CFB4"/>
<stop offset="1" stop-color="#5CA8CC"/>
</linearGradient>
</defs>
</svg>
