<svg width="220" height="68" viewBox="0 0 220 68" fill="none" xmlns="http://www.w3.org/2000/svg">
<path d="M164.872 66.0625L12 66.0625L38.9975 38.6803L61.7001 38.6803L80.1951 20.2772V15.6099V10.9425L192.655 10.9425C204.918 13.5193 211.969 16.9946 215.959 23.696C222.164 34.1182 221.166 48.8464 213.357 58.0879C209.057 63.1767 202.785 65.3472 192.655 66.0625H164.872Z" fill="#88A8D6" fill-opacity="0.3"/>
<path d="M85.343 46V43.144H91.076C91.958 43.144 92.686 42.934 93.26 42.514C93.834 42.094 94.121 41.548 94.121 40.876C94.121 40.54 94.044 40.232 93.89 39.952C93.736 39.672 93.526 39.434 93.26 39.238C92.994 39.028 92.672 38.867 92.294 38.755C91.916 38.643 91.51 38.587 91.076 38.587H89.774C89.102 38.587 88.479 38.482 87.905 38.272C87.331 38.048 86.834 37.74 86.414 37.348C85.994 36.942 85.665 36.473 85.427 35.941C85.189 35.395 85.07 34.793 85.07 34.135C85.07 33.491 85.189 32.896 85.427 32.35C85.679 31.804 86.029 31.328 86.477 30.922C86.925 30.516 87.464 30.201 88.094 29.977C88.724 29.739 89.417 29.62 90.173 29.62H95.612V32.476H90.026C89.424 32.476 88.948 32.644 88.598 32.98C88.248 33.302 88.073 33.694 88.073 34.156C88.073 34.66 88.248 35.08 88.598 35.416C88.962 35.752 89.438 35.92 90.026 35.92H91.643C92.371 35.92 93.043 36.046 93.659 36.298C94.275 36.536 94.807 36.879 95.255 37.327C95.703 37.775 96.053 38.307 96.305 38.923C96.557 39.539 96.683 40.211 96.683 40.939C96.683 41.681 96.55 42.36 96.284 42.976C96.018 43.592 95.633 44.124 95.129 44.572C94.639 45.02 94.051 45.37 93.365 45.622C92.679 45.874 91.916 46 91.076 46H85.343ZM106.155 46C104.937 46 103.817 45.79 102.795 45.37C101.787 44.936 100.919 44.348 100.191 43.606C99.4774 42.85 98.9174 41.961 98.5114 40.939C98.1054 39.917 97.9024 38.818 97.9024 37.642C97.9024 36.452 98.0984 35.367 98.4904 34.387C98.8964 33.407 99.4564 32.567 100.17 31.867C100.898 31.153 101.766 30.6 102.774 30.208C103.796 29.816 104.923 29.62 106.155 29.62H108.549V32.476H106.155C105.371 32.476 104.643 32.616 103.971 32.896C103.313 33.162 102.739 33.533 102.249 34.009C101.773 34.485 101.395 35.059 101.115 35.731C100.849 36.389 100.716 37.103 100.716 37.873C100.716 38.643 100.849 39.35 101.115 39.994C101.381 40.638 101.752 41.198 102.228 41.674C102.704 42.136 103.278 42.5 103.95 42.766C104.622 43.018 105.357 43.144 106.155 43.144H108.549V46H106.155ZM112.662 46H109.806V29.62H112.662V36.277H117.513V29.62H120.369V46H117.513V39.133H112.662V46ZM130.32 46H122.193V29.62H130.194V32.476H125.049V36.277H129.48V39.112H125.049V43.144H130.32V46ZM131.667 46V29.62H136.371C137.589 29.62 138.702 29.816 139.71 30.208C140.718 30.6 141.586 31.153 142.314 31.867C143.042 32.567 143.609 33.407 144.015 34.387C144.421 35.367 144.624 36.452 144.624 37.642C144.624 38.818 144.414 39.917 143.994 40.939C143.588 41.961 143.021 42.85 142.293 43.606C141.565 44.348 140.69 44.936 139.668 45.37C138.66 45.79 137.561 46 136.371 46H131.667ZM134.523 32.476V43.144H136.371C137.183 43.144 137.918 43.011 138.576 42.745C139.234 42.479 139.801 42.115 140.277 41.653C140.753 41.177 141.117 40.617 141.369 39.973C141.635 39.329 141.768 38.629 141.768 37.873C141.768 37.103 141.635 36.389 141.369 35.731C141.103 35.059 140.732 34.485 140.256 34.009C139.78 33.533 139.206 33.162 138.534 32.896C137.876 32.616 137.155 32.476 136.371 32.476H134.523ZM159.103 29.62V38.608C159.103 40.988 158.55 42.815 157.444 44.089C156.352 45.363 154.812 46 152.824 46H152.278C150.276 46 148.729 45.37 147.637 44.11C146.559 42.836 146.02 41.002 146.02 38.608V29.62H148.876V38.608C148.876 39.476 148.939 40.197 149.065 40.771C149.191 41.345 149.387 41.814 149.653 42.178C149.933 42.528 150.283 42.78 150.703 42.934C151.137 43.074 151.662 43.144 152.278 43.144H152.824C153.426 43.144 153.944 43.067 154.378 42.913C154.812 42.759 155.169 42.507 155.449 42.157C155.729 41.807 155.932 41.345 156.058 40.771C156.184 40.183 156.247 39.462 156.247 38.608V29.62H159.103ZM160.682 46V29.62H163.517V43.144H167.969V46H160.682ZM177.241 46H169.114V29.62H177.115V32.476H171.97V36.277H176.401V39.112H171.97V43.144H177.241V46Z" fill="white"/>
<path d="M157.479 61.0577H2.79822L30.1151 33.7457H53.0862M157.479 61.0577H185.591C195.841 60.3442 202.187 58.1794 206.538 53.1037C214.439 43.8858 215.449 29.1953 209.17 18.7999C205.133 12.1156 197.999 8.64925 185.591 6.07906H71.8V15.39L58.3189 28.7799L35.7027 6.07906H11.2239L10.7463 6.52243M157.479 61.0577L151.888 66.5556H60.7136M157.479 61.0577L168.119 50.594M10.7463 6.52243L6.25714 10.6902L2 6.52243L6.25714 2L10.7463 6.52243Z" stroke="url(#paint0_linear_1137_8)" stroke-width="2"/>
<defs>
<linearGradient id="paint0_linear_1137_8" x1="-771.188" y1="43.5002" x2="213.706" y2="31.2508" gradientUnits="userSpaceOnUse">
<stop stop-color="#65CFB4"/>
<stop offset="1" stop-color="#5CA7CC"/>
</linearGradient>
</defs>
</svg>
